<?xml version="1.0" encoding="utf-8"?>
<!-- Generator: Adobe Illustrator 23.0.1, SVG Export Plug-In . SVG Version: 6.00 Build 0)  -->
<svg version="1.1" id="Layer_1" xmlns="http://www.w3.org/2000/svg" xmlns:xlink="http://www.w3.org/1999/xlink" x="0px" y="0px"
	 viewBox="0 0 352 352.2" width="300" style="enable-background:new 0 0 352 352.2;" xml:space="preserve">
<style type="text/css">
	.st0{fill:none;stroke:#2B3A40;stroke-width:3;stroke-miterlimit:10;}
	.st1{fill:#A2A899;stroke:#2B3A40;stroke-width:3;stroke-miterlimit:10;}
	.st2{fill:#7B8471;stroke:#2B3A40;stroke-width:3;stroke-miterlimit:10;}
	.st3{font-family:'Cinzel-Bold';}
	.st4{font-size:12.0284px;}
	.st5{font-family:'MontserratAlternates-Light';}
	.st6{font-size:11.026px;}
	.st7{fill:#FFFFFF;}
</style>
<g>
	<g>
		<path class="st0" d="M176,148.9c16.1-11,35.6-17.5,56.5-17.5c14.9,0,29.1,3.3,41.9,9.1c1.4-6.7,2.1-13.6,2.1-20.6
			c0-55.7-45-100.8-100.5-100.8S75.5,64.2,75.5,119.9c0,7.1,0.7,14,2.1,20.6c12.7-5.9,26.9-9.1,41.9-9.1
			C140.4,131.4,159.9,137.8,176,148.9z"/>
		<path class="st0" d="M274.4,140.6c-6.6,31.7-27.9,57.9-56.5,71.1c1.4,6.7,2.1,13.6,2.1,20.6c0,34.7-17.4,65.2-44,83.4
			c16.1,11,35.6,17.5,56.5,17.5c55.5,0,100.5-45.1,100.5-100.8C333,191.5,309,156.5,274.4,140.6z"/>
		<path class="st1" d="M176,148.9c21.1,14.4,36.5,36.8,41.9,62.8c28.6-13.2,50-39.4,56.5-71.1c-12.7-5.9-26.9-9.1-41.9-9.1
			C211.6,131.4,192.1,137.8,176,148.9z"/>
		<path class="st0" d="M132,232.2c0-7.1,0.7-14,2.1-20.6c-28.6-13.2-50-39.4-56.5-71.1C43,156.5,19,191.5,19,232.2
			c0,55.7,45,100.8,100.5,100.8c21,0,40.4-6.4,56.5-17.5C149.5,297.5,132,266.9,132,232.2z"/>
		<path class="st1" d="M134.1,211.6c5.4-26,20.7-48.3,41.9-62.8c-16.1-11-35.6-17.5-56.5-17.5c-14.9,0-29.1,3.3-41.9,9.1
			C84.2,172.2,105.5,198.5,134.1,211.6z"/>
		<path class="st0" d="M220,232.2c0-7.1-0.7-14-2.1-20.6c-12.7,5.9-26.9,9.1-41.9,9.1s-29.1-3.3-41.9-9.1
			c-1.4,6.7-2.1,13.6-2.1,20.6c0,34.7,17.4,65.2,44,83.4C202.5,297.5,220,266.9,220,232.2z"/>
		<path class="st2" d="M176,148.9c-21.1,14.4-36.5,36.8-41.9,62.8c12.7,5.9,26.9,9.1,41.9,9.1s29.1-3.3,41.9-9.1
			C212.5,185.6,197.1,163.3,176,148.9z"/>
	</g>
	<text transform="matrix(0.9965 0 0 1 116.8663 58.5122)"><tspan x="0" y="0" class="st3 st4">AARDRIJKSKUNDE</tspan><tspan x="0" y="14.4" class="st3 st4">GEOGRAFIE/GEODATA</tspan></text>
	<text transform="matrix(0.9965 0 0 1 49.4698 203.9409)" class="st3 st4">MEDIA</text>
	<text transform="matrix(0.9965 0 0 1 260.9918 203.9414)" class="st3 st4">DESIGN</text>
	<text transform="matrix(0.9965 0 0 1 141.5035 91.7822)"><tspan x="0" y="0" class="st5 st6">stad/regio</tspan><tspan x="0" y="13.2" class="st5 st6">fysisch/milieu</tspan><tspan x="0" y="26.5" class="st5 st6">GIS</tspan></text>
	<text transform="matrix(0.9965 0 0 1 247.7174 227.8901)"><tspan x="0" y="0" class="st5 st6">cartografie</tspan><tspan x="-7" y="13.2" class="st5 st6">infographics</tspan><tspan x="-19.7" y="26.5" class="st5 st6">grafisch &amp; user</tspan><tspan x="-27.1" y="39.7" class="st5 st6">centered design</tspan><tspan x="-24.3" y="52.9" class="st5 st6">creatief denken</tspan></text>
	<text transform="matrix(0.9965 0 0 1 49.36 232.9023)"><tspan x="0" y="0" class="st5 st6">devices</tspan><tspan x="0" y="13.2" class="st5 st6">gaming</tspan><tspan x="0" y="26.5" class="st5 st6">gadgets</tspan><tspan x="0" y="39.7" class="st5 st6">web &amp; app</tspan></text>
	<g>
		<g>
			<path class="st7" d="M116.9,182.6c0-0.5,0.4-1,1.1-1c0.6,0,1.1,0.4,1.1,1c0,0.6-0.4,1-1.1,1C117.3,183.6,116.9,183.1,116.9,182.6
				z M117.1,184.4c0.7,0.1,1,0.1,1.7,0.2c0,2.6,0,3.8,0,6.4c-0.7-0.2-1-0.4-1.7-0.6C117.1,188,117.1,186.8,117.1,184.4z"/>
			<path class="st7" d="M126.4,182.3c-0.1,4.5-0.1,6.7-0.2,11.2c-0.6-0.2-1-0.3-1.6-0.5c0-0.4,0-0.5,0-0.9c-0.4,0.6-1.1,0.7-1.8,0.4
				c-1.6-0.5-2.9-2.3-2.8-4.4c0-2.1,1.3-3.3,3-3.1c0.7,0.1,1.3,0.4,1.7,1.1c0-1.5,0-2.3,0.1-3.8
				C125.4,182.3,125.7,182.3,126.4,182.3z M124.6,189.1c0-1.3-0.6-2.2-1.4-2.4c-0.8-0.1-1.5,0.5-1.5,1.7c0,1.2,0.6,2.1,1.5,2.4
				C123.9,191,124.6,190.4,124.6,189.1z"/>
			<path class="st7" d="M132.2,192.3c0.3,0.7,0.5,1.1,0.9,1.8c-0.6,0.9-1.4,1.2-2.4,0.9c-2-0.6-3.3-2.8-3.2-5.3
				c0.1-2.5,1.4-4.2,3.2-4c1.7,0.1,3,2,2.9,5.1c-1.8,0.3-2.6,0.3-4.4,0.5c0.2,0.9,0.8,1.5,1.5,1.7
				C131.3,193,131.8,192.8,132.2,192.3z M129,189.7c1.1-0.1,1.7-0.2,2.9-0.4c-0.1-1-0.6-1.7-1.3-1.7
				C129.7,187.5,129.1,188.2,129,189.7z"/>
			<path class="st7" d="M140.8,186.6c-0.1,4.3-0.2,6.4-0.3,10.7c-0.7-0.1-1-0.2-1.6-0.4c0-0.5,0-0.7,0-1.2c-0.4,0.8-1.1,1.1-1.9,0.9
				c-1.7-0.4-2.9-2.7-2.8-5.7c0.1-3,1.4-4.9,3.1-4.7c0.7,0.1,1.3,0.5,1.7,1.4c0-0.4,0-0.7,0-1.1
				C139.8,186.5,140.1,186.5,140.8,186.6z M139,191.6c0-1.8-0.6-3-1.4-3c-0.9-0.1-1.5,0.9-1.6,2.6c0,1.7,0.6,2.9,1.4,3.1
				C138.3,194.4,138.9,193.4,139,191.6z"/>
			<path class="st7" d="M142.2,193.9c0.1-4.6,0.2-6.8,0.3-11.4c0.7,0,1,0,1.7,0c-0.1,4.6-0.2,6.9-0.3,11.5c0,1,0.2,1.5,0.7,1.6
				c0.2,0,0.4,0,0.5-0.1c0,1,0,1.5,0,2.6c-0.3,0.1-0.6,0.2-0.9,0.1C142.9,197.9,142.2,196.4,142.2,193.9z"/>
			<path class="st7" d="M150.4,195.3c0.4,0.8,0.5,1.3,0.9,2.1c-0.6,1.2-1.4,1.7-2.5,1.6c-2.1-0.3-3.3-3.1-3.3-6.4
				c0.1-3.4,1.5-5.8,3.3-5.7c1.7,0.1,3,2.4,2.9,6.2c-1.8,0.5-2.7,0.8-4.4,1.2c0.2,1.2,0.8,1.8,1.5,1.9
				C149.6,196.3,150,196,150.4,195.3z M147.3,192.4c1.2-0.3,1.7-0.5,2.9-0.8c-0.1-1.2-0.6-2.1-1.4-2.1
				C148,189.4,147.3,190.4,147.3,192.4z"/>
			<path class="st7" d="M161.5,191.8c0.7,0,1,0,1.6,0.1c0,3.5-0.1,5.2-0.1,8.6c-0.5,0-0.8-0.1-1.4-0.1c0-0.4,0-0.6,0-1
				c-0.6,0.8-1.3,1.2-2.1,1.1c-2.1-0.2-3.9-3.3-3.8-8.6c0.1-5,1.9-8.5,4.4-8.4c1.4,0,2.5,1,3.2,2.9c-0.5,0.9-0.7,1.4-1.2,2.3
				c-0.5-1.3-1.2-1.9-2-1.9c-1.5,0-2.6,2-2.6,5.3c-0.1,3.4,1,5.3,2.3,5.4c0.6,0,1.1-0.3,1.6-1C161.5,194.5,161.5,193.6,161.5,191.8z
				"/>
			<path class="st7" d="M176.5,190.4c0,4.2,0,6.3,0,10.6c-0.7,0-1.1,0-1.8,0c0-4.2,0-6.3,0-10.4c0-2.5-0.7-3.7-1.5-3.7
				c-1,0-1.7,1.2-1.7,3.9c0,4.1,0,6.1,0,10.2c-0.7,0-1.1,0-1.8-0.1c0-4.2,0-6.2,0.1-10.4c0-2.5-0.6-3.6-1.5-3.7
				c-0.9,0-1.7,1.1-1.7,3.8c0,4,0,6-0.1,10.1c-0.7,0-1.1-0.1-1.8-0.1c0.1-6.8,0.1-10.1,0.2-16.9c0.7,0,1,0,1.7,0c0,0.8,0,1.3,0,2.1
				c0.5-1.5,1.3-2.4,2.3-2.4c1.1,0,1.9,0.9,2.3,2.5c0.5-1.6,1.4-2.5,2.5-2.5C175.4,183.5,176.5,185.8,176.5,190.4z"/>
			<path class="st7" d="M178.3,183.8c1.4,0,2.1,0,3.5,0c2.5,0,4.3,3.3,4.3,8.4s-1.7,8.6-4.2,8.7c-1.4,0-2.1,0.1-3.5,0.1
				C178.3,194.1,178.3,190.6,178.3,183.8z M181.8,197.6c1.5,0,2.5-2.1,2.5-5.4c0-3.3-1-5.3-2.6-5.2c-0.7,0-1,0-1.6,0
				c0,4.3,0,6.4,0,10.6C180.8,197.6,181.1,197.6,181.8,197.6z"/>
			<path class="st7" d="M187.2,192.3c1.3,0,1.9-0.1,3.1-0.1c0,1.2,0,1.8,0,3c-1.3,0.1-1.9,0.1-3.1,0.2
				C187.2,194.1,187.2,193.5,187.2,192.3z"/>
			<path class="st7" d="M191.2,199.1c0.2-1.1,0.3-1.6,0.5-2.7c0.5,0.7,1.4,1.1,2.1,1.1c0.8-0.1,1.1-0.5,1.1-1.2c0-2-3.6,0.3-3.7-4.8
				c0-2.4,1-4.2,2.7-4.2c0.8,0,1.7,0.3,2.3,1c-0.2,1-0.3,1.6-0.5,2.6c-0.6-0.7-1.2-0.9-1.7-0.8c-0.8,0-1.1,0.6-1.1,1.2
				c0,2.2,3.6-0.1,3.7,4.7c0,2.3-1,4.1-2.8,4.3C192.8,200.3,191.7,199.8,191.2,199.1z"/>
			<path class="st7" d="M201.3,198.5c-0.3,0.6-0.9,0.9-1.4,1c-1.4,0.2-2.3-1.2-2.3-4.1c-0.1-4.3-0.1-6.5-0.2-10.8c0.7,0,1,0,1.7,0
				c0,1.2,0,1.8,0.1,3c0.6,0,0.9,0,1.5-0.1c0,1.1,0,1.6,0.1,2.7c-0.6,0-0.9,0.1-1.5,0.1c0,2,0.1,3,0.1,4.9c0,1,0.3,1.6,0.8,1.5
				c0.3,0,0.5-0.2,0.7-0.5C201,197.1,201.1,197.5,201.3,198.5z"/>
			<path class="st7" d="M208,186.8c0.1,4.4,0.2,6.7,0.3,11.1c-0.7,0.1-1,0.2-1.6,0.3c0-0.5,0-0.8,0-1.3c-0.4,1.1-1.1,1.7-1.8,1.8
				c-1.5,0.3-2.6-1.2-2.6-4.9c-0.1-2.7-0.1-4-0.1-6.7c0.7,0,1-0.1,1.7-0.1c0.1,2.4,0.1,3.6,0.1,6.1c0,1.9,0.5,2.8,1.3,2.6
				c0.8-0.1,1.3-1.2,1.3-3.3c0-2.2-0.1-3.4-0.1-5.6C206.9,186.8,207.3,186.8,208,186.8z"/>
			<path class="st7" d="M215.5,182.5c0.1,5.5,0.2,8.3,0.3,13.8c-0.7,0.2-1,0.2-1.6,0.4c0-0.5,0-0.7,0-1.2c-0.4,1-1,1.6-1.8,1.8
				c-1.7,0.4-3-1.6-3.1-5c-0.1-3.4,1.2-5.7,2.8-5.8c0.7,0,1.3,0.3,1.8,1.1c0-2-0.1-3-0.1-5C214.5,182.5,214.8,182.5,215.5,182.5z
				 M214,191.5c0-1.8-0.7-2.8-1.6-2.7c-0.9,0.1-1.5,1.3-1.4,3.1c0,1.9,0.7,2.8,1.6,2.7C213.4,194.5,214.1,193.3,214,191.5z"/>
			<path class="st7" d="M221.7,191.9c0.4,0.5,0.6,0.8,0.9,1.3c-0.5,1.1-1.3,1.8-2.4,2.1c-2,0.6-3.4-1.2-3.5-4.2
				c-0.1-2.9,1.2-5.1,3-5.3c1.7-0.1,3.1,1.4,3.1,4.1c-1.7,0.8-2.6,1.2-4.3,2.1c0.3,0.9,0.8,1.2,1.6,1.1
				C220.9,192.9,221.4,192.5,221.7,191.9z M218.5,190.5c1.1-0.5,1.7-0.8,2.8-1.3c-0.2-0.9-0.7-1.4-1.4-1.4
				C219.1,187.9,218.5,188.9,218.5,190.5z"/>
			<path class="st7" d="M230.1,188c0,1.6,0,2.5,0.1,4.1c-0.7,0.2-1,0.3-1.7,0.6c0-1.6,0-2.4-0.1-4c0-1.2-0.5-1.7-1.2-1.6
				c-0.8,0.1-1.4,0.9-1.4,2.4c0,1.6,0,2.4,0.1,4c-0.7,0.2-1,0.3-1.7,0.5c-0.1-3.4-0.1-5.1-0.2-8.4c0.7-0.1,1-0.1,1.6-0.2
				c0,0.4,0,0.6,0,0.9c0.4-0.7,1.1-1.2,1.9-1.3C229,184.9,230.1,185.8,230.1,188z"/>
			<path class="st7" d="M235.1,190c-0.3,0.4-0.8,0.7-1.3,0.9c-1.4,0.5-2.2,0-2.2-1.7c0-2.4,0-3.6-0.1-6c0.7,0,1-0.1,1.7-0.1
				c0,0.6,0,0.9,0,1.6c0.6-0.1,0.9-0.1,1.4-0.2c0,0.5,0,0.8,0,1.3c-0.6,0.1-0.9,0.2-1.4,0.3c0,1,0,1.6,0,2.6c0,0.5,0.3,0.8,0.7,0.6
				c0.2-0.1,0.5-0.2,0.7-0.4C234.9,189.4,235,189.6,235.1,190z"/>
		</g>
	</g>
</g>
</svg>
