<?xml version="1.0" encoding="utf-8"?>
<!-- Generator: Adobe Illustrator 23.0.1, SVG Export Plug-In . SVG Version: 6.00 Build 0)  -->
<svg version="1.1" xmlns="http://www.w3.org/2000/svg" xmlns:xlink="http://www.w3.org/1999/xlink" x="0px" y="0px"
	 viewBox="0 0 300 212.3" width="300" style="enable-background:new 0 0 300 212.3;" xml:space="preserve">
<style type="text/css">
	.st0{fill:#E6E6E4;}
	.st1{fill:#EDD758;}
	.st2{fill:#AB9083;}
	.st3{fill:#477AB4;}
	.st4{fill:#2B3A40;}
</style>
<g id="Layer_1">
</g>
<g id="Layer_2">
	<path class="st0" d="M91.8,18.4H37.6c-2.4,0-4.4-2-4.4-4.4V3.9c0-2.4,2-4.4,4.4-4.4h54.2c2.4,0,4.4,2,4.4,4.4V14
		C96.2,16.4,94.2,18.4,91.8,18.4z"/>
	<path class="st0" d="M294.5,18.4h-54.2c-2.4,0-4.4-2-4.4-4.4V3.9c0-2.4,2-4.4,4.4-4.4h54.2c2.4,0,4.4,2,4.4,4.4V14
		C298.9,16.4,296.9,18.4,294.5,18.4z"/>
	<path class="st0" d="M226.9,18.4h-54.2c-2.4,0-4.4-2-4.4-4.4V3.9c0-2.4,2-4.4,4.4-4.4h54.2c2.4,0,4.4,2,4.4,4.4V14
		C231.3,16.4,229.3,18.4,226.9,18.4z"/>
	<path class="st0" d="M159.4,18.4h-54.2c-2.4,0-4.4-2-4.4-4.4V3.9c0-2.4,2-4.4,4.4-4.4h54.2c2.4,0,4.4,2,4.4,4.4V14
		C163.7,16.4,161.8,18.4,159.4,18.4z"/>
	<path class="st1" d="M24.8,66.8H4c-2.4,0-4.4-2-4.4-4.4V30.3c0-2.4,2-4.4,4.4-4.4h20.9c2.4,0,4.4,2,4.4,4.4v32.1
		C29.2,64.9,27.2,66.8,24.8,66.8z"/>
	<g>
		<g>
			<path class="st1" d="M159.5,44.8H38.7c-2.4,0-4.3-1.9-4.3-4.3V30.3c0-2.4,1.9-4.3,4.3-4.3h120.8c2.4,0,4.3,1.9,4.3,4.3v10.2
				C163.9,42.9,161.9,44.8,159.5,44.8z"/>
			<path class="st1" d="M295.3,44.8H174.5c-2.4,0-4.3-1.9-4.3-4.3V30.3c0-2.4,1.9-4.3,4.3-4.3h120.8c2.4,0,4.3,1.9,4.3,4.3v10.2
				C299.6,42.9,297.7,44.8,295.3,44.8z"/>
		</g>
		<g>
			<path class="st1" d="M159.5,66.8H38.7c-2.4,0-4.3-1.9-4.3-4.3V52.3c0-2.4,1.9-4.3,4.3-4.3h120.8c2.4,0,4.3,1.9,4.3,4.3v10.2
				C163.9,64.9,161.9,66.8,159.5,66.8z"/>
			<path class="st1" d="M295.3,66.8H174.5c-2.4,0-4.3-1.9-4.3-4.3V52.3c0-2.4,1.9-4.3,4.3-4.3h120.8c2.4,0,4.3,1.9,4.3,4.3v10.2
				C299.6,64.9,297.7,66.8,295.3,66.8z"/>
		</g>
	</g>
	<path class="st2" d="M24.8,115.2H4c-2.4,0-4.4-2-4.4-4.4V78.6c0-2.4,2-4.4,4.4-4.4h20.9c2.4,0,4.4,2,4.4,4.4v32.1
		C29.2,113.2,27.2,115.2,24.8,115.2z"/>
	<g>
		<g>
			<path class="st2" d="M159.5,93.2H38.7c-2.4,0-4.3-1.9-4.3-4.3V78.6c0-2.4,1.9-4.3,4.3-4.3h120.8c2.4,0,4.3,1.9,4.3,4.3v10.2
				C163.9,91.2,161.9,93.2,159.5,93.2z"/>
			<path class="st2" d="M295.3,93.2H174.5c-2.4,0-4.3-1.9-4.3-4.3V78.6c0-2.4,1.9-4.3,4.3-4.3h120.8c2.4,0,4.3,1.9,4.3,4.3v10.2
				C299.6,91.2,297.7,93.2,295.3,93.2z"/>
		</g>
		<g>
			<path class="st2" d="M159.5,115.2H38.7c-2.4,0-4.3-1.9-4.3-4.3v-10.2c0-2.4,1.9-4.3,4.3-4.3h120.8c2.4,0,4.3,1.9,4.3,4.3v10.2
				C163.9,113.2,161.9,115.2,159.5,115.2z"/>
			<path class="st2" d="M295.3,115.2H174.5c-2.4,0-4.3-1.9-4.3-4.3v-10.2c0-2.4,1.9-4.3,4.3-4.3h120.8c2.4,0,4.3,1.9,4.3,4.3v10.2
				C299.6,113.2,297.7,115.2,295.3,115.2z"/>
		</g>
	</g>
	<path class="st2" d="M24.8,163.5H4c-2.4,0-4.4-2-4.4-4.4V127c0-2.4,2-4.4,4.4-4.4h20.9c2.4,0,4.4,2,4.4,4.4v32.1
		C29.2,161.5,27.2,163.5,24.8,163.5z"/>
	<path class="st2" d="M158.7,163.5H38c-2.4,0-4.4-2-4.4-4.4V127c0-2.4,2-4.4,4.4-4.4h120.7c2.4,0,4.4,2,4.4,4.4v32.1
		C163.1,161.5,161.1,163.5,158.7,163.5z"/>
	<path class="st3" d="M24.8,211.8H4c-2.4,0-4.4-2-4.4-4.4v-32.1c0-2.4,2-4.4,4.4-4.4h20.9c2.4,0,4.4,2,4.4,4.4v32.1
		C29.2,209.8,27.2,211.8,24.8,211.8z"/>
	<path class="st3" d="M159.5,189.8H38.7c-2.4,0-4.3-1.9-4.3-4.3v-10.2c0-2.4,1.9-4.3,4.3-4.3h120.8c2.4,0,4.3,1.9,4.3,4.3v10.2
		C163.9,187.9,161.9,189.8,159.5,189.8z"/>
	<path class="st3" d="M159.5,211.8H38.7c-2.4,0-4.3-1.9-4.3-4.3v-10.2c0-2.4,1.9-4.3,4.3-4.3h120.8c2.4,0,4.3,1.9,4.3,4.3v10.2
		C163.9,209.9,161.9,211.8,159.5,211.8z"/>
	<g>
		<path class="st2" d="M293.2,163.4h-50.1c-3.5,0-6.4-2.9-6.4-6.4v-30c0-2.4,2-4.4,4.4-4.4h52.1c3.5,0,6.4,2.9,6.4,6.4v28
			C299.6,160.5,296.7,163.4,293.2,163.4z"/>
		<path class="st2" d="M228.7,163.4h-54.2c-2.4,0-4.4-2-4.4-4.4V127c0-2.4,2-4.4,4.4-4.4h54.2c2.4,0,4.4,2,4.4,4.4v32.1
			C233.1,161.5,231.1,163.4,228.7,163.4z"/>
	</g>
	<g>
		<path class="st3" d="M293.2,211.7h-50.1c-3.5,0-6.4-2.9-6.4-6.4v-30c0-2.4,2-4.4,4.4-4.4h52.1c3.5,0,6.4,2.9,6.4,6.4v28
			C299.6,208.8,296.7,211.7,293.2,211.7z"/>
		<path class="st3" d="M228.7,211.7h-54.2c-2.4,0-4.4-2-4.4-4.4v-32.1c0-2.4,2-4.4,4.4-4.4h54.2c2.4,0,4.4,2,4.4,4.4v32.1
			C233.1,209.7,231.1,211.7,228.7,211.7z"/>
	</g>
	<path class="st4" d="M24.8,18.4H4c-2.4,0-4.4-2-4.4-4.4V3.9c0-2.4,2-4.4,4.4-4.4h20.9c2.4,0,4.4,2,4.4,4.4V14
		C29.2,16.4,27.2,18.4,24.8,18.4z"/>
	<g>
		<path class="st0" d="M10.7,10.6c-0.3,0.4-1.1,0.9-2.2,0.9C7,11.4,6,10.5,6,9c0-1.5,1-2.4,2.6-2.4c0.7,0,1.4,0.2,1.8,0.4l0,1.1
			l-0.1,0c-0.3-0.9-0.9-1.2-1.6-1.2C7.7,6.9,7.1,7.7,7.1,9c0,1.3,0.5,2.1,1.5,2.1c0.5,0,1-0.2,1.1-0.7l0-1c0-0.2-0.1-0.3-0.3-0.3
			l-0.1,0V9.1h1.9v0.1l-0.1,0c-0.2,0-0.3,0.1-0.3,0.3L10.7,10.6z"/>
		<path class="st0" d="M17.7,11.3L17.7,11.3l-2,0.1v-0.1h0.1c0.1,0,0.3-0.1,0.3-0.3c0,0,0,0,0,0h0l-0.3-2.4l-1.2,2.2
			c0,0-0.2,0.4-0.3,0.7h-0.1v0l-1.7-2.9L12.2,11c0,0,0,0,0,0c0,0.1,0.1,0.3,0.3,0.3h0.1v0.1h-1.4v-0.1h0.1c0.2,0,0.5-0.2,0.5-0.4h0
			l0.6-4.3h0.1l2.1,3.4l2-3.4h0.1l0.6,4.3h0c0,0.3,0.2,0.4,0.5,0.4H17.7z"/>
		<path class="st0" d="M22.9,9c0,1.4-1,2.3-2.6,2.3h-2.4l0-0.1H18c0.2,0,0.4-0.2,0.4-0.4V7.1c0-0.2-0.2-0.4-0.4-0.4h-0.1l0-0.1h2.4
			C21.9,6.7,22.9,7.6,22.9,9z M21.8,9c0-1.3-0.6-2-1.5-2h-0.8v4.1h0.8C21.2,11.1,21.8,10.3,21.8,9z"/>
	</g>
	<g>
		<g>
			<path class="st4" d="M8,37L8,37c-0.3,0-0.5,0.2-0.5,0.4v3.9c0,1-0.9,1.7-1.9,1.6v-0.1c0.6-0.3,0.8-0.9,0.8-1.5v-3.9
				c0-0.2-0.2-0.4-0.5-0.4H5.8l0-0.1h0.5L8,37L8,37z"/>
			<path class="st4" d="M13.5,41.5L13.5,41.5l-2.3,0.1v-0.1h0.1c0.2,0,0.4-0.2,0.3-0.4l-0.3-0.7H9.6l-0.3,0.7
				c-0.1,0.3,0.1,0.4,0.3,0.4h0.1v0.1H8v-0.1h0.1c0.2,0,0.4-0.1,0.6-0.4l1.6-3.5c0.1-0.1,0.3-0.7,0.4-0.9h0.1l2.1,4.4
				C13,41.4,13.2,41.5,13.5,41.5L13.5,41.5z M11.1,40.1l-0.7-1.6l-0.7,1.6H11.1z"/>
			<path class="st4" d="M18.5,41.5L18.5,41.5l-2.3,0.1v-0.1h0.1c0.2,0,0.4-0.2,0.3-0.4l-0.3-0.7h-1.6l-0.3,0.7
				c-0.1,0.3,0.1,0.4,0.3,0.4h0.1v0.1H13v-0.1h0.1c0.2,0,0.4-0.1,0.6-0.4l1.6-3.5c0.1-0.1,0.3-0.7,0.4-0.9h0.1l2.1,4.4
				C18,41.4,18.2,41.5,18.5,41.5L18.5,41.5z M16.1,40.1l-0.7-1.6l-0.7,1.6H16.1z"/>
			<path class="st4" d="M23.7,41.5L23.7,41.5L23,41.6c-0.8,0-1.2-0.2-1.6-0.7c-0.2-0.3-0.4-0.8-0.5-1.1c-0.1-0.3-0.3-0.5-0.5-0.5
				v-0.1c0,0,0.1,0,0.2,0c0.3,0,0.7-0.1,0.8-0.8c0-0.1,0-0.2,0-0.3c0-0.8-0.6-0.9-0.8-0.9c-0.2,0-0.4,0-0.4,0v3.8
				c0,0.3,0.2,0.4,0.4,0.4h0.1l0,0.1h-2.1l0-0.1h0.1c0.2,0,0.4-0.2,0.4-0.4v-3.7c0-0.2-0.2-0.4-0.4-0.4h-0.1l0-0.1H21
				c0.9,0,1.7,0.3,1.7,1.3c0,0.5-0.3,1.1-1.1,1.3c0.3,0.1,0.6,0.4,0.7,0.7c0.1,0.1,0.3,0.5,0.6,0.9C23.2,41.4,23.4,41.5,23.7,41.5z"
				/>
		</g>
		<g>
			<path class="st4" d="M17.7,57.4h-6l0-0.2l0.4,0c0.6,0,1.1-0.5,1.1-1.1V45.8c0-0.9-0.4-1.2-1.2-1.2h-0.5v-0.2
				c1.1-0.1,3.3-0.4,4.5-1.3h0.2v13c0,0.6,0.5,1.1,1.1,1.1l0.4,0L17.7,57.4z"/>
		</g>
	</g>
	<g>
		<g>
			<path class="st0" d="M8,178.9L8,178.9c-0.3,0-0.5,0.2-0.5,0.4v3.9c0,1-0.9,1.7-1.9,1.6v-0.1c0.6-0.3,0.8-0.9,0.8-1.5v-3.9
				c0-0.2-0.2-0.4-0.5-0.4l-0.1,0l0-0.1h0.5L8,178.9L8,178.9z"/>
			<path class="st0" d="M13.5,183.4L13.5,183.4l-2.3,0.1v-0.1h0.1c0.2,0,0.4-0.2,0.3-0.4l-0.3-0.7H9.6L9.3,183
				c-0.1,0.3,0.1,0.4,0.3,0.4h0.1v0.1H8v-0.1h0.1c0.2,0,0.4-0.1,0.6-0.4l1.6-3.5c0.1-0.1,0.3-0.7,0.4-0.9h0.1l2.1,4.4
				C13,183.3,13.2,183.4,13.5,183.4L13.5,183.4z M11.1,182l-0.7-1.6L9.7,182H11.1z"/>
			<path class="st0" d="M18.5,183.4L18.5,183.4l-2.3,0.1v-0.1h0.1c0.2,0,0.4-0.2,0.3-0.4l-0.3-0.7h-1.6l-0.3,0.7
				c-0.1,0.3,0.1,0.4,0.3,0.4h0.1v0.1H13v-0.1h0.1c0.2,0,0.4-0.1,0.6-0.4l1.6-3.5c0.1-0.1,0.3-0.7,0.4-0.9h0.1l2.1,4.4
				C18,183.3,18.2,183.4,18.5,183.4L18.5,183.4z M16.1,182l-0.7-1.6l-0.7,1.6H16.1z"/>
			<path class="st0" d="M23.7,183.4L23.7,183.4l-0.7,0.1c-0.8,0-1.2-0.2-1.6-0.7c-0.2-0.3-0.4-0.8-0.5-1.1c-0.1-0.3-0.3-0.5-0.5-0.5
				v-0.1c0,0,0.1,0,0.2,0c0.3,0,0.7-0.1,0.8-0.8c0-0.1,0-0.2,0-0.3c0-0.8-0.6-0.9-0.8-0.9c-0.2,0-0.4,0-0.4,0v3.8
				c0,0.3,0.2,0.4,0.4,0.4h0.1l0,0.1h-2.1l0-0.1h0.1c0.2,0,0.4-0.2,0.4-0.4v-3.7c0-0.2-0.2-0.4-0.4-0.4h-0.1l0-0.1H21
				c0.9,0,1.7,0.3,1.7,1.3c0,0.5-0.3,1.1-1.1,1.3c0.3,0.1,0.6,0.4,0.7,0.7c0.1,0.1,0.3,0.5,0.6,0.9
				C23.2,183.3,23.4,183.4,23.7,183.4z"/>
		</g>
		<g>
			<path class="st0" d="M17.9,195v3c0,0.6,0.5,1.1,1.1,1.1h0.2l0,0.2h-5.6l0-0.2h0.2c0.6,0,1.1-0.4,1.1-1v-3H8.6v-0.2l9.1-9.8h0.2
				v8.3h0.9c0.7,0,1-0.2,1.2-0.6h0.2l-0.5,2.3H17.9z M14.9,193.3v-3.9l-3.7,3.9H14.9z"/>
		</g>
	</g>
	<g>
		<g>
			<path class="st4" d="M8,84.3L8,84.3c-0.3,0-0.5,0.2-0.5,0.4v3.9c0,1-0.9,1.7-1.9,1.6v-0.1c0.6-0.3,0.8-0.9,0.8-1.5v-3.9
				c0-0.2-0.2-0.4-0.5-0.4H5.8l0-0.1h0.5L8,84.3L8,84.3z"/>
			<path class="st4" d="M13.5,88.8L13.5,88.8l-2.3,0.1v-0.1h0.1c0.2,0,0.4-0.2,0.3-0.4l-0.3-0.7H9.6l-0.3,0.7
				c-0.1,0.3,0.1,0.4,0.3,0.4h0.1v0.1H8v-0.1h0.1c0.2,0,0.4-0.1,0.6-0.4l1.6-3.5c0.1-0.1,0.3-0.7,0.4-0.9h0.1l2.1,4.4
				C13,88.7,13.2,88.8,13.5,88.8L13.5,88.8z M11.1,87.4l-0.7-1.6l-0.7,1.6H11.1z"/>
			<path class="st4" d="M18.5,88.8L18.5,88.8l-2.3,0.1v-0.1h0.1c0.2,0,0.4-0.2,0.3-0.4l-0.3-0.7h-1.6l-0.3,0.7
				c-0.1,0.3,0.1,0.4,0.3,0.4h0.1v0.1H13v-0.1h0.1c0.2,0,0.4-0.1,0.6-0.4l1.6-3.5c0.1-0.1,0.3-0.7,0.4-0.9h0.1l2.1,4.4
				C18,88.7,18.2,88.8,18.5,88.8L18.5,88.8z M16.1,87.4l-0.7-1.6l-0.7,1.6H16.1z"/>
			<path class="st4" d="M23.7,88.8L23.7,88.8L23,88.9c-0.8,0-1.2-0.2-1.6-0.7c-0.2-0.3-0.4-0.8-0.5-1.1c-0.1-0.3-0.3-0.5-0.5-0.5
				v-0.1c0,0,0.1,0,0.2,0c0.3,0,0.7-0.1,0.8-0.8c0-0.1,0-0.2,0-0.3c0-0.8-0.6-0.9-0.8-0.9c-0.2,0-0.4,0-0.4,0v3.8
				c0,0.3,0.2,0.4,0.4,0.4h0.1l0,0.1h-2.1l0-0.1h0.1c0.2,0,0.4-0.2,0.4-0.4v-3.7c0-0.2-0.2-0.4-0.4-0.4h-0.1l0-0.1H21
				c0.9,0,1.7,0.3,1.7,1.3c0,0.5-0.3,1.1-1.1,1.3c0.3,0.1,0.6,0.4,0.7,0.7c0.1,0.1,0.3,0.5,0.6,0.9C23.2,88.7,23.4,88.8,23.7,88.8z"
				/>
		</g>
		<g>
			<path class="st4" d="M9.4,91.9c1-0.9,2.9-1.5,4.6-1.5c3,0,5.2,1.5,5.2,4c0,3.3-4,6.1-6,7.6h4.1c1.2,0,1.9-0.6,2.6-1.9h0.2
				l-1.2,4.5H9.4v-0.2c2.6-3,6.6-7,6.6-10.2c0-1.9-1-3.1-2.7-3c-1.7,0.1-2.8,1.4-2.7,3.7h-0.2L9.4,91.9z"/>
		</g>
	</g>
	<g>
		<g>
			<path class="st4" d="M8,131.6L8,131.6c-0.3,0-0.5,0.2-0.5,0.4v3.9c0,1-0.9,1.7-1.9,1.6v-0.1c0.6-0.3,0.8-0.9,0.8-1.5V132
				c0-0.2-0.2-0.4-0.5-0.4H5.8l0-0.1h0.5L8,131.6L8,131.6z"/>
			<path class="st4" d="M13.5,136.1L13.5,136.1l-2.3,0.1v-0.1h0.1c0.2,0,0.4-0.2,0.3-0.4l-0.3-0.7H9.6l-0.3,0.7
				c-0.1,0.3,0.1,0.4,0.3,0.4h0.1v0.1H8v-0.1h0.1c0.2,0,0.4-0.1,0.6-0.4l1.6-3.5c0.1-0.1,0.3-0.7,0.4-0.9h0.1l2.1,4.4
				C13,136,13.2,136.1,13.5,136.1L13.5,136.1z M11.1,134.7l-0.7-1.6l-0.7,1.6H11.1z"/>
			<path class="st4" d="M18.5,136.1L18.5,136.1l-2.3,0.1v-0.1h0.1c0.2,0,0.4-0.2,0.3-0.4l-0.3-0.7h-1.6l-0.3,0.7
				c-0.1,0.3,0.1,0.4,0.3,0.4h0.1v0.1H13v-0.1h0.1c0.2,0,0.4-0.1,0.6-0.4l1.6-3.5c0.1-0.1,0.3-0.7,0.4-0.9h0.1l2.1,4.4
				C18,136,18.2,136.1,18.5,136.1L18.5,136.1z M16.1,134.7l-0.7-1.6l-0.7,1.6H16.1z"/>
			<path class="st4" d="M23.7,136.1L23.7,136.1l-0.7,0.1c-0.8,0-1.2-0.2-1.6-0.7c-0.2-0.3-0.4-0.8-0.5-1.1c-0.1-0.3-0.3-0.5-0.5-0.5
				v-0.1c0,0,0.1,0,0.2,0c0.3,0,0.7-0.1,0.8-0.8c0-0.1,0-0.2,0-0.3c0-0.8-0.6-0.9-0.8-0.9c-0.2,0-0.4,0-0.4,0v3.8
				c0,0.3,0.2,0.4,0.4,0.4h0.1l0,0.1h-2.1l0-0.1h0.1c0.2,0,0.4-0.2,0.4-0.4V132c0-0.2-0.2-0.4-0.4-0.4h-0.1l0-0.1H21
				c0.9,0,1.7,0.3,1.7,1.3c0,0.5-0.3,1.1-1.1,1.3c0.3,0.1,0.6,0.4,0.7,0.7c0.1,0.1,0.3,0.5,0.6,0.9C23.2,136,23.4,136.1,23.7,136.1z
				"/>
		</g>
		<g>
			<path class="st4" d="M19.2,147.9c0,4.1-5,6.2-9.3,4.8l0-0.2c3.2,0.1,6-1.9,6-4.8c0-2.4-1.9-3.3-3.9-3.3l0-0.2
				c1.8,0,3.6-1.4,3.4-3.4c-0.1-1.4-1.1-2.2-2.4-2.1c-1.6,0.1-2.4,1.3-2.3,3.4h-0.2l-0.8-2.8c0.9-0.8,2.3-1.4,4.2-1.4
				c2.9,0,4.6,1.3,4.6,3.3c0,1.8-1.4,3-2.7,3.1C17.5,144.3,19.2,145.4,19.2,147.9z"/>
		</g>
	</g>
	<g>
		<g>
			<path d="M46.7,8.8L46.7,8.8c0-0.1,0.9,0,1.2-1c0-0.1,0.1-0.3,0-0.5c0-0.7-0.4-1.1-1-1.1h-0.5v4.5c0,0.3,0.2,0.5,0.5,0.5h0.1
				l0,0.1h-2.4l0-0.1c0,0,0.1,0,0.1,0c0.3,0,0.5-0.2,0.5-0.5h0V6.4c0-0.3-0.2-0.4-0.5-0.4c0,0-0.1,0-0.1,0l0-0.1h0.6v0h2
				c1.3,0,1.9,0.6,1.9,1.5C49.3,8.7,47.8,9.5,46.7,8.8z"/>
			<path d="M54.1,9.8l-0.4,1.6h-4l0-0.1h0.1c0.3,0,0.5-0.2,0.5-0.5V6.4c0-0.3-0.2-0.5-0.5-0.5l-0.1,0l0-0.1h0.6v0h2.4
				c0.3,0,0.8-0.1,0.9-0.1V6v0.2v0.9l-0.1,0l0-0.1c0-0.5-0.3-0.8-0.8-0.8h-1.3v2.3h1v0c0.4,0,0.7-0.3,0.7-0.7V7.8l0.1,0v1.8l-0.1,0
				V9.5c0-0.4-0.3-0.7-0.6-0.7h-1V11h1C53.3,11,53.8,10.5,54.1,9.8L54.1,9.8z"/>
			<path d="M60.4,11.3L60.4,11.3l-0.8,0.1c-0.8,0-1.4-0.2-1.8-0.8c-0.2-0.3-0.6-1.1-0.6-1.3c-0.1-0.3-0.3-0.5-0.5-0.5V8.6
				c0,0,0.1,0,0.2,0c0.4,0,0.8-0.2,1-0.9c0-0.1,0-0.2,0-0.4c0-0.7-0.4-1.1-0.9-1.1c-0.2,0-0.5,0-0.6,0v4.5c0,0.3,0.2,0.5,0.5,0.5H57
				l0,0.1h-2.4l0-0.1c0,0,0.1,0,0.1,0c0.3,0,0.5-0.2,0.5-0.5V6.5h0C55.3,6.2,55,6,54.8,6c0,0-0.1,0-0.1,0l0-0.1h0.6v0h2
				c0.9,0,1.8,0.4,1.8,1.5c0,0.7-0.4,1.4-1.3,1.5c0.3,0.1,0.6,0.4,0.8,0.7c0,0,0.5,0.8,0.8,1.1C59.8,11.1,60,11.3,60.4,11.3z"/>
			<path d="M62.7,11.3h-2.4l0-0.1h0.1c0.3,0,0.5-0.2,0.5-0.5V6.5c0-0.3-0.2-0.5-0.5-0.5l-0.1,0l0-0.1H61v0h1.1v0h0.6l0,0.1l-0.1,0
				c-0.3,0-0.5,0.2-0.5,0.5v4.3C62.1,11,62.3,11.3,62.7,11.3L62.7,11.3L62.7,11.3z"/>
			<path d="M69.4,8.6c0,1.7-1.2,2.8-3.1,2.8c-1.9,0-3.1-1.1-3.1-2.8s1.2-2.8,3.1-2.8C68.2,5.8,69.4,6.9,69.4,8.6z M68.1,8.6
				c0-1.5-0.7-2.5-1.8-2.5c-1.1,0-1.8,1-1.8,2.5s0.7,2.5,1.8,2.5C67.4,11.1,68.1,10.2,68.1,8.6z"/>
			<path d="M75.7,8.6c0,1.7-1.1,2.7-3,2.7h-2.8l0-0.1H70c0.3,0,0.5-0.2,0.5-0.5V6.4C70.4,6.2,70.2,6,70,6l-0.1,0l0-0.1h2.8
				C74.5,5.9,75.7,6.9,75.7,8.6z M74.4,8.6c0-1.5-0.7-2.4-1.8-2.4h-1V11h1C73.7,11,74.4,10.1,74.4,8.6z"/>
			<path d="M80.5,9.8l-0.4,1.6h-4l0-0.1h0.1c0.3,0,0.5-0.2,0.5-0.5V6.4c0-0.3-0.2-0.5-0.5-0.5l-0.1,0l0-0.1h0.6v0h2.4
				c0.3,0,0.8-0.1,0.9-0.1V6v0.2v0.9l-0.1,0L80,7c0-0.5-0.3-0.8-0.8-0.8h-1.3v2.3h1v0c0.4,0,0.7-0.3,0.7-0.7V7.8l0.1,0v1.8l-0.1,0
				V9.5c0-0.4-0.3-0.7-0.6-0.7h-1V11h1C79.7,11,80.2,10.5,80.5,9.8L80.5,9.8z"/>
			<path d="M85.4,11.3h-2.3l0-0.1h0.2c0.2,0,0.4-0.2,0.4-0.4v-4c0-0.3-0.2-0.5-0.5-0.5H83V6.3c0.4,0,1.3-0.2,1.7-0.5h0.1v5.1
				c0,0.2,0.2,0.4,0.4,0.4L85.4,11.3L85.4,11.3z"/>
		</g>
		<g>
			<path d="M112.8,8.8L112.8,8.8c0-0.1,0.9,0,1.2-1c0-0.1,0.1-0.3,0-0.5c0-0.7-0.4-1.1-1-1.1h-0.5v4.5c0,0.3,0.2,0.5,0.5,0.5h0.1
				l0,0.1h-2.4l0-0.1c0,0,0.1,0,0.1,0c0.3,0,0.5-0.2,0.5-0.5h0V6.4c0-0.3-0.2-0.4-0.5-0.4c0,0-0.1,0-0.1,0l0-0.1h0.6v0h2
				c1.3,0,1.9,0.6,1.9,1.5C115.3,8.7,113.9,9.5,112.8,8.8z"/>
			<path d="M120.2,9.8l-0.4,1.6h-4l0-0.1h0.1c0.3,0,0.5-0.2,0.5-0.5V6.4c0-0.3-0.2-0.5-0.5-0.5l-0.1,0l0-0.1h0.6v0h2.4
				c0.3,0,0.8-0.1,0.9-0.1V6v0.2v0.9l-0.1,0l0-0.1c0-0.5-0.3-0.8-0.8-0.8h-1.3v2.3h1v0c0.4,0,0.7-0.3,0.7-0.7V7.8l0.1,0v1.8l-0.1,0
				V9.5c0-0.4-0.3-0.7-0.6-0.7h-1V11h1C119.3,11,119.8,10.5,120.2,9.8L120.2,9.8z"/>
			<path d="M126.5,11.3L126.5,11.3l-0.8,0.1c-0.8,0-1.4-0.2-1.8-0.8c-0.2-0.3-0.6-1.1-0.6-1.3c-0.1-0.3-0.3-0.5-0.5-0.5V8.6
				c0,0,0.1,0,0.2,0c0.4,0,0.8-0.2,1-0.9c0-0.1,0-0.2,0-0.4c0-0.7-0.4-1.1-0.9-1.1c-0.2,0-0.5,0-0.6,0v4.5c0,0.3,0.2,0.5,0.5,0.5
				h0.1l0,0.1h-2.4l0-0.1c0,0,0.1,0,0.1,0c0.3,0,0.5-0.2,0.5-0.5V6.5h0c0-0.3-0.2-0.5-0.5-0.5c0,0-0.1,0-0.1,0l0-0.1h0.6v0h2
				c0.9,0,1.8,0.4,1.8,1.5c0,0.7-0.4,1.4-1.3,1.5c0.3,0.1,0.6,0.4,0.8,0.7c0,0,0.5,0.8,0.8,1.1C125.8,11.1,126.1,11.3,126.5,11.3z"
				/>
			<path d="M128.7,11.3h-2.4l0-0.1h0.1c0.3,0,0.5-0.2,0.5-0.5V6.5c0-0.3-0.2-0.5-0.5-0.5l-0.1,0l0-0.1h0.6v0h1.1v0h0.6l0,0.1l-0.1,0
				c-0.3,0-0.5,0.2-0.5,0.5v4.3C128.1,11,128.4,11.3,128.7,11.3L128.7,11.3L128.7,11.3z"/>
			<path d="M135.4,8.6c0,1.7-1.2,2.8-3.1,2.8c-1.9,0-3.1-1.1-3.1-2.8s1.2-2.8,3.1-2.8C134.2,5.8,135.4,6.9,135.4,8.6z M134.1,8.6
				c0-1.5-0.7-2.5-1.8-2.5c-1.1,0-1.8,1-1.8,2.5s0.7,2.5,1.8,2.5C133.4,11.1,134.1,10.2,134.1,8.6z"/>
			<path d="M141.7,8.6c0,1.7-1.1,2.7-3,2.7h-2.8l0-0.1h0.1c0.3,0,0.5-0.2,0.5-0.5V6.4c0-0.2-0.2-0.4-0.5-0.4l-0.1,0l0-0.1h2.8
				C140.5,5.9,141.7,6.9,141.7,8.6z M140.4,8.6c0-1.5-0.7-2.4-1.8-2.4h-1V11h1C139.7,11,140.4,10.1,140.4,8.6z"/>
			<path d="M146.5,9.8l-0.4,1.6h-4l0-0.1h0.1c0.3,0,0.5-0.2,0.5-0.5V6.4c0-0.3-0.2-0.5-0.5-0.5l-0.1,0l0-0.1h0.6v0h2.4
				c0.3,0,0.8-0.1,0.9-0.1V6v0.2v0.9l-0.1,0l0-0.1c0-0.5-0.3-0.8-0.8-0.8h-1.3v2.3h1v0c0.4,0,0.7-0.3,0.7-0.7V7.8l0.1,0v1.8l-0.1,0
				V9.5c0-0.4-0.3-0.7-0.6-0.7h-1V11h1C145.7,11,146.2,10.5,146.5,9.8L146.5,9.8z"/>
			<path d="M149.1,6.4c0.4-0.4,1.1-0.6,1.8-0.6c1.2,0,2,0.6,2,1.6c0,1.3-1.6,2.4-2.3,3h1.6c0.5,0,0.7-0.2,1-0.8h0.1l-0.5,1.8H149
				v-0.1c1-1.2,2.6-2.7,2.6-4c0-0.7-0.4-1.2-1-1.2c-0.7,0-1.1,0.5-1.1,1.4h-0.1L149.1,6.4z"/>
		</g>
		<g>
			<path d="M179.7,8.8L179.7,8.8c0-0.1,0.9,0,1.2-1c0-0.1,0.1-0.3,0-0.5c0-0.7-0.4-1.1-1-1.1h-0.5v4.5c0,0.3,0.2,0.5,0.5,0.5h0.1
				l0,0.1h-2.4l0-0.1c0,0,0.1,0,0.1,0c0.3,0,0.5-0.2,0.5-0.5h0V6.4c0-0.3-0.2-0.4-0.5-0.4c0,0-0.1,0-0.1,0l0-0.1h0.6v0h2
				c1.3,0,1.9,0.6,1.9,1.5C182.2,8.7,180.8,9.5,179.7,8.8z"/>
			<path d="M187.1,9.8l-0.4,1.6h-4l0-0.1h0.1c0.3,0,0.5-0.2,0.5-0.5V6.4c0-0.3-0.2-0.5-0.5-0.5l-0.1,0l0-0.1h0.6v0h2.4
				c0.3,0,0.8-0.1,0.9-0.1V6v0.2v0.9l-0.1,0l0-0.1c0-0.5-0.3-0.8-0.8-0.8h-1.3v2.3h1v0c0.4,0,0.7-0.3,0.7-0.7V7.8l0.1,0v1.8l-0.1,0
				V9.5c0-0.4-0.3-0.7-0.6-0.7h-1V11h1C186.3,11,186.8,10.5,187.1,9.8L187.1,9.8z"/>
			<path d="M193.4,11.3L193.4,11.3l-0.8,0.1c-0.8,0-1.4-0.2-1.8-0.8c-0.2-0.3-0.6-1.1-0.6-1.3c-0.1-0.3-0.3-0.5-0.5-0.5V8.6
				c0,0,0.1,0,0.2,0c0.4,0,0.8-0.2,1-0.9c0-0.1,0-0.2,0-0.4c0-0.7-0.4-1.1-0.9-1.1c-0.2,0-0.5,0-0.6,0v4.5c0,0.3,0.2,0.5,0.5,0.5
				h0.1l0,0.1h-2.4l0-0.1c0,0,0.1,0,0.1,0c0.3,0,0.5-0.2,0.5-0.5V6.5h0c0-0.3-0.2-0.5-0.5-0.5c0,0-0.1,0-0.1,0l0-0.1h0.6v0h2
				c0.9,0,1.8,0.4,1.8,1.5c0,0.7-0.4,1.4-1.3,1.5c0.3,0.1,0.6,0.4,0.8,0.7c0,0,0.5,0.8,0.8,1.1C192.8,11.1,193,11.3,193.4,11.3z"/>
			<path d="M195.7,11.3h-2.4l0-0.1h0.1c0.3,0,0.5-0.2,0.5-0.5V6.5c0-0.3-0.2-0.5-0.5-0.5l-0.1,0l0-0.1h0.6v0h1.1v0h0.6l0,0.1l-0.1,0
				c-0.3,0-0.5,0.2-0.5,0.5v4.3C195.1,11,195.3,11.3,195.7,11.3L195.7,11.3L195.7,11.3z"/>
			<path d="M202.3,8.6c0,1.7-1.2,2.8-3.1,2.8c-1.9,0-3.1-1.1-3.1-2.8s1.2-2.8,3.1-2.8C201.1,5.8,202.3,6.9,202.3,8.6z M201.1,8.6
				c0-1.5-0.7-2.5-1.8-2.5c-1.1,0-1.8,1-1.8,2.5s0.7,2.5,1.8,2.5C200.4,11.1,201.1,10.2,201.1,8.6z"/>
			<path d="M208.6,8.6c0,1.7-1.1,2.7-3,2.7h-2.8l0-0.1h0.1c0.3,0,0.5-0.2,0.5-0.5V6.4c0-0.2-0.2-0.4-0.5-0.4l-0.1,0l0-0.1h2.8
				C207.5,5.9,208.6,6.9,208.6,8.6z M207.4,8.6c0-1.5-0.7-2.4-1.8-2.4h-1V11h1C206.7,11,207.4,10.1,207.4,8.6z"/>
			<path d="M213.5,9.8l-0.4,1.6h-4l0-0.1h0.1c0.3,0,0.5-0.2,0.5-0.5V6.4c0-0.3-0.2-0.5-0.5-0.5l-0.1,0l0-0.1h0.6v0h2.4
				c0.3,0,0.8-0.1,0.9-0.1V6v0.2v0.9l-0.1,0l0-0.1c0-0.5-0.3-0.8-0.8-0.8h-1.3v2.3h1v0c0.4,0,0.7-0.3,0.7-0.7V7.8l0.1,0v1.8l-0.1,0
				V9.5c0-0.4-0.3-0.7-0.6-0.7h-1V11h1C212.7,11,213.2,10.5,213.5,9.8L213.5,9.8z"/>
			<path d="M219.6,9.7c0,1.6-2,2.4-3.6,1.9l0-0.1c1.3,0,2.3-0.7,2.3-1.9c0-0.9-0.7-1.3-1.5-1.3l0-0.1c0.7,0,1.4-0.5,1.3-1.3
				c0-0.5-0.4-0.8-1-0.8c-0.6,0-0.9,0.5-0.9,1.3h-0.1L216,6.4c0.3-0.3,0.9-0.5,1.6-0.6c1.1,0,1.8,0.5,1.8,1.3c0,0.7-0.5,1.2-1.1,1.2
				C218.9,8.4,219.6,8.8,219.6,9.7z"/>
		</g>
		<g>
			<path d="M246.7,8.8L246.7,8.8c0-0.1,0.9,0,1.2-1c0-0.1,0.1-0.3,0-0.5c0-0.7-0.4-1.1-1-1.1h-0.5v4.5c0,0.3,0.2,0.5,0.5,0.5h0.1
				l0,0.1h-2.4l0-0.1c0,0,0.1,0,0.1,0c0.3,0,0.5-0.2,0.5-0.5h0V6.4c0-0.3-0.2-0.4-0.5-0.4c0,0-0.1,0-0.1,0l0-0.1h0.6v0h2
				c1.3,0,1.9,0.6,1.9,1.5C249.2,8.7,247.8,9.5,246.7,8.8z"/>
			<path d="M254.1,9.8l-0.4,1.6h-4l0-0.1h0.1c0.3,0,0.5-0.2,0.5-0.5V6.4c0-0.3-0.2-0.5-0.5-0.5l-0.1,0l0-0.1h0.6v0h2.4
				c0.3,0,0.8-0.1,0.9-0.1V6v0.2v0.9l-0.1,0V7c0-0.5-0.3-0.8-0.8-0.8h-1.3v2.3h1v0c0.4,0,0.7-0.3,0.7-0.7V7.8l0.1,0v1.8l-0.1,0V9.5
				c0-0.4-0.3-0.7-0.6-0.7h-1V11h1C253.2,11,253.7,10.5,254.1,9.8L254.1,9.8z"/>
			<path d="M260.4,11.3L260.4,11.3l-0.8,0.1c-0.8,0-1.4-0.2-1.8-0.8c-0.2-0.3-0.6-1.1-0.6-1.3c-0.1-0.3-0.3-0.5-0.5-0.5V8.6
				c0,0,0.1,0,0.2,0c0.4,0,0.8-0.2,1-0.9c0-0.1,0-0.2,0-0.4c0-0.7-0.4-1.1-0.9-1.1c-0.2,0-0.5,0-0.6,0v4.5c0,0.3,0.2,0.5,0.5,0.5
				h0.1l0,0.1h-2.4l0-0.1c0,0,0.1,0,0.1,0c0.3,0,0.5-0.2,0.5-0.5V6.5c0-0.3-0.2-0.5-0.5-0.5c0,0-0.1,0-0.1,0l0-0.1h0.6v0h2
				c0.9,0,1.8,0.4,1.8,1.5c0,0.7-0.4,1.4-1.3,1.5c0.3,0.1,0.6,0.4,0.8,0.7c0,0,0.5,0.8,0.8,1.1C259.7,11.1,260,11.3,260.4,11.3z"/>
			<path d="M262.6,11.3h-2.4l0-0.1h0.1c0.3,0,0.5-0.2,0.5-0.5V6.5c0-0.3-0.2-0.5-0.5-0.5l-0.1,0l0-0.1h0.6v0h1.1v0h0.6l0,0.1l-0.1,0
				c-0.3,0-0.5,0.2-0.5,0.5v4.3c0,0.3,0.2,0.5,0.5,0.5L262.6,11.3L262.6,11.3z"/>
			<path d="M269.3,8.6c0,1.7-1.2,2.8-3.1,2.8s-3.1-1.1-3.1-2.8s1.2-2.8,3.1-2.8S269.3,6.9,269.3,8.6z M268,8.6
				c0-1.5-0.7-2.5-1.8-2.5c-1.1,0-1.8,1-1.8,2.5s0.7,2.5,1.8,2.5C267.3,11.1,268,10.2,268,8.6z"/>
			<path d="M275.6,8.6c0,1.7-1.1,2.7-3,2.7h-2.8l0-0.1h0.1c0.3,0,0.5-0.2,0.5-0.5V6.4c0-0.2-0.2-0.4-0.5-0.4l-0.1,0l0-0.1h2.8
				C274.5,5.9,275.6,6.9,275.6,8.6z M274.3,8.6c0-1.5-0.7-2.4-1.8-2.4h-1V11h1C273.6,11,274.3,10.1,274.3,8.6z"/>
			<path d="M280.5,9.8l-0.4,1.6h-4l0-0.1h0.1c0.3,0,0.5-0.2,0.5-0.5V6.4c0-0.3-0.2-0.5-0.5-0.5l-0.1,0l0-0.1h0.6v0h2.4
				c0.3,0,0.8-0.1,0.9-0.1V6v0.2v0.9l-0.1,0V7c0-0.5-0.3-0.8-0.8-0.8h-1.3v2.3h1v0c0.4,0,0.7-0.3,0.7-0.7V7.8l0.1,0v1.8l-0.1,0V9.5
				c0-0.4-0.3-0.7-0.6-0.7h-1V11h1C279.6,11,280.1,10.5,280.5,9.8L280.5,9.8z"/>
			<path d="M286.3,9.7v1.2c0,0.2,0.2,0.4,0.4,0.4h0.1l0,0.1h-2.2l0-0.1h0.1c0.2,0,0.4-0.2,0.4-0.4V9.7h-2.5V9.6l3.6-3.8h0.1V9h0.3
				c0.3,0,0.4-0.1,0.5-0.2h0.1L287,9.7H286.3z M285.1,9V7.5L283.7,9H285.1z"/>
		</g>
	</g>
	<g>
		<path d="M66.8,34.8V35h1.9v0.9h-1.9v1.7h-1.1v-2.8c0-1.2,0.8-1.9,2.1-1.9c0.5,0,1,0.1,1.4,0.3L68.9,34c-0.3-0.2-0.6-0.3-1-0.3
			C67.2,33.8,66.8,34.1,66.8,34.8z"/>
		<path d="M73.3,34v3c0,1.3-0.7,1.9-1.9,1.9c-0.7,0-1.3-0.2-1.7-0.5l0.4-0.7c0.3,0.2,0.8,0.4,1.2,0.4c0.7,0,1-0.3,1-1V37
			c-0.3,0.3-0.6,0.4-1.1,0.4c-0.9,0-1.5-0.5-1.5-1.6V34h1v1.6c0,0.6,0.3,0.9,0.7,0.9c0.5,0,0.8-0.3,0.8-1V34H73.3z"/>
		<path d="M73.9,37.3l0.3-0.7c0.3,0.2,0.8,0.3,1.2,0.3c0.5,0,0.7-0.1,0.7-0.3c0-0.6-2.2,0-2.2-1.4c0-0.7,0.6-1.2,1.7-1.2
			c0.5,0,1,0.1,1.4,0.3L76.7,35c-0.4-0.2-0.7-0.3-1-0.3c-0.5,0-0.7,0.1-0.7,0.3c0,0.6,2.2,0,2.2,1.4c0,0.7-0.6,1.1-1.7,1.1
			C74.8,37.7,74.2,37.5,73.9,37.3z"/>
		<path d="M77.6,32.9c0-0.3,0.3-0.6,0.6-0.6c0.4,0,0.6,0.2,0.6,0.6c0,0.3-0.3,0.6-0.6,0.6C77.9,33.5,77.6,33.3,77.6,32.9z M77.8,34
			h1v3.6h-1V34z"/>
		<path d="M79.4,37.3l0.3-0.7c0.3,0.2,0.8,0.3,1.2,0.3c0.5,0,0.7-0.1,0.7-0.3c0-0.6-2.2,0-2.2-1.4c0-0.7,0.6-1.2,1.7-1.2
			c0.5,0,1,0.1,1.4,0.3L82.2,35c-0.4-0.2-0.7-0.3-1-0.3c-0.5,0-0.7,0.1-0.7,0.3c0,0.6,2.2,0,2.2,1.4c0,0.7-0.6,1.1-1.7,1.1
			C80.4,37.7,79.8,37.5,79.4,37.3z"/>
		<path d="M83,35.8c0-1.1,0.8-1.8,2-1.8c0.8,0,1.3,0.3,1.6,0.9l-0.8,0.4c-0.2-0.3-0.5-0.5-0.8-0.5c-0.5,0-0.9,0.4-0.9,1s0.4,1,0.9,1
			c0.3,0,0.6-0.1,0.8-0.5l0.8,0.4c-0.3,0.6-0.9,0.9-1.6,0.9C83.9,37.7,83,36.9,83,35.8z"/>
		<path d="M90.9,35.6v2h-1v-1.9c0-0.6-0.3-0.8-0.7-0.8c-0.5,0-0.9,0.3-0.9,1v1.8h-1v-4.9h1v1.7c0.3-0.3,0.7-0.4,1.1-0.4
			C90.2,34,90.9,34.5,90.9,35.6z"/>
		<path d="M94.6,36.5l0.6,0.6c-0.3,0.4-0.8,0.6-1.5,0.6c-1.2,0-2-0.8-2-1.8c0-1.1,0.8-1.8,1.9-1.8c1,0,1.8,0.7,1.8,1.8l-2.6,0.5
			c0.2,0.4,0.5,0.5,1,0.5C94,36.8,94.3,36.7,94.6,36.5z M92.6,35.7l1.7-0.3c-0.1-0.4-0.4-0.6-0.8-0.6C93,34.8,92.6,35.1,92.6,35.7z"
			/>
		<path d="M101.2,35.2h1v2.4h-0.8v-0.3c-0.3,0.2-0.8,0.4-1.3,0.4c-1.3,0-2.4-0.8-2.4-2.4c0-1.4,1.1-2.4,2.6-2.4
			c0.8,0,1.5,0.3,1.9,0.8l-0.7,0.6c-0.3-0.4-0.7-0.5-1.2-0.5c-0.9,0-1.5,0.6-1.5,1.5c0,1,0.7,1.5,1.4,1.5c0.4,0,0.7-0.1,1-0.3V35.2z
			"/>
		<path d="M105.8,36.5l0.6,0.6c-0.3,0.4-0.8,0.6-1.5,0.6c-1.2,0-2-0.8-2-1.8c0-1.1,0.8-1.8,1.9-1.8c1,0,1.8,0.7,1.8,1.8l-2.6,0.5
			c0.2,0.4,0.5,0.5,1,0.5C105.3,36.8,105.5,36.7,105.8,36.5z M103.8,35.7l1.7-0.3c-0.1-0.4-0.4-0.6-0.8-0.6
			C104.2,34.8,103.8,35.1,103.8,35.7z"/>
		<path d="M107,35.8c0-1.1,0.8-1.8,2-1.8s2,0.8,2,1.8s-0.8,1.8-2,1.8S107,36.9,107,35.8z M109.9,35.8c0-0.6-0.4-1-0.9-1
			s-0.9,0.4-0.9,1s0.4,1,0.9,1S109.9,36.4,109.9,35.8z"/>
		<path d="M115.3,34v3c0,1.3-0.7,1.9-2,1.9c-0.7,0-1.3-0.2-1.8-0.5l0.4-0.7c0.3,0.2,0.8,0.4,1.3,0.4c0.7,0,1.1-0.3,1.1-1V37
			c-0.3,0.3-0.7,0.4-1.1,0.4c-1,0-1.8-0.7-1.8-1.7s0.8-1.7,1.8-1.7c0.5,0,0.9,0.2,1.2,0.5V34H115.3z M114.3,35.7
			c0-0.5-0.4-0.9-0.9-0.9c-0.5,0-0.9,0.4-0.9,0.9c0,0.5,0.4,0.9,0.9,0.9C113.9,36.6,114.3,36.2,114.3,35.7z"/>
		<path d="M118.5,34v1c-0.1,0-0.2,0-0.2,0c-0.6,0-1,0.3-1,1v1.7h-1V34h1v0.5C117.5,34.1,118,34,118.5,34z"/>
		<path d="M122.7,34v3.6h-1v-0.4c-0.3,0.3-0.6,0.5-1.1,0.5c-1,0-1.8-0.7-1.8-1.8c0-1.1,0.8-1.8,1.8-1.8c0.4,0,0.8,0.1,1.1,0.4V34
			H122.7z M121.7,35.8c0-0.6-0.4-1-0.9-1c-0.5,0-0.9,0.4-0.9,1s0.4,1,0.9,1C121.3,36.8,121.7,36.4,121.7,35.8z"/>
		<path d="M124.7,33.9v0.2h0.9v0.8h-0.9v2.7h-1v-3.7c0-0.8,0.5-1.3,1.4-1.3c0.3,0,0.6,0.1,0.8,0.2l-0.3,0.8
			c-0.1-0.1-0.3-0.1-0.4-0.1C124.9,33.4,124.7,33.6,124.7,33.9z M126.6,32.9c0-0.3,0.3-0.6,0.6-0.6c0.4,0,0.6,0.2,0.6,0.6
			c0,0.3-0.3,0.6-0.6,0.6C126.8,33.5,126.6,33.3,126.6,32.9z M126.7,34h1v3.6h-1V34z"/>
		<path d="M131.4,36.5l0.6,0.6c-0.3,0.4-0.8,0.6-1.5,0.6c-1.2,0-2-0.8-2-1.8c0-1.1,0.8-1.8,1.9-1.8c1,0,1.8,0.7,1.8,1.8l-2.6,0.5
			c0.2,0.4,0.5,0.5,1,0.5C130.9,36.8,131.1,36.7,131.4,36.5z M129.4,35.7l1.7-0.3c-0.1-0.4-0.4-0.6-0.8-0.6
			C129.8,34.8,129.5,35.1,129.4,35.7z"/>
	</g>
	<g>
		<path d="M56.7,59.7l0.4-0.8c0.4,0.3,1,0.5,1.5,0.5c0.6,0,0.9-0.2,0.9-0.5c0-0.9-2.7-0.3-2.7-2c0-0.8,0.6-1.5,2-1.5
			c0.6,0,1.2,0.1,1.6,0.4L60,56.7c-0.4-0.2-0.9-0.4-1.3-0.4c-0.6,0-0.9,0.2-0.9,0.5c0,0.9,2.7,0.3,2.7,2c0,0.8-0.6,1.4-2,1.4
			C57.9,60.2,57.1,60,56.7,59.7z"/>
		<path d="M63.4,60c-0.2,0.2-0.5,0.2-0.8,0.2c-0.9,0-1.3-0.4-1.3-1.3v-3.1h1v0.9h0.9v0.8h-0.9v1.5c0,0.3,0.2,0.5,0.4,0.5
			c0.2,0,0.3,0,0.4-0.1L63.4,60z"/>
		<path d="M66.6,59l0.6,0.6c-0.3,0.4-0.8,0.6-1.5,0.6c-1.2,0-2-0.8-2-1.8c0-1.1,0.8-1.8,1.9-1.8c1,0,1.8,0.7,1.8,1.8l-2.6,0.5
			c0.2,0.4,0.5,0.5,1,0.5C66,59.4,66.3,59.3,66.6,59z M64.6,58.3l1.7-0.3c-0.1-0.4-0.4-0.6-0.8-0.6C65,57.3,64.6,57.7,64.6,58.3z"/>
		<path d="M71.7,55.2v4.9h-1v-0.4c-0.3,0.3-0.6,0.5-1.1,0.5c-1,0-1.8-0.7-1.8-1.8s0.8-1.8,1.8-1.8c0.4,0,0.8,0.1,1.1,0.4v-1.7H71.7z
			 M70.7,58.4c0-0.6-0.4-1-0.9-1c-0.5,0-0.9,0.4-0.9,1s0.4,1,0.9,1C70.3,59.4,70.7,59,70.7,58.4z"/>
		<path d="M75.4,59l0.6,0.6c-0.3,0.4-0.8,0.6-1.5,0.6c-1.2,0-2-0.8-2-1.8c0-1.1,0.8-1.8,1.9-1.8c1,0,1.8,0.7,1.8,1.8l-2.6,0.5
			c0.2,0.4,0.5,0.5,1,0.5C74.9,59.4,75.1,59.3,75.4,59z M73.4,58.3l1.7-0.3c-0.1-0.4-0.4-0.6-0.8-0.6C73.8,57.3,73.4,57.7,73.4,58.3
			z"/>
		<path d="M76.9,59v-3.8h1v3.7c0,0.3,0.2,0.5,0.4,0.5c0.1,0,0.2,0,0.3-0.1l0,0.8c-0.2,0.1-0.4,0.1-0.5,0.1
			C77.4,60.2,76.9,59.8,76.9,59z"/>
		<path d="M79.1,55.5c0-0.3,0.3-0.6,0.6-0.6s0.6,0.2,0.6,0.6c0,0.3-0.3,0.6-0.6,0.6S79.1,55.8,79.1,55.5z M79.2,56.6h1v3.6h-1V56.6z
			"/>
		<path d="M80.1,61.3l0.3-0.8c0.1,0.1,0.3,0.1,0.4,0.1c0.3,0,0.4-0.2,0.4-0.5v-3.6h1v3.6c0,0.8-0.5,1.4-1.4,1.4
			C80.6,61.5,80.3,61.4,80.1,61.3z M81.1,55.5c0-0.3,0.3-0.6,0.6-0.6s0.6,0.2,0.6,0.6c0,0.3-0.3,0.6-0.6,0.6S81.1,55.8,81.1,55.5z"
			/>
		<path d="M84.8,58.8l-0.5,0.5v0.9h-1v-4.9h1V58l1.5-1.4H87l-1.5,1.5l1.6,2.1h-1.3L84.8,58.8z"/>
		<path d="M90.2,59l0.6,0.6c-0.3,0.4-0.8,0.6-1.5,0.6c-1.2,0-2-0.8-2-1.8c0-1.1,0.8-1.8,1.9-1.8c1,0,1.8,0.7,1.8,1.8l-2.6,0.5
			c0.2,0.4,0.5,0.5,1,0.5C89.7,59.4,90,59.3,90.2,59z M88.2,58.3l1.7-0.3c-0.1-0.4-0.4-0.6-0.8-0.6C88.6,57.3,88.3,57.7,88.2,58.3z"
			/>
		<path d="M93.4,57.8c0-1.4,1.1-2.4,2.5-2.4c1.5,0,2.5,1,2.5,2.4c0,1.4-1.1,2.4-2.5,2.4C94.4,60.2,93.4,59.2,93.4,57.8z M97.4,57.8
			c0-0.9-0.6-1.5-1.5-1.5s-1.5,0.6-1.5,1.5s0.6,1.5,1.5,1.5S97.4,58.7,97.4,57.8z"/>
		<path d="M102.9,58.1v2h-1v-1.9c0-0.6-0.3-0.8-0.7-0.8c-0.5,0-0.9,0.3-0.9,1v1.8h-1v-3.6h1V57c0.3-0.3,0.7-0.5,1.2-0.5
			C102.2,56.5,102.9,57,102.9,58.1z"/>
		<path d="M106,60c-0.2,0.2-0.5,0.2-0.8,0.2c-0.9,0-1.3-0.4-1.3-1.3v-3.1h1v0.9h0.9v0.8h-0.9v1.5c0,0.3,0.2,0.5,0.4,0.5
			c0.2,0,0.3,0,0.4-0.1L106,60z"/>
		<path d="M112.2,56.6v2c0,1.1-0.6,1.7-1.7,1.7c-0.5,0-0.9-0.1-1.2-0.5c-0.3,0.4-0.7,0.5-1.2,0.5c-1.1,0-1.7-0.6-1.7-1.7v-2h1v1.9
			c0,0.6,0.2,0.9,0.6,0.9s0.7-0.3,0.7-0.9v-1.9h1v1.9c0,0.6,0.2,0.9,0.7,0.9s0.6-0.3,0.6-0.9v-1.9H112.2z"/>
		<path d="M113,55.5c0-0.3,0.3-0.6,0.6-0.6c0.4,0,0.6,0.2,0.6,0.6c0,0.3-0.3,0.6-0.6,0.6C113.3,56.1,113,55.8,113,55.5z M113.1,56.6
			h1v3.6h-1V56.6z"/>
		<path d="M116.7,58.8l-0.5,0.5v0.9h-1v-4.9h1V58l1.5-1.4h1.2l-1.5,1.5l1.6,2.1h-1.3L116.7,58.8z"/>
		<path d="M121.1,58.8l-0.5,0.5v0.9h-1v-4.9h1V58l1.5-1.4h1.2l-1.5,1.5l1.6,2.1h-1.3L121.1,58.8z"/>
		<path d="M126.5,59l0.6,0.6c-0.3,0.4-0.8,0.6-1.5,0.6c-1.2,0-2-0.8-2-1.8c0-1.1,0.8-1.8,1.9-1.8c1,0,1.8,0.7,1.8,1.8l-2.6,0.5
			c0.2,0.4,0.5,0.5,1,0.5C126,59.4,126.2,59.3,126.5,59z M124.5,58.3l1.7-0.3c-0.1-0.4-0.4-0.6-0.8-0.6
			C124.9,57.3,124.6,57.7,124.5,58.3z"/>
		<path d="M128,59v-3.8h1v3.7c0,0.3,0.2,0.5,0.4,0.5c0.1,0,0.2,0,0.3-0.1l0,0.8c-0.2,0.1-0.4,0.1-0.5,0.1
			C128.5,60.2,128,59.8,128,59z"/>
		<path d="M130.2,55.5c0-0.3,0.3-0.6,0.6-0.6c0.4,0,0.6,0.2,0.6,0.6c0,0.3-0.3,0.6-0.6,0.6C130.5,56.1,130.2,55.8,130.2,55.5z
			 M130.3,56.6h1v3.6h-1V56.6z"/>
		<path d="M136,58.1v2h-1v-1.9c0-0.6-0.3-0.8-0.7-0.8c-0.5,0-0.9,0.3-0.9,1v1.8h-1v-3.6h1V57c0.3-0.3,0.7-0.5,1.2-0.5
			C135.3,56.5,136,57,136,58.1z"/>
		<path d="M140.7,56.6v3c0,1.3-0.7,1.9-2,1.9c-0.7,0-1.3-0.2-1.8-0.5l0.4-0.7c0.3,0.2,0.8,0.4,1.3,0.4c0.7,0,1.1-0.3,1.1-1v-0.2
			c-0.3,0.3-0.7,0.4-1.1,0.4c-1,0-1.8-0.7-1.8-1.7s0.8-1.7,1.8-1.7c0.5,0,0.9,0.2,1.2,0.5v-0.5H140.7z M139.6,58.3
			c0-0.5-0.4-0.9-0.9-0.9c-0.5,0-0.9,0.4-0.9,0.9c0,0.5,0.4,0.9,0.9,0.9C139.2,59.1,139.6,58.8,139.6,58.3z"/>
	</g>
	<g>
		<path d="M218.9,35.2h1v2.4h-0.8v-0.3c-0.3,0.2-0.8,0.4-1.3,0.4c-1.3,0-2.4-0.8-2.4-2.4c0-1.4,1.1-2.4,2.6-2.4
			c0.8,0,1.5,0.3,1.9,0.8l-0.7,0.6c-0.3-0.4-0.7-0.5-1.2-0.5c-0.9,0-1.5,0.6-1.5,1.5c0,1,0.7,1.5,1.4,1.5c0.4,0,0.7-0.1,1-0.3V35.2z
			"/>
		<path d="M223.5,36.5l0.6,0.6c-0.3,0.4-0.8,0.6-1.5,0.6c-1.2,0-2-0.8-2-1.8c0-1.1,0.8-1.8,1.9-1.8c1,0,1.8,0.7,1.8,1.8l-2.6,0.5
			c0.2,0.4,0.5,0.5,1,0.5C223,36.8,223.3,36.7,223.5,36.5z M221.5,35.7l1.7-0.3c-0.1-0.4-0.4-0.6-0.8-0.6
			C221.9,34.8,221.6,35.1,221.5,35.7z"/>
		<path d="M224.7,35.8c0-1.1,0.8-1.8,2-1.8s2,0.8,2,1.8s-0.8,1.8-2,1.8S224.7,36.9,224.7,35.8z M227.6,35.8c0-0.6-0.4-1-0.9-1
			s-0.9,0.4-0.9,1s0.4,1,0.9,1S227.6,36.4,227.6,35.8z"/>
		<path d="M231.3,32.9h2.1c1.5,0,2.6,0.9,2.6,2.3c0,1.4-1,2.3-2.6,2.3h-2.1V32.9z M233.4,36.7c0.9,0,1.5-0.6,1.5-1.4
			s-0.6-1.4-1.5-1.4h-1v2.9H233.4z"/>
		<path d="M239.4,36.5l0.6,0.6c-0.3,0.4-0.8,0.6-1.5,0.6c-1.2,0-2-0.8-2-1.8c0-1.1,0.8-1.8,1.9-1.8c1,0,1.8,0.7,1.8,1.8l-2.6,0.5
			c0.2,0.4,0.5,0.5,1,0.5C238.9,36.8,239.2,36.7,239.4,36.5z M237.5,35.7l1.7-0.3c-0.1-0.4-0.4-0.6-0.8-0.6
			C237.9,34.8,237.5,35.1,237.5,35.7z"/>
		<path d="M240.6,37.3l0.3-0.7c0.3,0.2,0.8,0.3,1.2,0.3c0.5,0,0.7-0.1,0.7-0.3c0-0.6-2.2,0-2.2-1.4c0-0.7,0.6-1.2,1.7-1.2
			c0.5,0,1,0.1,1.4,0.3l-0.3,0.7c-0.4-0.2-0.7-0.3-1-0.3c-0.5,0-0.7,0.1-0.7,0.3c0,0.6,2.2,0,2.2,1.4c0,0.7-0.6,1.1-1.7,1.1
			C241.5,37.7,240.9,37.5,240.6,37.3z"/>
		<path d="M244.4,32.9c0-0.3,0.3-0.6,0.6-0.6s0.6,0.2,0.6,0.6c0,0.3-0.3,0.6-0.6,0.6S244.4,33.3,244.4,32.9z M244.5,34h1v3.6h-1V34z
			"/>
		<path d="M250.2,34v3c0,1.3-0.7,1.9-2,1.9c-0.7,0-1.3-0.2-1.8-0.5l0.4-0.7c0.3,0.2,0.8,0.4,1.3,0.4c0.7,0,1.1-0.3,1.1-1V37
			c-0.3,0.3-0.7,0.4-1.1,0.4c-1,0-1.8-0.7-1.8-1.7S247,34,248,34c0.5,0,0.9,0.2,1.2,0.5V34H250.2z M249.2,35.7
			c0-0.5-0.4-0.9-0.9-0.9c-0.5,0-0.9,0.4-0.9,0.9c0,0.5,0.4,0.9,0.9,0.9C248.8,36.6,249.2,36.2,249.2,35.7z"/>
		<path d="M254.8,35.6v2h-1v-1.9c0-0.6-0.3-0.8-0.7-0.8c-0.5,0-0.9,0.3-0.9,1v1.8h-1V34h1v0.4c0.3-0.3,0.7-0.5,1.2-0.5
			C254.2,34,254.8,34.5,254.8,35.6z"/>
	</g>
	<g>
		<path d="M178.8,57.8c0-1.4,1.1-2.4,2.5-2.4c1.5,0,2.5,1,2.5,2.4c0,1.4-1.1,2.4-2.5,2.4C179.9,60.2,178.8,59.2,178.8,57.8z
			 M182.8,57.8c0-0.9-0.6-1.5-1.5-1.5s-1.5,0.6-1.5,1.5s0.6,1.5,1.5,1.5S182.8,58.7,182.8,57.8z"/>
		<path d="M188.3,58.1v2h-1v-1.9c0-0.6-0.3-0.8-0.7-0.8c-0.5,0-0.9,0.3-0.9,1v1.8h-1v-3.6h1V57c0.3-0.3,0.7-0.5,1.2-0.5
			C187.7,56.5,188.3,57,188.3,58.1z"/>
		<path d="M192.9,55.2v4.9h-1v-0.4c-0.3,0.3-0.6,0.5-1.1,0.5c-1,0-1.8-0.7-1.8-1.8s0.8-1.8,1.8-1.8c0.4,0,0.8,0.1,1.1,0.4v-1.7
			H192.9z M191.9,58.4c0-0.6-0.4-1-0.9-1c-0.5,0-0.9,0.4-0.9,1s0.4,1,0.9,1C191.5,59.4,191.9,59,191.9,58.4z"/>
		<path d="M196.6,59l0.6,0.6c-0.3,0.4-0.8,0.6-1.5,0.6c-1.2,0-2-0.8-2-1.8c0-1.1,0.8-1.8,1.9-1.8c1,0,1.8,0.7,1.8,1.8l-2.6,0.5
			c0.2,0.4,0.5,0.5,1,0.5C196.1,59.4,196.3,59.3,196.6,59z M194.6,58.3l1.7-0.3c-0.1-0.4-0.4-0.6-0.8-0.6
			C195,57.3,194.7,57.7,194.6,58.3z"/>
		<path d="M200.3,56.5v1c-0.1,0-0.2,0-0.2,0c-0.6,0-1,0.3-1,1v1.7h-1v-3.6h1v0.5C199.3,56.7,199.8,56.5,200.3,56.5z"/>
		<path d="M204.6,58.1v2h-1v-1.9c0-0.6-0.3-0.8-0.7-0.8c-0.5,0-0.9,0.3-0.9,1v1.8h-1v-3.6h1V57c0.3-0.3,0.7-0.5,1.2-0.5
			C204,56.5,204.6,57,204.6,58.1z"/>
		<path d="M208.3,59l0.6,0.6c-0.3,0.4-0.8,0.6-1.5,0.6c-1.2,0-2-0.8-2-1.8c0-1.1,0.8-1.8,1.9-1.8c1,0,1.8,0.7,1.8,1.8l-2.6,0.5
			c0.2,0.4,0.5,0.5,1,0.5C207.8,59.4,208,59.3,208.3,59z M206.3,58.3l1.7-0.3c-0.1-0.4-0.4-0.6-0.8-0.6
			C206.7,57.3,206.3,57.7,206.3,58.3z"/>
		<path d="M215.8,58.1v2h-1v-1.9c0-0.6-0.3-0.8-0.7-0.8c-0.5,0-0.8,0.3-0.8,0.9v1.8h-1v-1.9c0-0.6-0.2-0.8-0.7-0.8
			c-0.5,0-0.8,0.3-0.8,0.9v1.8h-1v-3.6h1V57c0.3-0.3,0.7-0.5,1.1-0.5c0.5,0,0.9,0.2,1.2,0.6c0.3-0.4,0.8-0.6,1.3-0.6
			C215.2,56.5,215.8,57,215.8,58.1z"/>
		<path d="M219.5,59l0.6,0.6c-0.3,0.4-0.8,0.6-1.5,0.6c-1.2,0-2-0.8-2-1.8c0-1.1,0.8-1.8,1.9-1.8c1,0,1.8,0.7,1.8,1.8l-2.6,0.5
			c0.2,0.4,0.5,0.5,1,0.5C219,59.4,219.3,59.3,219.5,59z M217.6,58.3l1.7-0.3c-0.1-0.4-0.4-0.6-0.8-0.6
			C217.9,57.3,217.6,57.7,217.6,58.3z"/>
		<path d="M224.7,58.1v2h-1v-1.9c0-0.6-0.3-0.8-0.7-0.8c-0.5,0-0.9,0.3-0.9,1v1.8h-1v-3.6h1V57c0.3-0.3,0.7-0.5,1.2-0.5
			C224,56.5,224.7,57,224.7,58.1z"/>
		<path d="M227.4,55.5c0-0.3,0.3-0.6,0.6-0.6c0.4,0,0.6,0.2,0.6,0.6c0,0.3-0.3,0.6-0.6,0.6C227.6,56.1,227.4,55.8,227.4,55.5z
			 M227.5,56.6h1v3.6h-1V56.6z"/>
		<path d="M233.1,58.1v2h-1v-1.9c0-0.6-0.3-0.8-0.7-0.8c-0.5,0-0.9,0.3-0.9,1v1.8h-1v-3.6h1V57c0.3-0.3,0.7-0.5,1.2-0.5
			C232.5,56.5,233.1,57,233.1,58.1z"/>
		<path d="M239.6,55.2v4.9h-1v-0.4c-0.3,0.3-0.6,0.5-1.1,0.5c-1,0-1.8-0.7-1.8-1.8s0.8-1.8,1.8-1.8c0.4,0,0.8,0.1,1.1,0.4v-1.7
			H239.6z M238.6,58.4c0-0.6-0.4-1-0.9-1c-0.5,0-0.9,0.4-0.9,1s0.4,1,0.9,1C238.2,59.4,238.6,59,238.6,58.4z"/>
		<path d="M243.3,59l0.6,0.6c-0.3,0.4-0.8,0.6-1.5,0.6c-1.2,0-2-0.8-2-1.8c0-1.1,0.8-1.8,1.9-1.8c1,0,1.8,0.7,1.8,1.8l-2.6,0.5
			c0.2,0.4,0.5,0.5,1,0.5C242.8,59.4,243,59.3,243.3,59z M241.3,58.3l1.7-0.3c-0.1-0.4-0.4-0.6-0.8-0.6
			C241.7,57.3,241.4,57.7,241.3,58.3z"/>
		<path d="M249.9,57.8h1v2.4h-0.8v-0.3c-0.3,0.2-0.8,0.4-1.3,0.4c-1.3,0-2.4-0.8-2.4-2.4c0-1.4,1.1-2.4,2.6-2.4
			c0.8,0,1.5,0.3,1.9,0.8l-0.7,0.6c-0.3-0.4-0.7-0.5-1.2-0.5c-0.9,0-1.5,0.6-1.5,1.5c0,1,0.7,1.5,1.4,1.5c0.4,0,0.7-0.1,1-0.3V57.8z
			"/>
		<path d="M254.5,59l0.6,0.6c-0.3,0.4-0.8,0.6-1.5,0.6c-1.2,0-2-0.8-2-1.8c0-1.1,0.8-1.8,1.9-1.8c1,0,1.8,0.7,1.8,1.8l-2.6,0.5
			c0.2,0.4,0.5,0.5,1,0.5C254,59.4,254.3,59.3,254.5,59z M252.5,58.3l1.7-0.3c-0.1-0.4-0.4-0.6-0.8-0.6
			C252.9,57.3,252.6,57.7,252.5,58.3z"/>
		<path d="M255.7,58.4c0-1.1,0.8-1.8,2-1.8c1.1,0,2,0.8,2,1.8s-0.8,1.8-2,1.8C256.6,60.2,255.7,59.5,255.7,58.4z M258.6,58.4
			c0-0.6-0.4-1-0.9-1c-0.5,0-0.9,0.4-0.9,1s0.4,1,0.9,1C258.2,59.4,258.6,59,258.6,58.4z"/>
		<path d="M260.3,57.9h1.9v0.8h-1.9V57.9z"/>
		<path d="M266.9,58.4c0,1.1-0.8,1.8-1.8,1.8c-0.5,0-0.9-0.2-1.1-0.5v0.4h-1v-4.9h1V57c0.3-0.3,0.6-0.4,1.1-0.4
			C266.1,56.5,266.9,57.2,266.9,58.4z M265.8,58.4c0-0.6-0.4-1-0.9-1s-0.9,0.4-0.9,1s0.4,1,0.9,1S265.8,59,265.8,58.4z"/>
		<path d="M269.8,56.5v1c-0.1,0-0.2,0-0.2,0c-0.6,0-1,0.3-1,1v1.7h-1v-3.6h1v0.5C268.8,56.7,269.3,56.5,269.8,56.5z"/>
		<path d="M274,56.6v3.6h-1v-0.4c-0.3,0.3-0.6,0.5-1.1,0.5c-1,0-1.8-0.7-1.8-1.8s0.8-1.8,1.8-1.8c0.4,0,0.8,0.1,1.1,0.4v-0.4H274z
			 M273,58.4c0-0.6-0.4-1-0.9-1c-0.5,0-0.9,0.4-0.9,1s0.4,1,0.9,1C272.6,59.4,273,59,273,58.4z"/>
		<path d="M278.7,58.1v2h-1v-1.9c0-0.6-0.3-0.8-0.7-0.8c-0.5,0-0.9,0.3-0.9,1v1.8h-1v-3.6h1V57c0.3-0.3,0.7-0.5,1.2-0.5
			C278,56.5,278.7,57,278.7,58.1z"/>
		<path d="M279.4,58.4c0-1.1,0.8-1.8,2-1.8c0.8,0,1.3,0.3,1.6,0.9l-0.8,0.4c-0.2-0.3-0.5-0.5-0.8-0.5c-0.5,0-0.9,0.4-0.9,1
			s0.4,1,0.9,1c0.3,0,0.6-0.1,0.8-0.5l0.8,0.4c-0.3,0.6-0.9,0.9-1.6,0.9C280.2,60.2,279.4,59.5,279.4,58.4z"/>
		<path d="M287.2,58.1v2h-1v-1.9c0-0.6-0.3-0.8-0.7-0.8c-0.5,0-0.9,0.3-0.9,1v1.8h-1v-4.9h1V57c0.3-0.3,0.7-0.4,1.1-0.4
			C286.6,56.5,287.2,57,287.2,58.1z"/>
		<path d="M290.9,59l0.6,0.6c-0.3,0.4-0.8,0.6-1.5,0.6c-1.2,0-2-0.8-2-1.8c0-1.1,0.8-1.8,1.9-1.8c1,0,1.8,0.7,1.8,1.8l-2.6,0.5
			c0.2,0.4,0.5,0.5,1,0.5C290.4,59.4,290.6,59.3,290.9,59z M288.9,58.3l1.7-0.3c-0.1-0.4-0.4-0.6-0.8-0.6
			C289.3,57.3,289,57.7,288.9,58.3z"/>
	</g>
	<g>
		<path d="M61.6,84.4c0,0.8-0.6,1.3-1.9,1.3h-2.4V81h2.3c1.2,0,1.8,0.5,1.8,1.2c0,0.5-0.2,0.8-0.6,1C61.3,83.4,61.6,83.8,61.6,84.4z
			 M58.4,81.8v1.1h1.1c0.5,0,0.8-0.2,0.8-0.6s-0.3-0.5-0.8-0.5H58.4z M60.5,84.3c0-0.4-0.3-0.6-0.9-0.6h-1.3v1.2h1.3
			C60.2,84.9,60.5,84.7,60.5,84.3z"/>
		<path d="M62.3,81c0-0.3,0.3-0.6,0.6-0.6c0.4,0,0.6,0.2,0.6,0.6c0,0.3-0.3,0.6-0.6,0.6C62.5,81.6,62.3,81.4,62.3,81z M62.4,82.1h1
			v3.6h-1V82.1z"/>
		<path d="M68.1,82.1v3c0,1.3-0.7,1.9-2,1.9c-0.7,0-1.3-0.2-1.8-0.5l0.4-0.7c0.3,0.2,0.8,0.4,1.3,0.4c0.7,0,1.1-0.3,1.1-1v-0.2
			c-0.3,0.3-0.7,0.4-1.1,0.4c-1,0-1.8-0.7-1.8-1.7s0.8-1.7,1.8-1.7c0.5,0,0.9,0.2,1.2,0.5v-0.5H68.1z M67.1,83.8
			c0-0.5-0.4-0.9-0.9-0.9c-0.5,0-0.9,0.4-0.9,0.9c0,0.5,0.4,0.9,0.9,0.9C66.7,84.7,67.1,84.3,67.1,83.8z"/>
		<path d="M71,81h2.1c1.5,0,2.6,0.9,2.6,2.3c0,1.4-1,2.3-2.6,2.3H71V81z M73.1,84.8c0.9,0,1.5-0.6,1.5-1.4s-0.6-1.4-1.5-1.4h-1v2.9
			H73.1z"/>
		<path d="M80.1,82.1v3.6h-1v-0.4c-0.3,0.3-0.6,0.5-1.1,0.5c-1,0-1.8-0.7-1.8-1.8c0-1.1,0.8-1.8,1.8-1.8c0.4,0,0.8,0.1,1.1,0.4v-0.4
			H80.1z M79,83.9c0-0.6-0.4-1-0.9-1c-0.5,0-0.9,0.4-0.9,1s0.4,1,0.9,1C78.6,84.9,79,84.5,79,83.9z"/>
		<path d="M83.2,85.5c-0.2,0.2-0.5,0.2-0.8,0.2c-0.9,0-1.3-0.4-1.3-1.3v-3.1h1v0.9h0.9V83H82v1.5c0,0.3,0.2,0.5,0.4,0.5
			c0.2,0,0.3,0,0.4-0.1L83.2,85.5z"/>
		<path d="M87.3,82.1v3.6h-1v-0.4c-0.3,0.3-0.6,0.5-1.1,0.5c-1,0-1.8-0.7-1.8-1.8c0-1.1,0.8-1.8,1.8-1.8c0.4,0,0.8,0.1,1.1,0.4v-0.4
			H87.3z M86.3,83.9c0-0.6-0.4-1-0.9-1c-0.5,0-0.9,0.4-0.9,1s0.4,1,0.9,1C85.9,84.9,86.3,84.5,86.3,83.9z"/>
		<path d="M90,81c0-0.3,0.3-0.6,0.6-0.6c0.4,0,0.6,0.2,0.6,0.6c0,0.3-0.3,0.6-0.6,0.6C90.3,81.6,90,81.4,90,81z M90.1,82.1h1v3.6h-1
			V82.1z"/>
		<path d="M95.8,83.6v2h-1v-1.9c0-0.6-0.3-0.8-0.7-0.8c-0.5,0-0.9,0.3-0.9,1v1.8h-1v-3.6h1v0.4c0.3-0.3,0.7-0.5,1.2-0.5
			C95.2,82.1,95.8,82.5,95.8,83.6z"/>
		<path d="M98.3,85.2l0.4-0.8c0.4,0.3,1,0.5,1.5,0.5c0.6,0,0.9-0.2,0.9-0.5c0-0.9-2.7-0.3-2.7-2c0-0.8,0.6-1.5,2-1.5
			c0.6,0,1.2,0.1,1.6,0.4l-0.3,0.8c-0.4-0.2-0.9-0.4-1.3-0.4c-0.6,0-0.9,0.2-0.9,0.5c0,0.9,2.7,0.3,2.7,2c0,0.8-0.6,1.4-2,1.4
			C99.5,85.8,98.7,85.5,98.3,85.2z"/>
		<path d="M108.9,83.6v2h-1v-1.9c0-0.6-0.3-0.8-0.7-0.8c-0.5,0-0.8,0.3-0.8,0.9v1.8h-1v-1.9c0-0.6-0.2-0.8-0.7-0.8
			c-0.5,0-0.8,0.3-0.8,0.9v1.8h-1v-3.6h1v0.4c0.3-0.3,0.7-0.5,1.1-0.5c0.5,0,0.9,0.2,1.2,0.6c0.3-0.4,0.8-0.6,1.3-0.6
			C108.3,82.1,108.9,82.5,108.9,83.6z"/>
		<path d="M113.5,82.1v3.6h-1v-0.4c-0.3,0.3-0.6,0.5-1.1,0.5c-1,0-1.8-0.7-1.8-1.8c0-1.1,0.8-1.8,1.8-1.8c0.4,0,0.8,0.1,1.1,0.4
			v-0.4H113.5z M112.5,83.9c0-0.6-0.4-1-0.9-1c-0.5,0-0.9,0.4-0.9,1s0.4,1,0.9,1C112.1,84.9,112.5,84.5,112.5,83.9z"/>
		<path d="M116.7,82.1v1c-0.1,0-0.2,0-0.2,0c-0.6,0-1,0.3-1,1v1.7h-1v-3.6h1v0.5C115.7,82.2,116.2,82.1,116.7,82.1z"/>
		<path d="M119.5,85.5c-0.2,0.2-0.5,0.2-0.8,0.2c-0.9,0-1.3-0.4-1.3-1.3v-3.1h1v0.9h0.9V83h-0.9v1.5c0,0.3,0.2,0.5,0.4,0.5
			c0.2,0,0.3,0,0.4-0.1L119.5,85.5z"/>
		<path d="M121.7,83.4c0-1.4,1.1-2.4,2.5-2.4c0.8,0,1.5,0.3,1.9,0.8l-0.7,0.6c-0.3-0.4-0.7-0.5-1.2-0.5c-0.9,0-1.5,0.6-1.5,1.5
			c0,0.9,0.6,1.5,1.5,1.5c0.5,0,0.9-0.2,1.2-0.6l0.7,0.6c-0.4,0.5-1.1,0.8-1.9,0.8C122.8,85.8,121.7,84.8,121.7,83.4z"/>
		<path d="M126.7,81c0-0.3,0.3-0.6,0.6-0.6c0.4,0,0.6,0.2,0.6,0.6c0,0.3-0.3,0.6-0.6,0.6C127,81.6,126.7,81.4,126.7,81z M126.8,82.1
			h1v3.6h-1V82.1z"/>
		<path d="M131,85.5c-0.2,0.2-0.5,0.2-0.8,0.2c-0.9,0-1.3-0.4-1.3-1.3v-3.1h1v0.9h0.9V83h-0.9v1.5c0,0.3,0.2,0.5,0.4,0.5
			c0.2,0,0.3,0,0.4-0.1L131,85.5z"/>
		<path d="M131.5,81c0-0.3,0.3-0.6,0.6-0.6s0.6,0.2,0.6,0.6c0,0.3-0.3,0.6-0.6,0.6S131.5,81.4,131.5,81z M131.6,82.1h1v3.6h-1V82.1z
			"/>
		<path d="M136.3,84.6l0.6,0.6c-0.3,0.4-0.8,0.6-1.5,0.6c-1.2,0-2-0.8-2-1.8c0-1.1,0.8-1.8,1.9-1.8c1,0,1.8,0.7,1.8,1.8l-2.6,0.5
			c0.2,0.4,0.5,0.5,1,0.5C135.8,84.9,136,84.8,136.3,84.6z M134.3,83.8l1.7-0.3c-0.1-0.4-0.4-0.6-0.8-0.6
			C134.7,82.8,134.4,83.2,134.3,83.8z"/>
		<path d="M137.4,85.4l0.3-0.7c0.3,0.2,0.8,0.3,1.2,0.3c0.5,0,0.7-0.1,0.7-0.3c0-0.6-2.2,0-2.2-1.4c0-0.7,0.6-1.2,1.7-1.2
			c0.5,0,1,0.1,1.4,0.3l-0.3,0.7c-0.4-0.2-0.7-0.3-1-0.3c-0.5,0-0.7,0.1-0.7,0.3c0,0.6,2.2,0,2.2,1.4c0,0.7-0.6,1.1-1.7,1.1
			C138.4,85.7,137.8,85.6,137.4,85.4z"/>
	</g>
	<g>
		<path d="M46,103.6v2.7c0,1.3-0.7,2-2,2c-0.7,0-1.2-0.2-1.5-0.5c-0.3,0.3-0.8,0.5-1.5,0.5c-1.3,0-2-0.7-2-2v-2.7h1.1v2.7
			c0,0.8,0.3,1.1,0.9,1.1c0.6,0,0.9-0.3,0.9-1.1v-2.7H43v2.7c0,0.8,0.3,1.1,0.9,1.1c0.6,0,0.9-0.3,0.9-1.1v-2.7H46z"/>
		<path d="M49.7,107.1l0.6,0.6c-0.3,0.4-0.8,0.6-1.5,0.6c-1.2,0-2-0.8-2-1.8c0-1.1,0.8-1.8,1.9-1.8c1,0,1.8,0.7,1.8,1.8l-2.6,0.5
			c0.2,0.4,0.5,0.5,1,0.5C49.2,107.5,49.4,107.4,49.7,107.1z M47.7,106.4l1.7-0.3c-0.1-0.4-0.4-0.6-0.8-0.6
			C48.1,105.4,47.7,105.7,47.7,106.4z"/>
		<path d="M55.1,106.5c0,1.1-0.8,1.8-1.8,1.8c-0.5,0-0.9-0.2-1.1-0.5v0.4h-1v-4.9h1v1.7c0.3-0.3,0.6-0.4,1.1-0.4
			C54.3,104.6,55.1,105.3,55.1,106.5z M54,106.5c0-0.6-0.4-1-0.9-1s-0.9,0.4-0.9,1s0.4,1,0.9,1S54,107.1,54,106.5z"/>
		<path d="M59.4,103.3v4.9h-1v-0.4c-0.3,0.3-0.6,0.5-1.1,0.5c-1,0-1.8-0.7-1.8-1.8c0-1.1,0.8-1.8,1.8-1.8c0.4,0,0.8,0.1,1.1,0.4
			v-1.7H59.4z M58.4,106.5c0-0.6-0.4-1-0.9-1c-0.5,0-0.9,0.4-0.9,1s0.4,1,0.9,1C58,107.5,58.4,107.1,58.4,106.5z"/>
		<path d="M63.1,107.1l0.6,0.6c-0.3,0.4-0.8,0.6-1.5,0.6c-1.2,0-2-0.8-2-1.8c0-1.1,0.8-1.8,1.9-1.8c1,0,1.8,0.7,1.8,1.8l-2.6,0.5
			c0.2,0.4,0.5,0.5,1,0.5C62.6,107.5,62.8,107.4,63.1,107.1z M61.1,106.4l1.7-0.3c-0.1-0.4-0.4-0.6-0.8-0.6
			C61.5,105.4,61.1,105.7,61.1,106.4z"/>
		<path d="M64.2,107.9l0.3-0.7c0.3,0.2,0.8,0.3,1.2,0.3c0.5,0,0.7-0.1,0.7-0.3c0-0.6-2.2,0-2.2-1.4c0-0.7,0.6-1.2,1.7-1.2
			c0.5,0,1,0.1,1.4,0.3l-0.3,0.7c-0.4-0.2-0.7-0.3-1-0.3c-0.5,0-0.7,0.1-0.7,0.3c0,0.6,2.2,0,2.2,1.4c0,0.7-0.6,1.1-1.7,1.1
			C65.2,108.3,64.6,108.1,64.2,107.9z"/>
		<path d="M68,103.6c0-0.3,0.3-0.6,0.6-0.6c0.4,0,0.6,0.2,0.6,0.6c0,0.3-0.3,0.6-0.6,0.6C68.2,104.2,68,103.9,68,103.6z M68.1,104.7
			h1v3.6h-1V104.7z"/>
		<path d="M73.8,104.7v3c0,1.3-0.7,1.9-2,1.9c-0.7,0-1.3-0.2-1.8-0.5l0.4-0.7c0.3,0.2,0.8,0.4,1.3,0.4c0.7,0,1.1-0.3,1.1-1v-0.2
			c-0.3,0.3-0.7,0.4-1.1,0.4c-1,0-1.8-0.7-1.8-1.7s0.8-1.7,1.8-1.7c0.5,0,0.9,0.2,1.2,0.5v-0.5H73.8z M72.8,106.3
			c0-0.5-0.4-0.9-0.9-0.9c-0.5,0-0.9,0.4-0.9,0.9c0,0.5,0.4,0.9,0.9,0.9C72.4,107.2,72.8,106.9,72.8,106.3z"/>
		<path d="M78.4,106.2v2h-1v-1.9c0-0.6-0.3-0.8-0.7-0.8c-0.5,0-0.9,0.3-0.9,1v1.8h-1v-3.6h1v0.4c0.3-0.3,0.7-0.5,1.2-0.5
			C77.8,104.6,78.4,105.1,78.4,106.2z"/>
		<path d="M84.8,104.7l-1.5,3.6h-1.1l-1.5-3.6h1.1l1,2.4l1-2.4H84.8z"/>
		<path d="M84.9,106.5c0-1.1,0.8-1.8,2-1.8s2,0.8,2,1.8s-0.8,1.8-2,1.8S84.9,107.5,84.9,106.5z M87.8,106.5c0-0.6-0.4-1-0.9-1
			s-0.9,0.4-0.9,1s0.4,1,0.9,1S87.8,107.1,87.8,106.5z"/>
		<path d="M89.2,106.5c0-1.1,0.8-1.8,2-1.8s2,0.8,2,1.8s-0.8,1.8-2,1.8S89.2,107.5,89.2,106.5z M92.1,106.5c0-0.6-0.4-1-0.9-1
			s-0.9,0.4-0.9,1s0.4,1,0.9,1S92.1,107.1,92.1,106.5z"/>
		<path d="M96.1,104.6v1c-0.1,0-0.2,0-0.2,0c-0.6,0-1,0.3-1,1v1.7h-1v-3.6h1v0.5C95.1,104.8,95.5,104.6,96.1,104.6z"/>
		<path d="M98.3,107.8l0.4-0.8c0.4,0.3,1,0.5,1.5,0.5c0.6,0,0.9-0.2,0.9-0.5c0-0.9-2.7-0.3-2.7-2c0-0.8,0.6-1.5,2-1.5
			c0.6,0,1.2,0.1,1.6,0.4l-0.3,0.8c-0.4-0.2-0.9-0.4-1.3-0.4c-0.6,0-0.9,0.2-0.9,0.5c0,0.9,2.7,0.3,2.7,2c0,0.8-0.6,1.4-2,1.4
			C99.5,108.3,98.7,108.1,98.3,107.8z"/>
		<path d="M105,108.1c-0.2,0.2-0.5,0.2-0.8,0.2c-0.9,0-1.3-0.4-1.3-1.3v-3.1h1v0.9h0.9v0.8h-0.9v1.5c0,0.3,0.2,0.5,0.4,0.5
			c0.2,0,0.3,0,0.4-0.1L105,108.1z"/>
		<path d="M108.2,107.1l0.6,0.6c-0.3,0.4-0.8,0.6-1.5,0.6c-1.2,0-2-0.8-2-1.8c0-1.1,0.8-1.8,1.9-1.8c1,0,1.8,0.7,1.8,1.8l-2.6,0.5
			c0.2,0.4,0.5,0.5,1,0.5C107.7,107.5,107.9,107.4,108.2,107.1z M106.2,106.4l1.7-0.3c-0.1-0.4-0.4-0.6-0.8-0.6
			C106.6,105.4,106.3,105.7,106.2,106.4z"/>
		<path d="M113.3,103.3v4.9h-1v-0.4c-0.3,0.3-0.6,0.5-1.1,0.5c-1,0-1.8-0.7-1.8-1.8c0-1.1,0.8-1.8,1.8-1.8c0.4,0,0.8,0.1,1.1,0.4
			v-1.7H113.3z M112.3,106.5c0-0.6-0.4-1-0.9-1c-0.5,0-0.9,0.4-0.9,1s0.4,1,0.9,1C111.9,107.5,112.3,107.1,112.3,106.5z"/>
		<path d="M117,107.1l0.6,0.6c-0.3,0.4-0.8,0.6-1.5,0.6c-1.2,0-2-0.8-2-1.8c0-1.1,0.8-1.8,1.9-1.8c1,0,1.8,0.7,1.8,1.8l-2.6,0.5
			c0.2,0.4,0.5,0.5,1,0.5C116.5,107.5,116.8,107.4,117,107.1z M115.1,106.4l1.7-0.3c-0.1-0.4-0.4-0.6-0.8-0.6
			C115.4,105.4,115.1,105.7,115.1,106.4z"/>
		<path d="M118.5,107.1v-3.8h1v3.7c0,0.3,0.2,0.5,0.4,0.5c0.1,0,0.2,0,0.3-0.1l0,0.8c-0.2,0.1-0.4,0.1-0.5,0.1
			C119,108.3,118.5,107.9,118.5,107.1z"/>
		<path d="M120.7,103.6c0-0.3,0.3-0.6,0.6-0.6s0.6,0.2,0.6,0.6c0,0.3-0.3,0.6-0.6,0.6S120.7,103.9,120.7,103.6z M120.8,104.7h1v3.6
			h-1V104.7z"/>
		<path d="M121.7,109.4l0.3-0.8c0.1,0.1,0.3,0.1,0.4,0.1c0.3,0,0.4-0.2,0.4-0.5v-3.6h1v3.6c0,0.8-0.5,1.4-1.4,1.4
			C122.3,109.6,121.9,109.5,121.7,109.4z M122.8,103.6c0-0.3,0.3-0.6,0.6-0.6s0.6,0.2,0.6,0.6c0,0.3-0.3,0.6-0.6,0.6
			S122.8,103.9,122.8,103.6z"/>
		<path d="M126.4,106.8l-0.5,0.5v0.9h-1v-4.9h1v2.8l1.5-1.4h1.2l-1.5,1.5l1.6,2.1h-1.3L126.4,106.8z"/>
		<path d="M131.8,107.1l0.6,0.6c-0.3,0.4-0.8,0.6-1.5,0.6c-1.2,0-2-0.8-2-1.8c0-1.1,0.8-1.8,1.9-1.8c1,0,1.8,0.7,1.8,1.8l-2.6,0.5
			c0.2,0.4,0.5,0.5,1,0.5C131.3,107.5,131.6,107.4,131.8,107.1z M129.9,106.4l1.7-0.3c-0.1-0.4-0.4-0.6-0.8-0.6
			C130.3,105.4,129.9,105.7,129.9,106.4z"/>
		<path d="M135.3,103.6h2.1c1.5,0,2.6,0.9,2.6,2.3c0,1.4-1,2.3-2.6,2.3h-2.1V103.6z M137.3,107.4c0.9,0,1.5-0.6,1.5-1.4
			s-0.6-1.4-1.5-1.4h-1v2.9H137.3z"/>
		<path d="M143.4,107.1l0.6,0.6c-0.3,0.4-0.8,0.6-1.5,0.6c-1.2,0-2-0.8-2-1.8c0-1.1,0.8-1.8,1.9-1.8c1,0,1.8,0.7,1.8,1.8l-2.6,0.5
			c0.2,0.4,0.5,0.5,1,0.5C142.9,107.5,143.2,107.4,143.4,107.1z M141.5,106.4l1.7-0.3c-0.1-0.4-0.4-0.6-0.8-0.6
			C141.8,105.4,141.5,105.7,141.5,106.4z"/>
		<path d="M144.9,107.1v-3.8h1v3.7c0,0.3,0.2,0.5,0.4,0.5c0.1,0,0.2,0,0.3-0.1l0,0.8c-0.2,0.1-0.4,0.1-0.5,0.1
			C145.4,108.3,144.9,107.9,144.9,107.1z"/>
		<path d="M149.4,108.1c-0.2,0.2-0.5,0.2-0.8,0.2c-0.9,0-1.3-0.4-1.3-1.3v-3.1h1v0.9h0.9v0.8h-0.9v1.5c0,0.3,0.2,0.5,0.4,0.5
			c0.2,0,0.3,0,0.4-0.1L149.4,108.1z"/>
		<path d="M153.5,104.7v3.6h-1v-0.4c-0.3,0.3-0.6,0.5-1.1,0.5c-1,0-1.8-0.7-1.8-1.8c0-1.1,0.8-1.8,1.8-1.8c0.4,0,0.8,0.1,1.1,0.4
			v-0.4H153.5z M152.5,106.5c0-0.6-0.4-1-0.9-1c-0.5,0-0.9,0.4-0.9,1s0.4,1,0.9,1C152.1,107.5,152.5,107.1,152.5,106.5z"/>
		<path d="M155.5,103.9c0,0.2,0,0.3-0.2,0.7l-0.4,1h-0.7l0.3-1.1c-0.2-0.1-0.4-0.3-0.4-0.6c0-0.4,0.3-0.6,0.6-0.6
			C155.2,103.3,155.5,103.5,155.5,103.9z"/>
		<path d="M155.8,107.9l0.3-0.7c0.3,0.2,0.8,0.3,1.2,0.3c0.5,0,0.7-0.1,0.7-0.3c0-0.6-2.2,0-2.2-1.4c0-0.7,0.6-1.2,1.7-1.2
			c0.5,0,1,0.1,1.4,0.3l-0.3,0.7c-0.4-0.2-0.7-0.3-1-0.3c-0.5,0-0.7,0.1-0.7,0.3c0,0.6,2.2,0,2.2,1.4c0,0.7-0.6,1.1-1.7,1.1
			C156.7,108.3,156.1,108.1,155.8,107.9z"/>
	</g>
	<g>
		<path d="M187.4,85.7l-0.9-1.3h-0.1h-0.9v1.3h-1.1V81h2c1.2,0,2,0.6,2,1.7c0,0.7-0.4,1.2-1,1.5l1,1.5H187.4z M186.4,81.9h-0.9v1.6
			h0.9c0.7,0,1-0.3,1-0.8C187.4,82.2,187.1,81.9,186.4,81.9z"/>
		<path d="M192.9,82.1v3.6h-1v-0.4c-0.3,0.3-0.6,0.5-1.1,0.5c-1,0-1.8-0.7-1.8-1.8s0.8-1.8,1.8-1.8c0.4,0,0.8,0.1,1.1,0.4v-0.4
			H192.9z M191.9,83.9c0-0.6-0.4-1-0.9-1c-0.5,0-0.9,0.4-0.9,1s0.4,1,0.9,1C191.5,84.9,191.9,84.5,191.9,83.9z"/>
		<path d="M199.9,83.6v2h-1v-1.9c0-0.6-0.3-0.8-0.7-0.8c-0.5,0-0.8,0.3-0.8,0.9v1.8h-1v-1.9c0-0.6-0.2-0.8-0.7-0.8
			c-0.5,0-0.8,0.3-0.8,0.9v1.8h-1v-3.6h1v0.4c0.3-0.3,0.7-0.5,1.1-0.5c0.5,0,0.9,0.2,1.2,0.6c0.3-0.4,0.8-0.6,1.3-0.6
			C199.3,82.1,199.9,82.5,199.9,83.6z"/>
		<path d="M204.7,83.9c0,1.1-0.8,1.8-1.8,1.8c-0.4,0-0.8-0.1-1.1-0.4V87h-1v-4.9h1v0.4c0.3-0.3,0.6-0.5,1.1-0.5
			C204,82.1,204.7,82.8,204.7,83.9z M203.7,83.9c0-0.6-0.4-1-0.9-1s-0.9,0.4-0.9,1s0.4,1,0.9,1S203.7,84.5,203.7,83.9z"/>
		<path d="M208.1,84.6l0.6,0.6c-0.3,0.4-0.8,0.6-1.5,0.6c-1.2,0-2-0.8-2-1.8c0-1.1,0.8-1.8,1.9-1.8c1,0,1.8,0.7,1.8,1.8l-2.6,0.5
			c0.2,0.4,0.5,0.5,1,0.5C207.6,84.9,207.9,84.8,208.1,84.6z M206.2,83.8l1.7-0.3c-0.1-0.4-0.4-0.6-0.8-0.6
			C206.6,82.8,206.2,83.2,206.2,83.8z"/>
		<path d="M213.3,83.6v2h-1v-1.9c0-0.6-0.3-0.8-0.7-0.8c-0.5,0-0.9,0.3-0.9,1v1.8h-1v-3.6h1v0.4c0.3-0.3,0.7-0.5,1.2-0.5
			C212.7,82.1,213.3,82.5,213.3,83.6z"/>
		<path d="M218.8,84.6l0.6,0.6c-0.3,0.4-0.8,0.6-1.5,0.6c-1.2,0-2-0.8-2-1.8c0-1.1,0.8-1.8,1.9-1.8c1,0,1.8,0.7,1.8,1.8l-2.6,0.5
			c0.2,0.4,0.5,0.5,1,0.5C218.3,84.9,218.6,84.8,218.8,84.6z M216.9,83.8l1.7-0.3c-0.1-0.4-0.4-0.6-0.8-0.6
			C217.3,82.8,216.9,83.2,216.9,83.8z"/>
		<path d="M224,83.6v2h-1v-1.9c0-0.6-0.3-0.8-0.7-0.8c-0.5,0-0.9,0.3-0.9,1v1.8h-1v-3.6h1v0.4c0.3-0.3,0.7-0.5,1.2-0.5
			C223.3,82.1,224,82.5,224,83.6z"/>
		<path d="M229.9,85.7l-0.9-1.3h-0.1H228v1.3h-1.1V81h2c1.2,0,2,0.6,2,1.7c0,0.7-0.4,1.2-1,1.5l1,1.5H229.9z M228.8,81.9H228v1.6
			h0.9c0.7,0,1-0.3,1-0.8C229.8,82.2,229.5,81.9,228.8,81.9z"/>
		<path d="M231.6,81c0-0.3,0.3-0.6,0.6-0.6c0.4,0,0.6,0.2,0.6,0.6c0,0.3-0.3,0.6-0.6,0.6C231.8,81.6,231.6,81.4,231.6,81z
			 M231.7,82.1h1v3.6h-1V82.1z"/>
		<path d="M233.4,85.4l0.3-0.7c0.3,0.2,0.8,0.3,1.2,0.3c0.5,0,0.7-0.1,0.7-0.3c0-0.6-2.2,0-2.2-1.4c0-0.7,0.6-1.2,1.7-1.2
			c0.5,0,1,0.1,1.4,0.3l-0.3,0.7c-0.4-0.2-0.7-0.3-1-0.3c-0.5,0-0.7,0.1-0.7,0.3c0,0.6,2.2,0,2.2,1.4c0,0.7-0.6,1.1-1.7,1.1
			C234.3,85.7,233.7,85.6,233.4,85.4z"/>
		<path d="M237.1,81c0-0.3,0.3-0.6,0.6-0.6c0.4,0,0.6,0.2,0.6,0.6c0,0.3-0.3,0.6-0.6,0.6C237.4,81.6,237.1,81.4,237.1,81z
			 M237.2,82.1h1v3.6h-1V82.1z"/>
		<path d="M239,83.9c0-1.1,0.8-1.8,2-1.8c0.8,0,1.3,0.3,1.6,0.9l-0.8,0.4c-0.2-0.3-0.5-0.5-0.8-0.5c-0.5,0-0.9,0.4-0.9,1
			s0.4,1,0.9,1c0.3,0,0.6-0.1,0.8-0.5l0.8,0.4c-0.3,0.6-0.9,0.9-1.6,0.9C239.8,85.7,239,85,239,83.9z"/>
		<path d="M242.9,83.9c0-1.1,0.8-1.8,2-1.8s2,0.8,2,1.8s-0.8,1.8-2,1.8S242.9,85,242.9,83.9z M245.8,83.9c0-0.6-0.4-1-0.9-1
			s-0.9,0.4-0.9,1s0.4,1,0.9,1S245.8,84.5,245.8,83.9z"/>
		<path d="M251.4,83.9c0,1.1-0.8,1.8-1.8,1.8c-0.5,0-0.9-0.2-1.1-0.5v0.4h-1v-4.9h1v1.7c0.3-0.3,0.6-0.4,1.1-0.4
			C250.6,82.1,251.4,82.8,251.4,83.9z M250.3,83.9c0-0.6-0.4-1-0.9-1s-0.9,0.4-0.9,1s0.4,1,0.9,1S250.3,84.5,250.3,83.9z"/>
		<path d="M254.8,84.6l0.6,0.6c-0.3,0.4-0.8,0.6-1.5,0.6c-1.2,0-2-0.8-2-1.8c0-1.1,0.8-1.8,1.9-1.8c1,0,1.8,0.7,1.8,1.8l-2.6,0.5
			c0.2,0.4,0.5,0.5,1,0.5C254.3,84.9,254.5,84.8,254.8,84.6z M252.8,83.8l1.7-0.3c-0.1-0.4-0.4-0.6-0.8-0.6
			C253.2,82.8,252.9,83.2,252.8,83.8z"/>
		<path d="M260,83.6v2h-1v-1.9c0-0.6-0.3-0.8-0.7-0.8c-0.5,0-0.9,0.3-0.9,1v1.8h-1v-4.9h1v1.7c0.3-0.3,0.7-0.4,1.1-0.4
			C259.3,82.1,260,82.5,260,83.6z"/>
		<path d="M263.6,84.6l0.6,0.6c-0.3,0.4-0.8,0.6-1.5,0.6c-1.2,0-2-0.8-2-1.8c0-1.1,0.8-1.8,1.9-1.8c1,0,1.8,0.7,1.8,1.8l-2.6,0.5
			c0.2,0.4,0.5,0.5,1,0.5C263.1,84.9,263.4,84.8,263.6,84.6z M261.7,83.8l1.7-0.3c-0.1-0.4-0.4-0.6-0.8-0.6
			C262.1,82.8,261.7,83.2,261.7,83.8z"/>
		<path d="M267.8,84.6l0.6,0.6c-0.3,0.4-0.8,0.6-1.5,0.6c-1.2,0-2-0.8-2-1.8c0-1.1,0.8-1.8,1.9-1.8c1,0,1.8,0.7,1.8,1.8l-2.6,0.5
			c0.2,0.4,0.5,0.5,1,0.5C267.3,84.9,267.6,84.8,267.8,84.6z M265.9,83.8l1.7-0.3c-0.1-0.4-0.4-0.6-0.8-0.6
			C266.3,82.8,265.9,83.2,265.9,83.8z"/>
		<path d="M271.6,82.1v1c-0.1,0-0.2,0-0.2,0c-0.6,0-1,0.3-1,1v1.7h-1v-3.6h1v0.5C270.6,82.2,271,82.1,271.6,82.1z"/>
		<path d="M271.8,85.4l0.3-0.7c0.3,0.2,0.8,0.3,1.2,0.3c0.5,0,0.7-0.1,0.7-0.3c0-0.6-2.2,0-2.2-1.4c0-0.7,0.6-1.2,1.7-1.2
			c0.5,0,1,0.1,1.4,0.3l-0.3,0.7c-0.4-0.2-0.7-0.3-1-0.3c-0.5,0-0.7,0.1-0.7,0.3c0,0.6,2.2,0,2.2,1.4c0,0.7-0.6,1.1-1.7,1.1
			C272.8,85.7,272.2,85.6,271.8,85.4z"/>
		<path d="M275.6,81c0-0.3,0.3-0.6,0.6-0.6s0.6,0.2,0.6,0.6c0,0.3-0.3,0.6-0.6,0.6S275.6,81.4,275.6,81z M275.7,82.1h1v3.6h-1V82.1z
			"/>
		<path d="M281.4,83.6v2h-1v-1.9c0-0.6-0.3-0.8-0.7-0.8c-0.5,0-0.9,0.3-0.9,1v1.8h-1v-3.6h1v0.4c0.3-0.3,0.7-0.5,1.2-0.5
			C280.7,82.1,281.4,82.5,281.4,83.6z"/>
		<path d="M286.1,82.1v3c0,1.3-0.7,1.9-2,1.9c-0.7,0-1.3-0.2-1.8-0.5l0.4-0.7c0.3,0.2,0.8,0.4,1.3,0.4c0.7,0,1.1-0.3,1.1-1v-0.2
			c-0.3,0.3-0.7,0.4-1.1,0.4c-1,0-1.8-0.7-1.8-1.7s0.8-1.7,1.8-1.7c0.5,0,0.9,0.2,1.2,0.5v-0.5H286.1z M285,83.8
			c0-0.5-0.4-0.9-0.9-0.9c-0.5,0-0.9,0.4-0.9,0.9c0,0.5,0.4,0.9,0.9,0.9C284.6,84.7,285,84.3,285,83.8z"/>
	</g>
	<g>
		<path d="M207.2,104.5v2.9h0.8v0.9h-2.7v-0.9h0.8v-2.9h-0.8v-0.9h2.7v0.9H207.2z"/>
		<path d="M212.4,106.2v2h-1v-1.9c0-0.6-0.3-0.8-0.7-0.8c-0.5,0-0.9,0.3-0.9,1v1.8h-1v-3.6h1v0.4c0.3-0.3,0.7-0.5,1.2-0.5
			C211.7,104.6,212.4,105.1,212.4,106.2z"/>
		<path d="M215.5,108.1c-0.2,0.2-0.5,0.2-0.8,0.2c-0.9,0-1.3-0.4-1.3-1.3v-3.1h1v0.9h0.9v0.8h-0.9v1.5c0,0.3,0.2,0.5,0.4,0.5
			c0.2,0,0.3,0,0.4-0.1L215.5,108.1z"/>
		<path d="M218.7,107.1l0.6,0.6c-0.3,0.4-0.8,0.6-1.5,0.6c-1.2,0-2-0.8-2-1.8c0-1.1,0.8-1.8,1.9-1.8c1,0,1.8,0.7,1.8,1.8l-2.6,0.5
			c0.2,0.4,0.5,0.5,1,0.5C218.1,107.5,218.4,107.4,218.7,107.1z M216.7,106.4l1.7-0.3c-0.1-0.4-0.4-0.6-0.8-0.6
			C217.1,105.4,216.7,105.7,216.7,106.4z"/>
		<path d="M223.8,104.7v3c0,1.3-0.7,1.9-2,1.9c-0.7,0-1.3-0.2-1.8-0.5l0.4-0.7c0.3,0.2,0.8,0.4,1.3,0.4c0.7,0,1.1-0.3,1.1-1v-0.2
			c-0.3,0.3-0.7,0.4-1.1,0.4c-1,0-1.8-0.7-1.8-1.7s0.8-1.7,1.8-1.7c0.5,0,0.9,0.2,1.2,0.5v-0.5H223.8z M222.8,106.3
			c0-0.5-0.4-0.9-0.9-0.9c-0.5,0-0.9,0.4-0.9,0.9c0,0.5,0.4,0.9,0.9,0.9C222.4,107.2,222.8,106.9,222.8,106.3z"/>
		<path d="M227,104.6v1c-0.1,0-0.2,0-0.2,0c-0.6,0-1,0.3-1,1v1.7h-1v-3.6h1v0.5C226.1,104.8,226.5,104.6,227,104.6z"/>
		<path d="M231.3,104.7v3.6h-1v-0.4c-0.3,0.3-0.6,0.5-1.1,0.5c-1,0-1.8-0.7-1.8-1.8c0-1.1,0.8-1.8,1.8-1.8c0.4,0,0.8,0.1,1.1,0.4
			v-0.4H231.3z M230.2,106.5c0-0.6-0.4-1-0.9-1c-0.5,0-0.9,0.4-0.9,1s0.4,1,0.9,1C229.8,107.5,230.2,107.1,230.2,106.5z"/>
		<path d="M235.8,104.7v3.6h-1v-0.4c-0.3,0.3-0.6,0.5-1.1,0.5c-1,0-1.8-0.7-1.8-1.8c0-1.1,0.8-1.8,1.8-1.8c0.4,0,0.8,0.1,1.1,0.4
			v-0.4H235.8z M234.8,106.5c0-0.6-0.4-1-0.9-1c-0.5,0-0.9,0.4-0.9,1s0.4,1,0.9,1C234.4,107.5,234.8,107.1,234.8,106.5z"/>
		<path d="M236.8,107.1v-3.8h1v3.7c0,0.3,0.2,0.5,0.4,0.5c0.1,0,0.2,0,0.3-0.1l0,0.8c-0.2,0.1-0.4,0.1-0.5,0.1
			C237.3,108.3,236.8,107.9,236.8,107.1z"/>
		<path d="M245.1,105.3c0,1-0.8,1.7-2,1.7h-0.9v1.3h-1.1v-4.7h2C244.4,103.6,245.1,104.2,245.1,105.3z M244,105.3
			c0-0.5-0.3-0.8-1-0.8h-0.9v1.6h0.9C243.7,106.1,244,105.8,244,105.3z"/>
		<path d="M248.1,104.6v1c-0.1,0-0.2,0-0.2,0c-0.6,0-1,0.3-1,1v1.7h-1v-3.6h1v0.5C247.1,104.8,247.5,104.6,248.1,104.6z"/>
		<path d="M248.4,106.5c0-1.1,0.8-1.8,2-1.8s2,0.8,2,1.8s-0.8,1.8-2,1.8S248.4,107.5,248.4,106.5z M251.3,106.5c0-0.6-0.4-1-0.9-1
			s-0.9,0.4-0.9,1s0.4,1,0.9,1S251.3,107.1,251.3,106.5z"/>
		<path d="M251.9,109.4l0.3-0.8c0.1,0.1,0.3,0.1,0.4,0.1c0.3,0,0.4-0.2,0.4-0.5v-3.6h1v3.6c0,0.8-0.5,1.4-1.4,1.4
			C252.4,109.6,252.1,109.5,251.9,109.4z M252.9,103.6c0-0.3,0.3-0.6,0.6-0.6c0.4,0,0.6,0.2,0.6,0.6c0,0.3-0.3,0.6-0.6,0.6
			C253.2,104.2,252.9,103.9,252.9,103.6z"/>
		<path d="M257.8,107.1l0.6,0.6c-0.3,0.4-0.8,0.6-1.5,0.6c-1.2,0-2-0.8-2-1.8c0-1.1,0.8-1.8,1.9-1.8c1,0,1.8,0.7,1.8,1.8l-2.6,0.5
			c0.2,0.4,0.5,0.5,1,0.5C257.2,107.5,257.5,107.4,257.8,107.1z M255.8,106.4l1.7-0.3c-0.1-0.4-0.4-0.6-0.8-0.6
			C256.2,105.4,255.8,105.7,255.8,106.4z"/>
		<path d="M259,106.5c0-1.1,0.8-1.8,2-1.8c0.8,0,1.3,0.3,1.6,0.9l-0.8,0.4c-0.2-0.3-0.5-0.5-0.8-0.5c-0.5,0-0.9,0.4-0.9,1
			s0.4,1,0.9,1c0.3,0,0.6-0.1,0.8-0.5l0.8,0.4c-0.3,0.6-0.9,0.9-1.6,0.9C259.8,108.3,259,107.5,259,106.5z"/>
		<path d="M265.3,108.1c-0.2,0.2-0.5,0.2-0.8,0.2c-0.9,0-1.3-0.4-1.3-1.3v-3.1h1v0.9h0.9v0.8h-0.9v1.5c0,0.3,0.2,0.5,0.4,0.5
			c0.2,0,0.3,0,0.4-0.1L265.3,108.1z"/>
	</g>
	<g>
		<path d="M65.1,144.8l0.4-0.8c0.4,0.3,1,0.5,1.5,0.5c0.6,0,0.9-0.2,0.9-0.5c0-0.9-2.7-0.3-2.7-2c0-0.8,0.6-1.5,2-1.5
			c0.6,0,1.2,0.1,1.6,0.4l-0.3,0.8c-0.4-0.2-0.9-0.4-1.3-0.4c-0.6,0-0.9,0.2-0.9,0.5c0,0.9,2.7,0.3,2.7,2c0,0.8-0.6,1.4-2,1.4
			C66.3,145.3,65.6,145.1,65.1,144.8z"/>
		<path d="M71.8,145.1c-0.2,0.2-0.5,0.2-0.8,0.2c-0.9,0-1.3-0.4-1.3-1.3v-3.1h1v0.9h0.9v0.8h-0.9v1.5c0,0.3,0.2,0.5,0.4,0.5
			c0.2,0,0.3,0,0.4-0.1L71.8,145.1z"/>
		<path d="M76,141.7v3.6h-1v-0.4c-0.3,0.3-0.6,0.5-1.1,0.5c-1,0-1.8-0.7-1.8-1.8c0-1.1,0.8-1.8,1.8-1.8c0.4,0,0.8,0.1,1.1,0.4v-0.4
			H76z M74.9,143.4c0-0.6-0.4-1-0.9-1c-0.5,0-0.9,0.4-0.9,1c0,0.6,0.4,1,0.9,1C74.5,144.4,74.9,144.1,74.9,143.4z"/>
		<path d="M80.6,141.7v3c0,1.3-0.7,1.9-2,1.9c-0.7,0-1.3-0.2-1.8-0.5l0.4-0.7c0.3,0.2,0.8,0.4,1.3,0.4c0.7,0,1.1-0.3,1.1-1v-0.2
			c-0.3,0.3-0.7,0.4-1.1,0.4c-1,0-1.8-0.7-1.8-1.7c0-1,0.8-1.7,1.8-1.7c0.5,0,0.9,0.2,1.2,0.5v-0.5H80.6z M79.6,143.3
			c0-0.5-0.4-0.9-0.9-0.9c-0.5,0-0.9,0.4-0.9,0.9c0,0.5,0.4,0.9,0.9,0.9C79.2,144.2,79.6,143.9,79.6,143.3z"/>
		<path d="M84.3,144.1l0.6,0.6c-0.3,0.4-0.8,0.6-1.5,0.6c-1.2,0-2-0.8-2-1.8c0-1.1,0.8-1.8,1.9-1.8c1,0,1.8,0.7,1.8,1.8l-2.6,0.5
			c0.2,0.4,0.5,0.5,1,0.5C83.8,144.5,84,144.3,84.3,144.1z M82.3,143.3l1.7-0.3c-0.1-0.4-0.4-0.6-0.8-0.6
			C82.7,142.4,82.3,142.7,82.3,143.3z"/>
		<path d="M87.7,143.4c0-1.2,0.3-2.3,0.8-3.1h1c-0.6,1-0.8,2-0.8,3.1c0,1.1,0.2,2.1,0.8,3.1h-1C88,145.7,87.7,144.6,87.7,143.4z"/>
		<path d="M93.9,143.4c0,1.1-0.8,1.8-1.8,1.8c-0.5,0-0.9-0.2-1.1-0.5v0.4h-1v-4.9h1v1.7c0.3-0.3,0.6-0.4,1.1-0.4
			C93.2,141.6,93.9,142.3,93.9,143.4z M92.9,143.4c0-0.6-0.4-1-0.9-1s-0.9,0.4-0.9,1c0,0.6,0.4,1,0.9,1S92.9,144.1,92.9,143.4z"/>
		<path d="M94.5,140.6c0-0.3,0.3-0.6,0.6-0.6s0.6,0.2,0.6,0.6c0,0.3-0.3,0.6-0.6,0.6S94.5,140.9,94.5,140.6z M94.6,141.7h1v3.6h-1
			V141.7z"/>
		<path d="M100.3,143.2v2h-1v-1.9c0-0.6-0.3-0.8-0.7-0.8c-0.5,0-0.9,0.3-0.9,1v1.8h-1v-3.6h1v0.4c0.3-0.3,0.7-0.5,1.2-0.5
			C99.7,141.6,100.3,142.1,100.3,143.2z"/>
		<path d="M104.9,143.2v2h-1v-1.9c0-0.6-0.3-0.8-0.7-0.8c-0.5,0-0.9,0.3-0.9,1v1.8h-1v-3.6h1v0.4c0.3-0.3,0.7-0.5,1.2-0.5
			C104.3,141.6,104.9,142.1,104.9,143.2z"/>
		<path d="M108.6,144.1l0.6,0.6c-0.3,0.4-0.8,0.6-1.5,0.6c-1.2,0-2-0.8-2-1.8c0-1.1,0.8-1.8,1.9-1.8c1,0,1.8,0.7,1.8,1.8l-2.6,0.5
			c0.2,0.4,0.5,0.5,1,0.5C108.1,144.5,108.3,144.3,108.6,144.1z M106.6,143.3l1.7-0.3c-0.1-0.4-0.4-0.6-0.8-0.6
			C107,142.4,106.6,142.7,106.6,143.3z"/>
		<path d="M113.7,143.2v2h-1v-1.9c0-0.6-0.3-0.8-0.7-0.8c-0.5,0-0.9,0.3-0.9,1v1.8h-1v-3.6h1v0.4c0.3-0.3,0.7-0.5,1.2-0.5
			C113.1,141.6,113.7,142.1,113.7,143.2z"/>
		<path d="M114.7,144.1v-3.8h1v3.7c0,0.3,0.2,0.5,0.4,0.5c0.1,0,0.2,0,0.3-0.1l0,0.8c-0.2,0.1-0.4,0.1-0.5,0.1
			C115.2,145.3,114.7,144.9,114.7,144.1z"/>
		<path d="M120.6,141.7v3.6h-1v-0.4c-0.3,0.3-0.6,0.5-1.1,0.5c-1,0-1.8-0.7-1.8-1.8c0-1.1,0.8-1.8,1.8-1.8c0.4,0,0.8,0.1,1.1,0.4
			v-0.4H120.6z M119.6,143.4c0-0.6-0.4-1-0.9-1c-0.5,0-0.9,0.4-0.9,1c0,0.6,0.4,1,0.9,1C119.2,144.4,119.6,144.1,119.6,143.4z"/>
		<path d="M125.2,143.2v2h-1v-1.9c0-0.6-0.3-0.8-0.7-0.8c-0.5,0-0.9,0.3-0.9,1v1.8h-1v-3.6h1v0.4c0.3-0.3,0.7-0.5,1.2-0.5
			C124.6,141.6,125.2,142.1,125.2,143.2z"/>
		<path d="M129.8,140.3v4.9h-1v-0.4c-0.3,0.3-0.6,0.5-1.1,0.5c-1,0-1.8-0.7-1.8-1.8c0-1.1,0.8-1.8,1.8-1.8c0.4,0,0.8,0.1,1.1,0.4
			v-1.7H129.8z M128.8,143.4c0-0.6-0.4-1-0.9-1c-0.5,0-0.9,0.4-0.9,1c0,0.6,0.4,1,0.9,1C128.4,144.4,128.8,144.1,128.8,143.4z"/>
		<path d="M130.4,146.5c0.6-1,0.8-2,0.8-3.1c0-1.1-0.2-2.1-0.8-3.1h1c0.5,0.8,0.8,1.9,0.8,3.1c0,1.2-0.3,2.3-0.8,3.1H130.4z"/>
	</g>
	<g>
		<path d="M174.7,135.7l0.3-0.8c0.3,0.3,0.8,0.5,1.2,0.5c0.5,0,0.7-0.2,0.7-0.5c0-0.9-2.1-0.3-2.1-2c0-0.8,0.5-1.5,1.5-1.5
			c0.5,0,0.9,0.1,1.3,0.4l-0.3,0.8c-0.3-0.2-0.7-0.4-1-0.4c-0.5,0-0.7,0.2-0.7,0.5c0,0.9,2.1,0.3,2.1,2c0,0.8-0.5,1.4-1.5,1.4
			C175.6,136.2,175,136,174.7,135.7z"/>
		<path d="M181.2,134.4c0,1.1-0.6,1.8-1.4,1.8c-0.3,0-0.6-0.1-0.8-0.4v1.7h-0.8v-4.9h0.8v0.4c0.2-0.3,0.5-0.5,0.9-0.5
			C180.6,132.5,181.2,133.2,181.2,134.4z M180.4,134.4c0-0.6-0.3-1-0.7-1s-0.7,0.4-0.7,1s0.3,1,0.7,1S180.4,135,180.4,134.4z"/>
		<path d="M183.9,135l0.4,0.6c-0.3,0.4-0.6,0.6-1.1,0.6c-1,0-1.6-0.8-1.6-1.8c0-1.1,0.6-1.8,1.5-1.8c0.8,0,1.4,0.7,1.4,1.8l-2.1,0.5
			c0.1,0.4,0.4,0.5,0.7,0.5C183.5,135.4,183.7,135.3,183.9,135z M182.3,134.3l1.4-0.3c-0.1-0.4-0.3-0.6-0.7-0.6
			C182.6,133.3,182.4,133.7,182.3,134.3z"/>
		<path d="M184.8,134.4c0-1.1,0.6-1.8,1.5-1.8c0.6,0,1,0.3,1.2,0.9l-0.6,0.4c-0.1-0.3-0.4-0.5-0.6-0.5c-0.4,0-0.7,0.4-0.7,1
			s0.3,1,0.7,1c0.3,0,0.5-0.1,0.6-0.5l0.6,0.4c-0.2,0.6-0.7,0.9-1.2,0.9C185.5,136.2,184.8,135.4,184.8,134.4z"/>
		<path d="M188,131.5c0-0.3,0.2-0.6,0.5-0.6c0.3,0,0.5,0.2,0.5,0.6c0,0.3-0.2,0.6-0.5,0.6C188.2,132.1,188,131.8,188,131.5z
			 M188.1,132.6h0.8v3.6h-0.8V132.6z"/>
		<path d="M192.4,132.6v3.6h-0.8v-0.4c-0.2,0.3-0.5,0.5-0.9,0.5c-0.8,0-1.4-0.7-1.4-1.8s0.6-1.8,1.4-1.8c0.3,0,0.6,0.1,0.8,0.4v-0.4
			H192.4z M191.6,134.4c0-0.6-0.3-1-0.7-1c-0.4,0-0.7,0.4-0.7,1s0.3,1,0.7,1C191.3,135.4,191.6,135,191.6,134.4z"/>
		<path d="M193.2,135v-3.8h0.8v3.7c0,0.3,0.1,0.5,0.3,0.5c0.1,0,0.2,0,0.2-0.1l0,0.8c-0.1,0.1-0.3,0.1-0.4,0.1
			C193.5,136.2,193.2,135.8,193.2,135z"/>
		<path d="M194.9,131.5c0-0.3,0.2-0.6,0.5-0.6c0.3,0,0.5,0.2,0.5,0.6c0,0.3-0.2,0.6-0.5,0.6C195.1,132.1,194.9,131.8,194.9,131.5z
			 M195,132.6h0.8v3.6H195V132.6z"/>
		<path d="M196.3,135.8l0.3-0.7c0.2,0.2,0.6,0.3,1,0.3c0.4,0,0.5-0.1,0.5-0.3c0-0.6-1.7,0-1.7-1.4c0-0.7,0.5-1.2,1.3-1.2
			c0.4,0,0.8,0.1,1.1,0.3l-0.3,0.7c-0.3-0.2-0.5-0.3-0.8-0.3c-0.4,0-0.5,0.1-0.5,0.3c0,0.6,1.7,0,1.7,1.4c0,0.7-0.5,1.1-1.3,1.1
			C197,136.2,196.5,136,196.3,135.8z"/>
		<path d="M202.1,132.6v3.6h-0.8v-0.4c-0.2,0.3-0.5,0.5-0.9,0.5c-0.8,0-1.4-0.7-1.4-1.8s0.6-1.8,1.4-1.8c0.3,0,0.6,0.1,0.8,0.4v-0.4
			H202.1z M201.3,134.4c0-0.6-0.3-1-0.7-1c-0.4,0-0.7,0.4-0.7,1s0.3,1,0.7,1C201,135.4,201.3,135,201.3,134.4z"/>
		<path d="M204.5,136c-0.2,0.2-0.4,0.2-0.6,0.2c-0.7,0-1-0.4-1-1.3v-3.1h0.8v0.9h0.7v0.8h-0.7v1.5c0,0.3,0.1,0.5,0.3,0.5
			c0.1,0,0.2,0,0.3-0.1L204.5,136z"/>
		<path d="M204.8,131.5c0-0.3,0.2-0.6,0.5-0.6c0.3,0,0.5,0.2,0.5,0.6c0,0.3-0.2,0.6-0.5,0.6C205,132.1,204.8,131.8,204.8,131.5z
			 M204.9,132.6h0.8v3.6h-0.8V132.6z"/>
		<path d="M208.6,135l0.4,0.6c-0.3,0.4-0.6,0.6-1.1,0.6c-1,0-1.6-0.8-1.6-1.8c0-1.1,0.6-1.8,1.5-1.8c0.8,0,1.4,0.7,1.4,1.8l-2.1,0.5
			c0.1,0.4,0.4,0.5,0.7,0.5C208.2,135.4,208.4,135.3,208.6,135z M207.1,134.3l1.4-0.3c-0.1-0.4-0.3-0.6-0.7-0.6
			C207.4,133.3,207.1,133.7,207.1,134.3z"/>
		<path d="M174.6,144.1h2.6v0.6h-2.6V144.1z"/>
		<path d="M178.4,141.3v0.3h1.5v0.9h-1.5v1.7h-0.8v-2.8c0-1.2,0.6-1.9,1.7-1.9c0.4,0,0.8,0.1,1.1,0.3l-0.3,0.9
			c-0.2-0.2-0.5-0.3-0.7-0.3C178.7,140.3,178.4,140.7,178.4,141.3z"/>
		<path d="M183.3,140.6v3c0,1.3-0.5,1.9-1.5,1.9c-0.5,0-1-0.2-1.3-0.5l0.3-0.7c0.2,0.2,0.6,0.4,0.9,0.4c0.5,0,0.8-0.3,0.8-1v-0.1
			c-0.2,0.3-0.5,0.4-0.8,0.4c-0.7,0-1.2-0.5-1.2-1.6v-1.8h0.8v1.6c0,0.6,0.2,0.9,0.6,0.9c0.4,0,0.6-0.3,0.6-1v-1.5H183.3z"/>
		<path d="M183.8,143.8l0.3-0.7c0.2,0.2,0.6,0.3,1,0.3c0.4,0,0.5-0.1,0.5-0.3c0-0.6-1.7,0-1.7-1.4c0-0.7,0.5-1.2,1.3-1.2
			c0.4,0,0.8,0.1,1.1,0.3l-0.3,0.7c-0.3-0.2-0.5-0.3-0.8-0.3c-0.4,0-0.5,0.1-0.5,0.3c0,0.6,1.7,0,1.7,1.4c0,0.7-0.5,1.1-1.3,1.1
			C184.5,144.2,184.1,144,183.8,143.8z"/>
		<path d="M186.7,139.5c0-0.3,0.2-0.6,0.5-0.6c0.3,0,0.5,0.2,0.5,0.6c0,0.3-0.2,0.6-0.5,0.6C186.9,140.1,186.7,139.8,186.7,139.5z
			 M186.8,140.6h0.8v3.6h-0.8V140.6z"/>
		<path d="M188.1,143.8l0.3-0.7c0.2,0.2,0.6,0.3,1,0.3c0.4,0,0.5-0.1,0.5-0.3c0-0.6-1.7,0-1.7-1.4c0-0.7,0.5-1.2,1.3-1.2
			c0.4,0,0.8,0.1,1.1,0.3l-0.3,0.7c-0.3-0.2-0.5-0.3-0.8-0.3c-0.4,0-0.5,0.1-0.5,0.3c0,0.6,1.7,0,1.7,1.4c0,0.7-0.5,1.1-1.3,1.1
			C188.8,144.2,188.4,144,188.1,143.8z"/>
		<path d="M190.9,142.4c0-1.1,0.6-1.8,1.5-1.8c0.6,0,1,0.3,1.2,0.9l-0.6,0.4c-0.1-0.3-0.4-0.5-0.6-0.5c-0.4,0-0.7,0.4-0.7,1
			c0,0.6,0.3,1,0.7,1c0.3,0,0.5-0.1,0.6-0.5l0.6,0.4c-0.2,0.6-0.7,0.9-1.2,0.9C191.5,144.2,190.9,143.4,190.9,142.4z"/>
		<path d="M197,142.1v2h-0.8v-1.9c0-0.6-0.2-0.8-0.6-0.8c-0.4,0-0.7,0.3-0.7,1v1.8h-0.8v-4.9h0.8v1.7c0.2-0.3,0.5-0.4,0.9-0.4
			C196.5,140.5,197,141,197,142.1z"/>
		<path d="M199.8,143l0.4,0.6c-0.3,0.4-0.6,0.6-1.1,0.6c-1,0-1.6-0.8-1.6-1.8c0-1.1,0.6-1.8,1.5-1.8c0.8,0,1.4,0.7,1.4,1.8l-2.1,0.5
			c0.1,0.4,0.4,0.5,0.7,0.5C199.4,143.4,199.6,143.3,199.8,143z M198.3,142.3l1.4-0.3c-0.1-0.4-0.3-0.6-0.7-0.6
			C198.6,141.3,198.3,141.6,198.3,142.3z"/>
		<path d="M204.9,141.7h0.8v2.4h-0.6v-0.3c-0.3,0.2-0.6,0.4-1,0.4c-1,0-1.8-0.8-1.8-2.4c0-1.4,0.8-2.4,2-2.4c0.6,0,1.2,0.3,1.5,0.8
			l-0.5,0.6c-0.3-0.4-0.6-0.5-0.9-0.5c-0.7,0-1.2,0.6-1.2,1.5c0,1,0.5,1.5,1.1,1.5c0.3,0,0.5-0.1,0.7-0.3V141.7z"/>
		<path d="M208.5,143l0.4,0.6c-0.3,0.4-0.6,0.6-1.1,0.6c-1,0-1.6-0.8-1.6-1.8c0-1.1,0.6-1.8,1.5-1.8c0.8,0,1.4,0.7,1.4,1.8l-2.1,0.5
			c0.1,0.4,0.4,0.5,0.7,0.5C208.1,143.4,208.3,143.3,208.5,143z M207,142.3l1.4-0.3c-0.1-0.4-0.3-0.6-0.7-0.6
			C207.3,141.3,207,141.6,207,142.3z"/>
		<path d="M209.4,142.4c0-1.1,0.6-1.8,1.5-1.8c0.9,0,1.5,0.8,1.5,1.8c0,1.1-0.6,1.8-1.5,1.8C210.1,144.2,209.4,143.4,209.4,142.4z
			 M211.7,142.4c0-0.6-0.3-1-0.7-1c-0.4,0-0.7,0.4-0.7,1c0,0.6,0.3,1,0.7,1C211.4,143.3,211.7,143,211.7,142.4z"/>
		<path d="M217.7,142.1v2h-0.8v-1.9c0-0.6-0.2-0.8-0.5-0.8c-0.4,0-0.6,0.3-0.6,0.9v1.8H215v-1.9c0-0.6-0.2-0.8-0.5-0.8
			c-0.4,0-0.6,0.3-0.6,0.9v1.8H213v-3.6h0.8v0.4c0.2-0.3,0.5-0.5,0.9-0.5c0.4,0,0.7,0.2,0.9,0.6c0.2-0.4,0.6-0.6,1-0.6
			C217.2,140.5,217.7,141,217.7,142.1z"/>
		<path d="M220.5,143l0.4,0.6c-0.3,0.4-0.6,0.6-1.1,0.6c-1,0-1.6-0.8-1.6-1.8c0-1.1,0.6-1.8,1.5-1.8c0.8,0,1.4,0.7,1.4,1.8l-2.1,0.5
			c0.1,0.4,0.4,0.5,0.7,0.5C220.1,143.4,220.4,143.3,220.5,143z M219,142.3l1.4-0.3c-0.1-0.4-0.3-0.6-0.7-0.6
			C219.3,141.3,219,141.6,219,142.3z"/>
		<path d="M224.5,139.2v4.9h-0.8v-0.4c-0.2,0.3-0.5,0.5-0.9,0.5c-0.8,0-1.4-0.7-1.4-1.8c0-1.1,0.6-1.8,1.4-1.8
			c0.3,0,0.6,0.1,0.8,0.4v-1.7H224.5z M223.7,142.4c0-0.6-0.3-1-0.7-1c-0.4,0-0.7,0.4-0.7,1c0,0.6,0.3,1,0.7,1
			C223.4,143.3,223.7,143,223.7,142.4z"/>
		<path d="M225.2,139.5c0-0.3,0.2-0.6,0.5-0.6c0.3,0,0.5,0.2,0.5,0.6c0,0.3-0.2,0.6-0.5,0.6C225.4,140.1,225.2,139.8,225.2,139.5z
			 M225.3,140.6h0.8v3.6h-0.8V140.6z"/>
		<path d="M229.6,140.6v3.6h-0.8v-0.4c-0.2,0.3-0.5,0.5-0.9,0.5c-0.8,0-1.4-0.7-1.4-1.8c0-1.1,0.6-1.8,1.4-1.8
			c0.3,0,0.6,0.1,0.8,0.4v-0.4H229.6z M228.8,142.4c0-0.6-0.3-1-0.7-1c-0.4,0-0.7,0.4-0.7,1c0,0.6,0.3,1,0.7,1
			C228.5,143.3,228.8,143,228.8,142.4z"/>
		<path d="M174.6,152.1h2.6v0.6h-2.6V152.1z"/>
		<path d="M177.4,151.7l0.3-0.8c0.3,0.3,0.8,0.5,1.2,0.5c0.5,0,0.7-0.2,0.7-0.5c0-0.9-2.1-0.3-2.1-2c0-0.8,0.5-1.5,1.5-1.5
			c0.5,0,0.9,0.1,1.3,0.4l-0.3,0.8c-0.3-0.2-0.7-0.4-1-0.4c-0.5,0-0.7,0.2-0.7,0.5c0,0.9,2.1,0.3,2.1,2c0,0.8-0.5,1.4-1.5,1.4
			C178.3,152.2,177.7,152,177.4,151.7z"/>
		<path d="M182.6,152c-0.2,0.2-0.4,0.2-0.6,0.2c-0.7,0-1-0.4-1-1.3v-3.1h0.8v0.9h0.7v0.8h-0.7v1.5c0,0.3,0.1,0.5,0.3,0.5
			c0.1,0,0.2,0,0.3-0.1L182.6,152z"/>
		<path d="M185,151l0.4,0.6c-0.3,0.4-0.6,0.6-1.1,0.6c-1,0-1.6-0.8-1.6-1.8c0-1.1,0.6-1.8,1.5-1.8c0.8,0,1.4,0.7,1.4,1.8l-2.1,0.5
			c0.1,0.4,0.4,0.5,0.7,0.5C184.6,151.4,184.8,151.2,185,151z M183.5,150.2l1.4-0.3c-0.1-0.4-0.3-0.6-0.7-0.6
			C183.8,149.3,183.5,149.6,183.5,150.2z"/>
		<path d="M189,147.2v4.9h-0.8v-0.4c-0.2,0.3-0.5,0.5-0.9,0.5c-0.8,0-1.4-0.7-1.4-1.8c0-1.1,0.6-1.8,1.4-1.8c0.3,0,0.6,0.1,0.8,0.4
			v-1.7H189z M188.2,150.3c0-0.6-0.3-1-0.7-1c-0.4,0-0.7,0.4-0.7,1c0,0.6,0.3,1,0.7,1C187.9,151.3,188.2,151,188.2,150.3z"/>
		<path d="M191.8,151l0.4,0.6c-0.3,0.4-0.6,0.6-1.1,0.6c-1,0-1.6-0.8-1.6-1.8c0-1.1,0.6-1.8,1.5-1.8c0.8,0,1.4,0.7,1.4,1.8l-2.1,0.5
			c0.1,0.4,0.4,0.5,0.7,0.5C191.4,151.4,191.6,151.2,191.8,151z M190.3,150.2l1.4-0.3c-0.1-0.4-0.3-0.6-0.7-0.6
			C190.6,149.3,190.3,149.6,190.3,150.2z"/>
		<path d="M193,151v-3.8h0.8v3.7c0,0.3,0.1,0.5,0.3,0.5c0.1,0,0.2,0,0.2-0.1l0,0.8c-0.1,0.1-0.3,0.1-0.4,0.1
			C193.4,152.2,193,151.8,193,151z"/>
		<path d="M194.7,147.5c0-0.3,0.2-0.6,0.5-0.6c0.3,0,0.5,0.2,0.5,0.6c0,0.3-0.2,0.6-0.5,0.6C194.9,148.1,194.7,147.8,194.7,147.5z
			 M194.8,148.6h0.8v3.6h-0.8V148.6z"/>
		<path d="M195.5,153.3l0.2-0.8c0.1,0.1,0.2,0.1,0.3,0.1c0.2,0,0.3-0.2,0.3-0.5v-3.6h0.8v3.6c0,0.8-0.4,1.4-1,1.4
			C195.9,153.5,195.6,153.4,195.5,153.3z M196.3,147.5c0-0.3,0.2-0.6,0.5-0.6c0.3,0,0.5,0.2,0.5,0.6c0,0.3-0.2,0.6-0.5,0.6
			C196.5,148.1,196.3,147.8,196.3,147.5z"/>
		<path d="M199.1,150.7l-0.4,0.5v0.9h-0.8v-4.9h0.8v2.8l1.2-1.4h1l-1.2,1.5l1.3,2.1h-1L199.1,150.7z"/>
		<path d="M205.3,149.7h0.8v2.4h-0.6v-0.3c-0.3,0.2-0.6,0.4-1,0.4c-1,0-1.8-0.8-1.8-2.4c0-1.4,0.8-2.4,2-2.4c0.6,0,1.2,0.3,1.5,0.8
			l-0.5,0.6c-0.3-0.4-0.6-0.5-0.9-0.5c-0.7,0-1.2,0.6-1.2,1.5c0,1,0.5,1.5,1.1,1.5c0.3,0,0.5-0.1,0.7-0.3V149.7z"/>
		<path d="M208.8,151l0.4,0.6c-0.3,0.4-0.6,0.6-1.1,0.6c-1,0-1.6-0.8-1.6-1.8c0-1.1,0.6-1.8,1.5-1.8c0.8,0,1.4,0.7,1.4,1.8l-2.1,0.5
			c0.1,0.4,0.4,0.5,0.7,0.5C208.4,151.4,208.7,151.2,208.8,151z M207.3,150.2l1.4-0.3c-0.1-0.4-0.3-0.6-0.7-0.6
			C207.6,149.3,207.4,149.6,207.3,150.2z"/>
		<path d="M209.8,150.3c0-1.1,0.6-1.8,1.5-1.8c0.9,0,1.5,0.8,1.5,1.8c0,1.1-0.6,1.8-1.5,1.8C210.4,152.2,209.8,151.4,209.8,150.3z
			 M212,150.3c0-0.6-0.3-1-0.7-1c-0.4,0-0.7,0.4-0.7,1c0,0.6,0.3,1,0.7,1C211.7,151.3,212,151,212,150.3z"/>
		<path d="M216.2,147.2v4.9h-0.8v-0.4c-0.2,0.3-0.5,0.5-0.9,0.5c-0.8,0-1.4-0.7-1.4-1.8c0-1.1,0.6-1.8,1.4-1.8
			c0.3,0,0.6,0.1,0.8,0.4v-1.7H216.2z M215.4,150.3c0-0.6-0.3-1-0.7-1c-0.4,0-0.7,0.4-0.7,1c0,0.6,0.3,1,0.7,1
			C215.1,151.3,215.4,151,215.4,150.3z"/>
		<path d="M219,151l0.4,0.6c-0.3,0.4-0.6,0.6-1.1,0.6c-1,0-1.6-0.8-1.6-1.8c0-1.1,0.6-1.8,1.5-1.8c0.8,0,1.4,0.7,1.4,1.8l-2.1,0.5
			c0.1,0.4,0.4,0.5,0.7,0.5C218.6,151.4,218.8,151.2,219,151z M217.5,150.2l1.4-0.3c-0.1-0.4-0.3-0.6-0.7-0.6
			C217.8,149.3,217.5,149.6,217.5,150.2z"/>
		<path d="M219.9,151.8l0.3-0.7c0.2,0.2,0.6,0.3,1,0.3c0.4,0,0.5-0.1,0.5-0.3c0-0.6-1.7,0-1.7-1.4c0-0.7,0.5-1.2,1.3-1.2
			c0.4,0,0.8,0.1,1.1,0.3l-0.3,0.7c-0.3-0.2-0.5-0.3-0.8-0.3c-0.4,0-0.5,0.1-0.5,0.3c0,0.6,1.7,0,1.7,1.4c0,0.7-0.5,1.1-1.3,1.1
			C220.7,152.2,220.2,152,219.9,151.8z"/>
		<path d="M222.8,147.5c0-0.3,0.2-0.6,0.5-0.6c0.3,0,0.5,0.2,0.5,0.6c0,0.3-0.2,0.6-0.5,0.6C223,148.1,222.8,147.8,222.8,147.5z
			 M222.9,148.6h0.8v3.6h-0.8V148.6z"/>
		<path d="M227.3,148.6v3c0,1.3-0.6,1.9-1.6,1.9c-0.5,0-1-0.2-1.4-0.5l0.3-0.7c0.2,0.2,0.6,0.4,1,0.4c0.6,0,0.8-0.3,0.8-1v-0.2
			c-0.2,0.3-0.5,0.4-0.9,0.4c-0.8,0-1.4-0.7-1.4-1.7c0-1,0.6-1.7,1.4-1.7c0.4,0,0.7,0.2,0.9,0.5v-0.5H227.3z M226.5,150.2
			c0-0.5-0.3-0.9-0.7-0.9s-0.7,0.4-0.7,0.9c0,0.5,0.3,0.9,0.7,0.9S226.5,150.8,226.5,150.2z"/>
		<path d="M230.9,150.1v2h-0.8v-1.9c0-0.6-0.2-0.8-0.6-0.8c-0.4,0-0.7,0.3-0.7,1v1.8h-0.8v-3.6h0.8v0.4c0.2-0.3,0.5-0.5,0.9-0.5
			C230.4,148.5,230.9,149,230.9,150.1z"/>
	</g>
	<g>
		<path d="M256.5,139.8l0.4-0.8c0.4,0.3,1,0.5,1.5,0.5c0.6,0,0.9-0.2,0.9-0.5c0-0.9-2.7-0.3-2.7-2c0-0.8,0.6-1.5,2-1.5
			c0.6,0,1.2,0.1,1.6,0.4l-0.3,0.8c-0.4-0.2-0.9-0.4-1.3-0.4c-0.6,0-0.9,0.2-0.9,0.5c0,0.9,2.7,0.3,2.7,2c0,0.8-0.6,1.4-2,1.4
			C257.7,140.3,256.9,140.1,256.5,139.8z"/>
		<path d="M263.2,140.1c-0.2,0.2-0.5,0.2-0.8,0.2c-0.9,0-1.3-0.4-1.3-1.3v-3.1h1v0.9h0.9v0.8h-0.9v1.5c0,0.3,0.2,0.5,0.4,0.5
			c0.2,0,0.3,0,0.4-0.1L263.2,140.1z"/>
		<path d="M267.3,136.7v3.6h-1v-0.4c-0.3,0.3-0.6,0.5-1.1,0.5c-1,0-1.8-0.7-1.8-1.8c0-1.1,0.8-1.8,1.8-1.8c0.4,0,0.8,0.1,1.1,0.4
			v-0.4H267.3z M266.3,138.4c0-0.6-0.4-1-0.9-1c-0.5,0-0.9,0.4-0.9,1c0,0.6,0.4,1,0.9,1C265.9,139.4,266.3,139.1,266.3,138.4z"/>
		<path d="M272,136.7v3c0,1.3-0.7,1.9-2,1.9c-0.7,0-1.3-0.2-1.8-0.5l0.4-0.7c0.3,0.2,0.8,0.4,1.3,0.4c0.7,0,1.1-0.3,1.1-1v-0.2
			c-0.3,0.3-0.7,0.4-1.1,0.4c-1,0-1.8-0.7-1.8-1.7c0-1,0.8-1.7,1.8-1.7c0.5,0,0.9,0.2,1.2,0.5v-0.5H272z M270.9,138.3
			c0-0.5-0.4-0.9-0.9-0.9c-0.5,0-0.9,0.4-0.9,0.9c0,0.5,0.4,0.9,0.9,0.9C270.5,139.2,270.9,138.9,270.9,138.3z"/>
		<path d="M275.6,139.1l0.6,0.6c-0.3,0.4-0.8,0.6-1.5,0.6c-1.2,0-2-0.8-2-1.8c0-1.1,0.8-1.8,1.9-1.8c1,0,1.8,0.7,1.8,1.8l-2.6,0.5
			c0.2,0.4,0.5,0.5,1,0.5C275.1,139.5,275.4,139.3,275.6,139.1z M273.7,138.3l1.7-0.3c-0.1-0.4-0.4-0.6-0.8-0.6
			C274.1,137.4,273.7,137.7,273.7,138.3z"/>
		<path d="M246.2,146.4c0-1.2,0.3-2.3,0.8-3.1h1c-0.6,1-0.8,2-0.8,3.1c0,1.1,0.2,2.1,0.8,3.1h-1
			C246.5,148.7,246.2,147.6,246.2,146.4z"/>
		<path d="M252.4,146.4c0,1.1-0.8,1.8-1.8,1.8c-0.5,0-0.9-0.2-1.1-0.5v0.4h-1v-4.9h1v1.7c0.3-0.3,0.6-0.4,1.1-0.4
			C251.7,144.6,252.4,145.3,252.4,146.4z M251.4,146.4c0-0.6-0.4-1-0.9-1s-0.9,0.4-0.9,1c0,0.6,0.4,1,0.9,1S251.4,147.1,251.4,146.4
			z"/>
		<path d="M256.7,144.6v3.6h-1v-0.4c-0.3,0.3-0.7,0.5-1.1,0.5c-0.9,0-1.5-0.5-1.5-1.6v-2h1v1.9c0,0.6,0.3,0.9,0.7,0.9
			c0.5,0,0.8-0.3,0.8-1v-1.8H256.7z"/>
		<path d="M257.6,143.6c0-0.3,0.3-0.6,0.6-0.6s0.6,0.2,0.6,0.6c0,0.3-0.3,0.6-0.6,0.6S257.6,143.9,257.6,143.6z M257.7,144.6h1v3.6
			h-1V144.6z"/>
		<path d="M261.9,148.1c-0.2,0.2-0.5,0.2-0.8,0.2c-0.9,0-1.3-0.4-1.3-1.3v-3.1h1v0.9h0.9v0.8h-0.9v1.5c0,0.3,0.2,0.5,0.4,0.5
			c0.2,0,0.3,0,0.4-0.1L261.9,148.1z"/>
		<path d="M265,147.1l0.6,0.6c-0.3,0.4-0.8,0.6-1.5,0.6c-1.2,0-2-0.8-2-1.8c0-1.1,0.8-1.8,1.9-1.8c1,0,1.8,0.7,1.8,1.8l-2.6,0.5
			c0.2,0.4,0.5,0.5,1,0.5C264.5,147.4,264.8,147.3,265,147.1z M263.1,146.3l1.7-0.3c-0.1-0.4-0.4-0.6-0.8-0.6
			C263.5,145.4,263.1,145.7,263.1,146.3z"/>
		<path d="M270.2,146.2v2h-1v-1.9c0-0.6-0.3-0.8-0.7-0.8c-0.5,0-0.9,0.3-0.9,1v1.8h-1v-3.6h1v0.4c0.3-0.3,0.7-0.5,1.2-0.5
			C269.6,144.6,270.2,145.1,270.2,146.2z"/>
		<path d="M271.1,147v-3.8h1v3.7c0,0.3,0.2,0.5,0.4,0.5c0.1,0,0.2,0,0.3-0.1l0,0.8c-0.2,0.1-0.4,0.1-0.5,0.1
			C271.6,148.3,271.1,147.8,271.1,147z"/>
		<path d="M277,144.6v3.6h-1v-0.4c-0.3,0.3-0.6,0.5-1.1,0.5c-1,0-1.8-0.7-1.8-1.8c0-1.1,0.8-1.8,1.8-1.8c0.4,0,0.8,0.1,1.1,0.4v-0.4
			H277z M276,146.4c0-0.6-0.4-1-0.9-1c-0.5,0-0.9,0.4-0.9,1c0,0.6,0.4,1,0.9,1C275.6,147.4,276,147.1,276,146.4z"/>
		<path d="M281.7,146.2v2h-1v-1.9c0-0.6-0.3-0.8-0.7-0.8c-0.5,0-0.9,0.3-0.9,1v1.8h-1v-3.6h1v0.4c0.3-0.3,0.7-0.5,1.2-0.5
			C281,144.6,281.7,145.1,281.7,146.2z"/>
		<path d="M286.3,143.3v4.9h-1v-0.4c-0.3,0.3-0.6,0.5-1.1,0.5c-1,0-1.8-0.7-1.8-1.8c0-1.1,0.8-1.8,1.8-1.8c0.4,0,0.8,0.1,1.1,0.4
			v-1.7H286.3z M285.3,146.4c0-0.6-0.4-1-0.9-1c-0.5,0-0.9,0.4-0.9,1c0,0.6,0.4,1,0.9,1C284.9,147.4,285.3,147.1,285.3,146.4z"/>
		<path d="M286.8,149.5c0.6-1,0.8-2,0.8-3.1c0-1.1-0.2-2.1-0.8-3.1h1c0.5,0.8,0.8,1.9,0.8,3.1c0,1.2-0.3,2.3-0.8,3.1H286.8z"/>
	</g>
	<g>
		<path class="st0" d="M55,180.6v2.9h-1.1v-2.8c0-0.7-0.4-1-0.9-1c-0.6,0-1,0.3-1,1.1v2.8h-1.1v-2.8c0-0.7-0.4-1-0.9-1
			c-0.6,0-1,0.3-1,1.1v2.8h-1.1v-4.7h1v0.6c0.3-0.4,0.8-0.7,1.4-0.7c0.6,0,1.1,0.2,1.4,0.7c0.3-0.4,0.9-0.7,1.5-0.7
			C54.3,178.7,55,179.4,55,180.6z"/>
		<path class="st0" d="M55.8,178.8c0-0.3,0.3-0.6,0.6-0.6s0.6,0.2,0.6,0.6c0,0.3-0.3,0.6-0.6,0.6S55.8,179.2,55.8,178.8z M56,179.9
			h1v3.6h-1V179.9z"/>
		<path class="st0" d="M61.6,181.4v2h-1v-1.9c0-0.6-0.3-0.8-0.7-0.8c-0.5,0-0.9,0.3-0.9,1v1.8h-1v-3.6h1v0.4
			c0.3-0.3,0.7-0.5,1.2-0.5C61,179.8,61.6,180.3,61.6,181.4z"/>
		<path class="st0" d="M62.3,181.7c0-1.1,0.8-1.8,2-1.8s2,0.8,2,1.8c0,1.1-0.8,1.8-2,1.8S62.3,182.8,62.3,181.7z M65.2,181.7
			c0-0.6-0.4-1-0.9-1s-0.9,0.4-0.9,1c0,0.6,0.4,1,0.9,1S65.2,182.3,65.2,181.7z"/>
		<path class="st0" d="M69.2,179.8v1c-0.1,0-0.2,0-0.2,0c-0.6,0-1,0.3-1,1v1.7h-1v-3.6h1v0.5C68.2,180,68.6,179.8,69.2,179.8z"/>
		<path class="st0" d="M71.7,181.7c0-1.2,0.3-2.3,0.8-3.1h1c-0.6,1-0.8,2-0.8,3.1c0,1.1,0.2,2.1,0.8,3.1h-1
			C72,184,71.7,182.9,71.7,181.7z"/>
		<path class="st0" d="M77.3,181.1h1v2.4h-0.8v-0.3c-0.3,0.2-0.8,0.4-1.3,0.4c-1.3,0-2.4-0.8-2.4-2.4c0-1.4,1.1-2.4,2.6-2.4
			c0.8,0,1.5,0.3,1.9,0.8l-0.7,0.6c-0.3-0.4-0.7-0.5-1.2-0.5c-0.9,0-1.5,0.6-1.5,1.5c0,1,0.7,1.5,1.4,1.5c0.4,0,0.7-0.1,1-0.3V181.1
			z"/>
		<path class="st0" d="M81.5,179.8v1c-0.1,0-0.2,0-0.2,0c-0.6,0-1,0.3-1,1v1.7h-1v-3.6h1v0.5C80.5,180,80.9,179.8,81.5,179.8z"/>
		<path class="st0" d="M81.8,181.7c0-1.1,0.8-1.8,2-1.8s2,0.8,2,1.8c0,1.1-0.8,1.8-2,1.8S81.8,182.8,81.8,181.7z M84.7,181.7
			c0-0.6-0.4-1-0.9-1s-0.9,0.4-0.9,1c0,0.6,0.4,1,0.9,1S84.7,182.3,84.7,181.7z"/>
		<path class="st0" d="M92.1,179.9v2c0,1.1-0.6,1.7-1.7,1.7c-0.5,0-0.9-0.1-1.2-0.5c-0.3,0.4-0.7,0.5-1.2,0.5
			c-1.1,0-1.7-0.6-1.7-1.7v-2h1v1.9c0,0.6,0.2,0.9,0.6,0.9s0.7-0.3,0.7-0.9v-1.9h1v1.9c0,0.6,0.2,0.9,0.7,0.9s0.6-0.3,0.6-0.9v-1.9
			H92.1z"/>
		<path class="st0" d="M92.9,178.8c0-0.3,0.3-0.6,0.6-0.6s0.6,0.2,0.6,0.6c0,0.3-0.3,0.6-0.6,0.6S92.9,179.2,92.9,178.8z M93,179.9
			h1v3.6h-1V179.9z"/>
		<path class="st0" d="M98.7,181.4v2h-1v-1.9c0-0.6-0.3-0.8-0.7-0.8c-0.5,0-0.9,0.3-0.9,1v1.8h-1v-3.6h1v0.4
			c0.3-0.3,0.7-0.5,1.2-0.5C98,179.8,98.7,180.3,98.7,181.4z"/>
		<path class="st0" d="M103.3,179.9v3c0,1.3-0.7,1.9-2,1.9c-0.7,0-1.3-0.2-1.8-0.5l0.4-0.7c0.3,0.2,0.8,0.4,1.3,0.4
			c0.7,0,1.1-0.3,1.1-1v-0.2c-0.3,0.3-0.7,0.4-1.1,0.4c-1,0-1.8-0.7-1.8-1.7c0-1,0.8-1.7,1.8-1.7c0.5,0,0.9,0.2,1.2,0.5v-0.5H103.3z
			 M102.3,181.6c0-0.5-0.4-0.9-0.9-0.9c-0.5,0-0.9,0.4-0.9,0.9c0,0.5,0.4,0.9,0.9,0.9C101.9,182.5,102.3,182.1,102.3,181.6z"/>
		<path class="st0" d="M109.4,181.1h1v2.4h-0.8v-0.3c-0.3,0.2-0.8,0.4-1.3,0.4c-1.3,0-2.4-0.8-2.4-2.4c0-1.4,1.1-2.4,2.6-2.4
			c0.8,0,1.5,0.3,1.9,0.8l-0.7,0.6c-0.3-0.4-0.7-0.5-1.2-0.5c-0.9,0-1.5,0.6-1.5,1.5c0,1,0.7,1.5,1.4,1.5c0.4,0,0.7-0.1,1-0.3V181.1
			z"/>
		<path class="st0" d="M113.5,179.8v1c-0.1,0-0.2,0-0.2,0c-0.6,0-1,0.3-1,1v1.7h-1v-3.6h1v0.5C112.6,180,113,179.8,113.5,179.8z"/>
		<path class="st0" d="M116.8,182.4l0.6,0.6c-0.3,0.4-0.8,0.6-1.5,0.6c-1.2,0-2-0.8-2-1.8c0-1.1,0.8-1.8,1.9-1.8
			c1,0,1.8,0.7,1.8,1.8l-2.6,0.5c0.2,0.4,0.5,0.5,1,0.5C116.3,182.7,116.6,182.6,116.8,182.4z M114.9,181.6l1.7-0.3
			c-0.1-0.4-0.4-0.6-0.8-0.6C115.3,180.6,114.9,181,114.9,181.6z"/>
		<path class="st0" d="M121,182.4l0.6,0.6c-0.3,0.4-0.8,0.6-1.5,0.6c-1.2,0-2-0.8-2-1.8c0-1.1,0.8-1.8,1.9-1.8c1,0,1.8,0.7,1.8,1.8
			l-2.6,0.5c0.2,0.4,0.5,0.5,1,0.5C120.5,182.7,120.8,182.6,121,182.4z M119.1,181.6l1.7-0.3c-0.1-0.4-0.4-0.6-0.8-0.6
			C119.5,180.6,119.1,181,119.1,181.6z"/>
		<path class="st0" d="M126.2,181.4v2h-1v-1.9c0-0.6-0.3-0.8-0.7-0.8c-0.5,0-0.9,0.3-0.9,1v1.8h-1v-3.6h1v0.4
			c0.3-0.3,0.7-0.5,1.2-0.5C125.6,179.8,126.2,180.3,126.2,181.4z"/>
		<path class="st0" d="M128.8,181.2c0-1.4,1.1-2.4,2.5-2.4c0.8,0,1.5,0.3,1.9,0.8l-0.7,0.6c-0.3-0.4-0.7-0.5-1.2-0.5
			c-0.9,0-1.5,0.6-1.5,1.5c0,0.9,0.6,1.5,1.5,1.5c0.5,0,0.9-0.2,1.2-0.6l0.7,0.6c-0.4,0.5-1.1,0.8-1.9,0.8
			C129.9,183.6,128.8,182.6,128.8,181.2z"/>
		<path class="st0" d="M133.8,178.8c0-0.3,0.3-0.6,0.6-0.6s0.6,0.2,0.6,0.6c0,0.3-0.3,0.6-0.6,0.6S133.8,179.2,133.8,178.8z
			 M133.9,179.9h1v3.6h-1V179.9z"/>
		<path class="st0" d="M138.1,183.3c-0.2,0.2-0.5,0.2-0.8,0.2c-0.9,0-1.3-0.4-1.3-1.3v-3.1h1v0.9h0.9v0.8h-0.9v1.5
			c0,0.3,0.2,0.5,0.4,0.5c0.2,0,0.3,0,0.4-0.1L138.1,183.3z"/>
		<path class="st0" d="M138.5,178.8c0-0.3,0.3-0.6,0.6-0.6s0.6,0.2,0.6,0.6c0,0.3-0.3,0.6-0.6,0.6S138.5,179.2,138.5,178.8z
			 M138.6,179.9h1v3.6h-1V179.9z"/>
		<path class="st0" d="M143.4,182.4l0.6,0.6c-0.3,0.4-0.8,0.6-1.5,0.6c-1.2,0-2-0.8-2-1.8c0-1.1,0.8-1.8,1.9-1.8
			c1,0,1.8,0.7,1.8,1.8l-2.6,0.5c0.2,0.4,0.5,0.5,1,0.5C142.8,182.7,143.1,182.6,143.4,182.4z M141.4,181.6l1.7-0.3
			c-0.1-0.4-0.4-0.6-0.8-0.6C141.8,180.6,141.4,181,141.4,181.6z"/>
		<path class="st0" d="M144.5,183.1l0.3-0.7c0.3,0.2,0.8,0.3,1.2,0.3c0.5,0,0.7-0.1,0.7-0.3c0-0.6-2.2,0-2.2-1.4
			c0-0.7,0.6-1.2,1.7-1.2c0.5,0,1,0.1,1.4,0.3l-0.3,0.7c-0.4-0.2-0.7-0.3-1-0.3c-0.5,0-0.7,0.1-0.7,0.3c0,0.6,2.2,0,2.2,1.4
			c0,0.7-0.6,1.1-1.7,1.1C145.5,183.5,144.8,183.4,144.5,183.1z"/>
		<path class="st0" d="M148,184.8c0.6-1,0.8-2,0.8-3.1c0-1.1-0.2-2.1-0.8-3.1h1c0.5,0.8,0.8,1.9,0.8,3.1c0,1.2-0.3,2.3-0.8,3.1H148z
			"/>
	</g>
	<g>
		<path class="st0" d="M53.7,201.4v2.9h-1.1v-2.8c0-0.7-0.4-1-0.9-1c-0.6,0-1,0.3-1,1.1v2.8h-1.1v-2.8c0-0.7-0.4-1-0.9-1
			c-0.6,0-1,0.3-1,1.1v2.8h-1.1v-4.7h1v0.6c0.3-0.4,0.8-0.7,1.4-0.7c0.6,0,1.1,0.2,1.4,0.7c0.3-0.4,0.9-0.7,1.5-0.7
			C53.1,199.5,53.7,200.1,53.7,201.4z"/>
		<path class="st0" d="M54.6,199.6c0-0.3,0.3-0.6,0.6-0.6s0.6,0.2,0.6,0.6c0,0.3-0.3,0.6-0.6,0.6S54.6,199.9,54.6,199.6z
			 M54.7,200.6h1v3.6h-1V200.6z"/>
		<path class="st0" d="M60.4,202.2v2h-1v-1.9c0-0.6-0.3-0.8-0.7-0.8c-0.5,0-0.9,0.3-0.9,1v1.8h-1v-3.6h1v0.4
			c0.3-0.3,0.7-0.5,1.2-0.5C59.8,200.6,60.4,201.1,60.4,202.2z"/>
		<path class="st0" d="M61.1,202.4c0-1.1,0.8-1.8,2-1.8s2,0.8,2,1.8c0,1.1-0.8,1.8-2,1.8S61.1,203.5,61.1,202.4z M64,202.4
			c0-0.6-0.4-1-0.9-1s-0.9,0.4-0.9,1c0,0.6,0.4,1,0.9,1S64,203.1,64,202.4z"/>
		<path class="st0" d="M68,200.6v1c-0.1,0-0.2,0-0.2,0c-0.6,0-1,0.3-1,1v1.7h-1v-3.6h1v0.5C67,200.8,67.4,200.6,68,200.6z"/>
		<path class="st0" d="M70.5,202.4c0-1.2,0.3-2.3,0.8-3.1h1c-0.6,1-0.8,2-0.8,3.1c0,1.1,0.2,2.1,0.8,3.1h-1
			C70.8,204.7,70.5,203.6,70.5,202.4z"/>
		<path class="st0" d="M74,201.4v0.3h1.9v0.9H74v1.7h-1.1v-2.8c0-1.2,0.8-1.9,2.1-1.9c0.5,0,1,0.1,1.4,0.3l-0.3,0.9
			c-0.3-0.2-0.6-0.3-1-0.3C74.4,200.4,74,200.7,74,201.4z"/>
		<path class="st0" d="M80.4,200.6v3.6h-1v-0.4c-0.3,0.3-0.7,0.5-1.1,0.5c-0.9,0-1.5-0.5-1.5-1.6v-2h1v1.9c0,0.6,0.3,0.9,0.7,0.9
			c0.5,0,0.8-0.3,0.8-1v-1.8H80.4z"/>
		<path class="st0" d="M83.5,204.1c-0.2,0.2-0.5,0.2-0.8,0.2c-0.9,0-1.3-0.4-1.3-1.3v-3.1h1v0.9h0.9v0.8h-0.9v1.5
			c0,0.3,0.2,0.5,0.4,0.5c0.2,0,0.3,0,0.4-0.1L83.5,204.1z"/>
		<path class="st0" d="M87.7,200.6v3.6h-1v-0.4c-0.3,0.3-0.7,0.5-1.1,0.5c-0.9,0-1.5-0.5-1.5-1.6v-2h1v1.9c0,0.6,0.3,0.9,0.7,0.9
			c0.5,0,0.8-0.3,0.8-1v-1.8H87.7z"/>
		<path class="st0" d="M90.9,200.6v1c-0.1,0-0.2,0-0.2,0c-0.6,0-1,0.3-1,1v1.7h-1v-3.6h1v0.5C89.9,200.8,90.4,200.6,90.9,200.6z"/>
		<path class="st0" d="M94.2,203.1l0.6,0.6c-0.3,0.4-0.8,0.6-1.5,0.6c-1.2,0-2-0.8-2-1.8c0-1.1,0.8-1.8,1.9-1.8c1,0,1.8,0.7,1.8,1.8
			l-2.6,0.5c0.2,0.4,0.5,0.5,1,0.5C93.7,203.4,94,203.3,94.2,203.1z M92.3,202.3L94,202c-0.1-0.4-0.4-0.6-0.8-0.6
			C92.6,201.4,92.3,201.7,92.3,202.3z"/>
		<path class="st0" d="M101.8,199.6v4.7h-1v-0.6c-0.3,0.4-0.8,0.6-1.4,0.6c-1.1,0-1.8-0.7-1.8-2v-2.7h1.1v2.7c0,0.8,0.4,1.1,1,1.1
			c0.6,0,1.1-0.4,1.1-1.2v-2.6H101.8z"/>
		<path class="st0" d="M105.1,200.6v1c-0.1,0-0.2,0-0.2,0c-0.6,0-1,0.3-1,1v1.7h-1v-3.6h1v0.5C104.1,200.8,104.5,200.6,105.1,200.6z
			"/>
		<path class="st0" d="M109.6,202.4c0,1.1-0.8,1.8-1.8,1.8c-0.5,0-0.9-0.2-1.1-0.5v0.4h-1v-4.9h1v1.7c0.3-0.3,0.6-0.4,1.1-0.4
			C108.8,200.6,109.6,201.3,109.6,202.4z M108.5,202.4c0-0.6-0.4-1-0.9-1s-0.9,0.4-0.9,1c0,0.6,0.4,1,0.9,1S108.5,203.1,108.5,202.4
			z"/>
		<path class="st0" d="M113.9,200.6v3.6h-1v-0.4c-0.3,0.3-0.6,0.5-1.1,0.5c-1,0-1.8-0.7-1.8-1.8c0-1.1,0.8-1.8,1.8-1.8
			c0.4,0,0.8,0.1,1.1,0.4v-0.4H113.9z M112.9,202.4c0-0.6-0.4-1-0.9-1c-0.5,0-0.9,0.4-0.9,1c0,0.6,0.4,1,0.9,1
			C112.5,203.4,112.9,203.1,112.9,202.4z"/>
		<path class="st0" d="M118.5,202.2v2h-1v-1.9c0-0.6-0.3-0.8-0.7-0.8c-0.5,0-0.9,0.3-0.9,1v1.8h-1v-3.6h1v0.4
			c0.3-0.3,0.7-0.5,1.2-0.5C117.9,200.6,118.5,201.1,118.5,202.2z"/>
		<path class="st0" d="M124.4,204.2l-0.9-1.3h-0.1h-0.9v1.3h-1.1v-4.7h2c1.2,0,2,0.6,2,1.7c0,0.7-0.4,1.2-1,1.5l1,1.5H124.4z
			 M123.4,200.4h-0.9v1.6h0.9c0.7,0,1-0.3,1-0.8C124.4,200.7,124.1,200.4,123.4,200.4z"/>
		<path class="st0" d="M129,203.1l0.6,0.6c-0.3,0.4-0.8,0.6-1.5,0.6c-1.2,0-2-0.8-2-1.8c0-1.1,0.8-1.8,1.9-1.8c1,0,1.8,0.7,1.8,1.8
			l-2.6,0.5c0.2,0.4,0.5,0.5,1,0.5C128.4,203.4,128.7,203.3,129,203.1z M127,202.3l1.7-0.3c-0.1-0.4-0.4-0.6-0.8-0.6
			C127.4,201.4,127,201.7,127,202.3z"/>
		<path class="st0" d="M134.2,200.6v3c0,1.3-0.7,1.9-2,1.9c-0.7,0-1.3-0.2-1.8-0.5l0.4-0.7c0.3,0.2,0.8,0.4,1.3,0.4
			c0.7,0,1.1-0.3,1.1-1v-0.2c-0.3,0.3-0.7,0.4-1.1,0.4c-1,0-1.8-0.7-1.8-1.7c0-1,0.8-1.7,1.8-1.7c0.5,0,0.9,0.2,1.2,0.5v-0.5H134.2z
			 M133.1,202.3c0-0.5-0.4-0.9-0.9-0.9c-0.5,0-0.9,0.4-0.9,0.9c0,0.5,0.4,0.9,0.9,0.9C132.7,203.2,133.1,202.8,133.1,202.3z"/>
		<path class="st0" d="M135,199.6c0-0.3,0.3-0.6,0.6-0.6c0.4,0,0.6,0.2,0.6,0.6c0,0.3-0.3,0.6-0.6,0.6
			C135.3,200.1,135,199.9,135,199.6z M135.1,200.6h1v3.6h-1V200.6z"/>
		<path class="st0" d="M136.9,202.4c0-1.1,0.8-1.8,2-1.8s2,0.8,2,1.8c0,1.1-0.8,1.8-2,1.8S136.9,203.5,136.9,202.4z M139.7,202.4
			c0-0.6-0.4-1-0.9-1s-0.9,0.4-0.9,1c0,0.6,0.4,1,0.9,1S139.7,203.1,139.7,202.4z"/>
		<path class="st0" d="M145.2,202.2v2h-1v-1.9c0-0.6-0.3-0.8-0.7-0.8c-0.5,0-0.9,0.3-0.9,1v1.8h-1v-3.6h1v0.4
			c0.3-0.3,0.7-0.5,1.2-0.5C144.5,200.6,145.2,201.1,145.2,202.2z"/>
		<path class="st0" d="M145.7,203.9l0.3-0.7c0.3,0.2,0.8,0.3,1.2,0.3c0.5,0,0.7-0.1,0.7-0.3c0-0.6-2.2,0-2.2-1.4
			c0-0.7,0.6-1.2,1.7-1.2c0.5,0,1,0.1,1.4,0.3l-0.3,0.7c-0.4-0.2-0.7-0.3-1-0.3c-0.5,0-0.7,0.1-0.7,0.3c0,0.6,2.2,0,2.2,1.4
			c0,0.7-0.6,1.1-1.7,1.1C146.7,204.3,146.1,204.1,145.7,203.9z"/>
		<path class="st0" d="M149.2,205.5c0.6-1,0.8-2,0.8-3.1c0-1.1-0.2-2.1-0.8-3.1h1c0.5,0.8,0.8,1.9,0.8,3.1c0,1.2-0.3,2.3-0.8,3.1
			H149.2z"/>
	</g>
	<g>
		<path class="st0" d="M190,188.5c0,0.8-0.6,1.3-1.9,1.3h-2.4v-4.7h2.3c1.2,0,1.8,0.5,1.8,1.2c0,0.5-0.2,0.8-0.6,1
			C189.7,187.6,190,188,190,188.5z M186.8,186v1.1h1.1c0.5,0,0.8-0.2,0.8-0.6s-0.3-0.5-0.8-0.5H186.8z M188.9,188.4
			c0-0.4-0.3-0.6-0.9-0.6h-1.3v1.2h1.3C188.6,189,188.9,188.8,188.9,188.4z"/>
		<path class="st0" d="M193.5,188.7l0.6,0.6c-0.3,0.4-0.8,0.6-1.5,0.6c-1.2,0-2-0.8-2-1.8c0-1.1,0.8-1.8,1.9-1.8
			c1,0,1.8,0.7,1.8,1.8l-2.6,0.5c0.2,0.4,0.5,0.5,1,0.5C192.9,189,193.2,188.9,193.5,188.7z M191.5,187.9l1.7-0.3
			c-0.1-0.4-0.4-0.6-0.8-0.6C191.9,187,191.5,187.3,191.5,187.9z"/>
		<path class="st0" d="M198.6,184.9v4.9h-1v-0.4c-0.3,0.3-0.6,0.5-1.1,0.5c-1,0-1.8-0.7-1.8-1.8c0-1.1,0.8-1.8,1.8-1.8
			c0.4,0,0.8,0.1,1.1,0.4v-1.7H198.6z M197.6,188c0-0.6-0.4-1-0.9-1c-0.5,0-0.9,0.4-0.9,1c0,0.6,0.4,1,0.9,1
			C197.2,189,197.6,188.6,197.6,188z"/>
		<path class="st0" d="M201.8,186.2v1c-0.1,0-0.2,0-0.2,0c-0.6,0-1,0.3-1,1v1.7h-1v-3.6h1v0.5C200.8,186.4,201.2,186.2,201.8,186.2z
			"/>
		<path class="st0" d="M202.3,185.1c0-0.3,0.3-0.6,0.6-0.6c0.4,0,0.6,0.2,0.6,0.6c0,0.3-0.3,0.6-0.6,0.6
			C202.5,185.7,202.3,185.5,202.3,185.1z M202.4,186.2h1v3.6h-1V186.2z"/>
		<path class="st0" d="M203.3,191l0.3-0.8c0.1,0.1,0.3,0.1,0.4,0.1c0.3,0,0.4-0.2,0.4-0.5v-3.6h1v3.6c0,0.8-0.5,1.4-1.4,1.4
			C203.8,191.2,203.5,191.1,203.3,191z M204.3,185.1c0-0.3,0.3-0.6,0.6-0.6s0.6,0.2,0.6,0.6c0,0.3-0.3,0.6-0.6,0.6
			S204.3,185.5,204.3,185.1z"/>
		<path class="st0" d="M207.5,186.3h0.9v0.8h-0.9v2.7h-1v-3.7c0-0.8,0.5-1.3,1.4-1.3c0.3,0,0.6,0.1,0.8,0.2l-0.3,0.8
			c-0.1-0.1-0.3-0.1-0.4-0.1c-0.3,0-0.5,0.2-0.5,0.5V186.3z"/>
		<path class="st0" d="M208.6,189.5l0.3-0.7c0.3,0.2,0.8,0.3,1.2,0.3c0.5,0,0.7-0.1,0.7-0.3c0-0.6-2.2,0-2.2-1.4
			c0-0.7,0.6-1.2,1.7-1.2c0.5,0,1,0.1,1.4,0.3l-0.3,0.7c-0.4-0.2-0.7-0.3-1-0.3c-0.5,0-0.7,0.1-0.7,0.3c0,0.6,2.2,0,2.2,1.4
			c0,0.7-0.6,1.1-1.7,1.1C209.5,189.9,208.9,189.7,208.6,189.5z"/>
		<path class="st0" d="M212.3,187.5h1.9v0.8h-1.9V187.5z"/>
		<path class="st0" d="M184,196c0-1.1,0.8-1.8,2-1.8s2,0.8,2,1.8c0,1.1-0.8,1.8-2,1.8S184,197.1,184,196z M186.8,196
			c0-0.6-0.4-1-0.9-1s-0.9,0.4-0.9,1c0,0.6,0.4,1,0.9,1S186.8,196.6,186.8,196z"/>
		<path class="st0" d="M192.5,196c0,1.1-0.8,1.8-1.8,1.8c-0.4,0-0.8-0.1-1.1-0.4v1.7h-1v-4.9h1v0.4c0.3-0.3,0.6-0.5,1.1-0.5
			C191.7,194.2,192.5,194.9,192.5,196z M191.4,196c0-0.6-0.4-1-0.9-1s-0.9,0.4-0.9,1c0,0.6,0.4,1,0.9,1S191.4,196.6,191.4,196z"/>
		<path class="st0" d="M196.8,192.9v4.9h-1v-0.4c-0.3,0.3-0.6,0.5-1.1,0.5c-1,0-1.8-0.7-1.8-1.8c0-1.1,0.8-1.8,1.8-1.8
			c0.4,0,0.8,0.1,1.1,0.4v-1.7H196.8z M195.8,196c0-0.6-0.4-1-0.9-1c-0.5,0-0.9,0.4-0.9,1c0,0.6,0.4,1,0.9,1
			C195.4,197,195.8,196.6,195.8,196z"/>
		<path class="st0" d="M200,194.2v1c-0.1,0-0.2,0-0.2,0c-0.6,0-1,0.3-1,1v1.7h-1v-3.6h1v0.5C199,194.3,199.5,194.2,200,194.2z"/>
		<path class="st0" d="M204.2,194.2v3.6h-1v-0.4c-0.3,0.3-0.6,0.5-1.1,0.5c-1,0-1.8-0.7-1.8-1.8c0-1.1,0.8-1.8,1.8-1.8
			c0.4,0,0.8,0.1,1.1,0.4v-0.4H204.2z M203.2,196c0-0.6-0.4-1-0.9-1c-0.5,0-0.9,0.4-0.9,1c0,0.6,0.4,1,0.9,1
			C202.8,197,203.2,196.6,203.2,196z"/>
		<path class="st0" d="M204.9,196c0-1.1,0.8-1.8,2-1.8c0.8,0,1.3,0.3,1.6,0.9l-0.8,0.4c-0.2-0.3-0.5-0.5-0.8-0.5
			c-0.5,0-0.9,0.4-0.9,1c0,0.6,0.4,1,0.9,1c0.3,0,0.6-0.1,0.8-0.5l0.8,0.4c-0.3,0.6-0.9,0.9-1.6,0.9
			C205.8,197.8,204.9,197.1,204.9,196z"/>
		<path class="st0" d="M212.8,195.7v2h-1v-1.9c0-0.6-0.3-0.8-0.7-0.8c-0.5,0-0.9,0.3-0.9,1v1.8h-1v-4.9h1v1.7
			c0.3-0.3,0.7-0.4,1.1-0.4C212.1,194.2,212.8,194.7,212.8,195.7z"/>
		<path class="st0" d="M215.9,197.6c-0.2,0.2-0.5,0.2-0.8,0.2c-0.9,0-1.3-0.4-1.3-1.3v-3.1h1v0.9h0.9v0.8h-0.9v1.5
			c0,0.3,0.2,0.5,0.4,0.5c0.2,0,0.3,0,0.4-0.1L215.9,197.6z"/>
	</g>
	<g>
		<path class="st0" d="M253.7,187.3v2.5h-1.1v-1.1h-2.1v1.1h-1.1v-2.5c0-1.4,0.9-2.2,2.1-2.2C252.8,185.1,253.7,185.8,253.7,187.3z
			 M252.6,187.8v-0.7c0-0.8-0.4-1.2-1.1-1.2c-0.6,0-1.1,0.4-1.1,1.2v0.7H252.6z"/>
		<path class="st0" d="M255.7,186.3h0.9v0.8h-0.9v2.7h-1v-3.7c0-0.8,0.5-1.3,1.4-1.3c0.3,0,0.6,0.1,0.8,0.2l-0.3,0.8
			c-0.1-0.1-0.3-0.1-0.4-0.1c-0.3,0-0.5,0.2-0.5,0.5V186.3z"/>
		<path class="st0" d="M256.8,189.5l0.3-0.7c0.3,0.2,0.8,0.3,1.2,0.3c0.5,0,0.7-0.1,0.7-0.3c0-0.6-2.2,0-2.2-1.4
			c0-0.7,0.6-1.2,1.7-1.2c0.5,0,1,0.1,1.4,0.3l-0.3,0.7c-0.4-0.2-0.7-0.3-1-0.3c-0.5,0-0.7,0.1-0.7,0.3c0,0.6,2.2,0,2.2,1.4
			c0,0.7-0.6,1.1-1.7,1.1C257.8,189.9,257.1,189.7,256.8,189.5z"/>
		<path class="st0" d="M262.8,189.6c-0.2,0.2-0.5,0.2-0.8,0.2c-0.9,0-1.3-0.4-1.3-1.3v-3.1h1v0.9h0.9v0.8h-0.9v1.5
			c0,0.3,0.2,0.5,0.4,0.5c0.2,0,0.3,0,0.4-0.1L262.8,189.6z"/>
		<path class="st0" d="M267,186.2v3.6h-1v-0.4c-0.3,0.3-0.7,0.5-1.1,0.5c-0.9,0-1.5-0.5-1.5-1.6v-2h1v1.9c0,0.6,0.3,0.9,0.7,0.9
			c0.5,0,0.8-0.3,0.8-1v-1.8H267z"/>
		<path class="st0" d="M271.7,184.9v4.9h-1v-0.4c-0.3,0.3-0.6,0.5-1.1,0.5c-1,0-1.8-0.7-1.8-1.8c0-1.1,0.8-1.8,1.8-1.8
			c0.4,0,0.8,0.1,1.1,0.4v-1.7H271.7z M270.6,188c0-0.6-0.4-1-0.9-1c-0.5,0-0.9,0.4-0.9,1c0,0.6,0.4,1,0.9,1
			C270.2,189,270.6,188.6,270.6,188z"/>
		<path class="st0" d="M275.3,188.7l0.6,0.6c-0.3,0.4-0.8,0.6-1.5,0.6c-1.2,0-2-0.8-2-1.8c0-1.1,0.8-1.8,1.9-1.8
			c1,0,1.8,0.7,1.8,1.8l-2.6,0.5c0.2,0.4,0.5,0.5,1,0.5C274.8,189,275.1,188.9,275.3,188.7z M273.4,187.9l1.7-0.3
			c-0.1-0.4-0.4-0.6-0.8-0.6C273.7,187,273.4,187.3,273.4,187.9z"/>
		<path class="st0" d="M279.5,188.7l0.6,0.6c-0.3,0.4-0.8,0.6-1.5,0.6c-1.2,0-2-0.8-2-1.8c0-1.1,0.8-1.8,1.9-1.8
			c1,0,1.8,0.7,1.8,1.8l-2.6,0.5c0.2,0.4,0.5,0.5,1,0.5C279,189,279.3,188.9,279.5,188.7z M277.6,187.9l1.7-0.3
			c-0.1-0.4-0.4-0.6-0.8-0.6C277.9,187,277.6,187.3,277.6,187.9z"/>
		<path class="st0" d="M283.2,186.2v1c-0.1,0-0.2,0-0.2,0c-0.6,0-1,0.3-1,1v1.7h-1v-3.6h1v0.5C282.3,186.4,282.7,186.2,283.2,186.2z
			"/>
		<path class="st0" d="M283.7,187.5h1.9v0.8h-1.9V187.5z"/>
		<path class="st0" d="M254.6,197.5l0.3-0.7c0.3,0.2,0.8,0.3,1.2,0.3c0.5,0,0.7-0.1,0.7-0.3c0-0.6-2.2,0-2.2-1.4
			c0-0.7,0.6-1.2,1.7-1.2c0.5,0,1,0.1,1.4,0.3l-0.3,0.7c-0.4-0.2-0.7-0.3-1-0.3c-0.5,0-0.7,0.1-0.7,0.3c0,0.6,2.2,0,2.2,1.4
			c0,0.7-0.6,1.1-1.7,1.1C255.6,197.8,255,197.7,254.6,197.5z"/>
		<path class="st0" d="M258.2,196c0-1.1,0.8-1.8,2-1.8c0.8,0,1.3,0.3,1.6,0.9l-0.8,0.4c-0.2-0.3-0.5-0.5-0.8-0.5
			c-0.5,0-0.9,0.4-0.9,1c0,0.6,0.4,1,0.9,1c0.3,0,0.6-0.1,0.8-0.5l0.8,0.4c-0.3,0.6-0.9,0.9-1.6,0.9
			C259.1,197.8,258.2,197.1,258.2,196z"/>
		<path class="st0" d="M264.7,194.2v1c-0.1,0-0.2,0-0.2,0c-0.6,0-1,0.3-1,1v1.7h-1v-3.6h1v0.5C263.7,194.3,264.1,194.2,264.7,194.2z
			"/>
		<path class="st0" d="M265.2,193.1c0-0.3,0.3-0.6,0.6-0.6s0.6,0.2,0.6,0.6c0,0.3-0.3,0.6-0.6,0.6S265.2,193.5,265.2,193.1z
			 M265.3,194.2h1v3.6h-1V194.2z"/>
		<path class="st0" d="M271.2,196c0,1.1-0.8,1.8-1.8,1.8c-0.4,0-0.8-0.1-1.1-0.4v1.7h-1v-4.9h1v0.4c0.3-0.3,0.6-0.5,1.1-0.5
			C270.4,194.2,271.2,194.9,271.2,196z M270.1,196c0-0.6-0.4-1-0.9-1s-0.9,0.4-0.9,1c0,0.6,0.4,1,0.9,1S270.1,196.6,270.1,196z"/>
		<path class="st0" d="M274,197.6c-0.2,0.2-0.5,0.2-0.8,0.2c-0.9,0-1.3-0.4-1.3-1.3v-3.1h1v0.9h0.9v0.8h-0.9v1.5
			c0,0.3,0.2,0.5,0.4,0.5c0.2,0,0.3,0,0.4-0.1L274,197.6z"/>
		<path class="st0" d="M274.5,193.1c0-0.3,0.3-0.6,0.6-0.6s0.6,0.2,0.6,0.6c0,0.3-0.3,0.6-0.6,0.6S274.5,193.5,274.5,193.1z
			 M274.6,194.2h1v3.6h-1V194.2z"/>
		<path class="st0" d="M279.3,196.7l0.6,0.6c-0.3,0.4-0.8,0.6-1.5,0.6c-1.2,0-2-0.8-2-1.8c0-1.1,0.8-1.8,1.9-1.8
			c1,0,1.8,0.7,1.8,1.8l-2.6,0.5c0.2,0.4,0.5,0.5,1,0.5C278.8,197,279.1,196.9,279.3,196.7z M277.4,195.9l1.7-0.3
			c-0.1-0.4-0.4-0.6-0.8-0.6C277.8,194.9,277.4,195.3,277.4,195.9z"/>
	</g>
</g>
</svg>
