<?xml version="1.0" encoding="utf-8"?>
<!-- Generator: Adobe Illustrator 23.0.1, SVG Export Plug-In . SVG Version: 6.00 Build 0)  -->
<svg version="1.1" id="Layer_1" xmlns="http://www.w3.org/2000/svg" xmlns:xlink="http://www.w3.org/1999/xlink" x="0px" y="0px"
	 viewBox="0 0 216.9 37" width="200" style="enable-background:new 0 0 216.9 37;" xml:space="preserve">
<g>
	<path d="M205.5,6.9v24.2H9.5V6.9H205.5 M207.5,4.9H7.5v28.2h200V4.9L207.5,4.9z"/>
</g>
<g>
	<path d="M20.3,19.5h2.4v2.2H20l-0.4,3.2h-2.1l0.4-3.2h-2.7l-0.4,3.2h-2.1l0.4-3.2h-2.4v-2.2h2.7l0.4-3.3h-2.4V14H14l0.4-3.2h2.1
		L16.1,14h2.7l0.4-3.2h2.1L20.9,14h2.4l0,2.2h-2.7L20.3,19.5z M18.2,19.5l0.4-3.3h-2.7l-0.4,3.3H18.2z"/>
	<path d="M35.3,14.1v9c0,4-2,5.9-5.6,5.9c-1.9,0-3.7-0.5-4.9-1.5l1.1-2.3c0.8,0.7,2.2,1.2,3.5,1.2c2,0,2.9-1,2.9-3V23
		c-0.8,0.9-1.8,1.3-3.1,1.3c-2.8,0-5-2.1-5-5.2c0-3.2,2.2-5.2,5-5.2c1.4,0,2.5,0.5,3.3,1.6v-1.4H35.3z M32.4,19.1
		c0-1.6-1.1-2.7-2.6-2.7s-2.6,1.1-2.6,2.7c0,1.6,1.1,2.7,2.6,2.7S32.4,20.7,32.4,19.1z"/>
	<path d="M47.6,20.4h-7.5c0.3,1.3,1.3,2.2,2.8,2.2c1.1,0,1.8-0.3,2.5-1l1.5,1.8c-0.9,1.1-2.3,1.8-4.1,1.8c-3.4,0-5.7-2.4-5.7-5.6
		c0-3.2,2.3-5.6,5.3-5.6c2.9,0,5.2,2.1,5.2,5.6C47.7,19.8,47.6,20.1,47.6,20.4z M40.1,18.5H45c-0.2-1.4-1.1-2.3-2.4-2.3
		C41.2,16.3,40.3,17.1,40.1,18.5z"/>
	<path d="M48.9,19.5c0-3.3,2.3-5.6,5.5-5.6c3.2,0,5.4,2.3,5.4,5.6c0,3.3-2.3,5.6-5.4,5.6C51.2,25.1,48.9,22.7,48.9,19.5z M56.9,19.5
		c0-1.9-1.1-3-2.5-3c-1.4,0-2.5,1.1-2.5,3c0,1.9,1.1,3,2.5,3C55.8,22.5,56.9,21.3,56.9,19.5z"/>
	<path d="M59.9,24.9h9.2v1.8h-9.2V24.9z"/>
	<path d="M87.3,18.7v6.2h-2.9v-5.7c0-1.8-0.7-2.6-1.9-2.6c-1.3,0-2.2,0.9-2.2,2.8v5.4h-2.9v-5.7c0-1.8-0.7-2.6-1.9-2.6
		c-1.3,0-2.2,0.9-2.2,2.8v5.4h-2.9V14.1h2.8v1.2c0.7-0.9,1.8-1.4,3.1-1.4c1.4,0,2.6,0.6,3.3,1.8c0.8-1.1,2.1-1.8,3.6-1.8
		C85.6,13.9,87.3,15.4,87.3,18.7z"/>
	<path d="M99.7,20.4h-7.5c0.3,1.3,1.3,2.2,2.8,2.2c1.1,0,1.8-0.3,2.5-1l1.5,1.8c-0.9,1.1-2.3,1.8-4.1,1.8c-3.4,0-5.7-2.4-5.7-5.6
		c0-3.2,2.3-5.6,5.3-5.6c2.9,0,5.2,2.1,5.2,5.6C99.7,19.8,99.7,20.1,99.7,20.4z M92.1,18.5H97c-0.2-1.4-1.1-2.3-2.4-2.3
		C93.2,16.3,92.3,17.1,92.1,18.5z"/>
	<path d="M111.8,9.9v14.9H109v-1.2c-0.7,0.9-1.8,1.4-3.1,1.4c-2.8,0-5-2.2-5-5.6s2.2-5.6,5-5.6c1.2,0,2.3,0.4,3,1.3V9.9H111.8z
		 M108.9,19.5c0-1.9-1.1-3-2.5-3c-1.4,0-2.5,1.1-2.5,3c0,1.9,1.1,3,2.5,3C107.8,22.5,108.9,21.3,108.9,19.5z"/>
	<path d="M114.1,10.8c0-1,0.7-1.8,1.8-1.8c1.1,0,1.8,0.7,1.8,1.7c0,1-0.7,1.8-1.8,1.8C114.8,12.5,114.1,11.8,114.1,10.8z
		 M114.4,14.1h2.9v10.8h-2.9V14.1z"/>
	<path d="M128.8,18.7v6.2h-2.7v-1.3c-0.5,1-1.6,1.5-3,1.5c-2.3,0-3.7-1.4-3.7-3.3c0-1.9,1.2-3.2,4.3-3.2h2.3c0-1.3-0.7-2.1-2.3-2.1
		c-1.1,0-2.1,0.4-2.9,1l-1-2.2c1.1-0.8,2.7-1.3,4.3-1.3C127,13.9,128.8,15.4,128.8,18.7z M125.9,21.5v-1.1h-2
		c-1.3,0-1.8,0.5-1.8,1.3c0,0.8,0.6,1.3,1.6,1.3C124.7,22.9,125.6,22.5,125.9,21.5z"/>
	<path d="M130,24.9h9.2v1.8H130V24.9z"/>
	<path d="M150.3,9.9v14.9h-2.8v-1.2c-0.7,0.9-1.8,1.4-3.1,1.4c-2.8,0-5-2.2-5-5.6s2.2-5.6,5-5.6c1.2,0,2.3,0.4,3,1.3V9.9H150.3z
		 M147.5,19.5c0-1.9-1.1-3-2.5-3c-1.4,0-2.5,1.1-2.5,3c0,1.9,1.1,3,2.5,3C146.4,22.5,147.5,21.3,147.5,19.5z"/>
	<path d="M162.6,20.4h-7.5c0.3,1.3,1.3,2.2,2.8,2.2c1.1,0,1.8-0.3,2.5-1l1.5,1.8c-0.9,1.1-2.3,1.8-4.1,1.8c-3.4,0-5.7-2.4-5.7-5.6
		c0-3.2,2.3-5.6,5.3-5.6c2.9,0,5.2,2.1,5.2,5.6C162.7,19.8,162.6,20.1,162.6,20.4z M155.1,18.5h4.9c-0.2-1.4-1.1-2.3-2.4-2.3
		C156.2,16.3,155.3,17.1,155.1,18.5z"/>
	<path d="M163.6,23.9l1-2.3c0.9,0.6,2.2,1,3.5,1c1.3,0,1.8-0.4,1.8-1c0-1.8-6,0-6-4.3c0-2.1,1.7-3.5,4.6-3.5c1.4,0,2.9,0.3,3.8,0.9
		l-1,2.2c-1-0.6-2-0.8-2.9-0.8c-1.3,0-1.8,0.4-1.8,1c0,1.9,6,0.1,6,4.3c0,2-1.7,3.4-4.7,3.4C166.3,25.1,164.6,24.6,163.6,23.9z"/>
	<path d="M174.1,10.8c0-1,0.7-1.8,1.8-1.8c1.1,0,1.8,0.7,1.8,1.7c0,1-0.7,1.8-1.8,1.8C174.8,12.5,174.1,11.8,174.1,10.8z
		 M174.4,14.1h2.9v10.8h-2.9V14.1z"/>
	<path d="M190.2,14.1v9c0,4-2,5.9-5.6,5.9c-1.9,0-3.7-0.5-4.9-1.5l1.1-2.3c0.8,0.7,2.2,1.2,3.5,1.2c2,0,2.9-1,2.9-3V23
		c-0.8,0.9-1.8,1.3-3.1,1.3c-2.8,0-5-2.1-5-5.2c0-3.2,2.2-5.2,5-5.2c1.4,0,2.5,0.5,3.3,1.6v-1.4H190.2z M187.4,19.1
		c0-1.6-1.1-2.7-2.6-2.7s-2.6,1.1-2.6,2.7c0,1.6,1.1,2.7,2.6,2.7S187.4,20.7,187.4,19.1z"/>
	<path d="M203.1,18.7v6.2h-2.9v-5.7c0-1.8-0.7-2.6-2-2.6c-1.4,0-2.4,0.9-2.4,2.9v5.4h-2.9V14.1h2.8v1.3c0.8-0.9,1.9-1.4,3.3-1.4
		C201.3,13.9,203.1,15.4,203.1,18.7z"/>
</g>
</svg>
